SplineFontDB: 3.0
FontName: Gothica-BoldOblique
FullName: Gothica Bold Oblique
FamilyName: Gothica
Weight: Bold
Copyright: Copyright (c) 2020-2024 by Wojciech Kalinowski "wmk69" with Reserved Font Name "Gothica-BoldOblique".\nThis Font Software is licensed under the SIL Open Font License, Version 1.1.
Version: 2.1.0; 2021-05-14
ItalicAngle: -12
UnderlinePosition: -80
UnderlineWidth: 320
Ascent: 1638
Descent: 410
InvalidEm: 0
LayerCount: 2
Layer: 0 1 "Warstwa t+AUIA-a" 1
Layer: 1 1 "Plan pierwszy" 0
XUID: [1021 783 23647091 8360855]
StyleMap: 0x0021
FSType: 0
OS2Version: 3
OS2_WeightWidthSlopeOnly: 0
OS2_UseTypoMetrics: 1
CreationTime: 1260698820
ModificationTime: 1621007374
PfmFamily: 33
TTFWeight: 700
TTFWidth: 5
LineGap: 250
VLineGap: 0
Panose: 2 12 8 4 5 5 3 13 6 4
OS2TypoAscent: 2000
OS2TypoAOffset: 0
OS2TypoDescent: -500
OS2TypoDOffset: 0
OS2TypoLinegap: 250
OS2WinAscent: 2000
OS2WinAOffset: 0
OS2WinDescent: 500
OS2WinDOffset: 0
HheadAscent: 2000
HheadAOffset: 0
HheadDescent: -500
HheadDOffset: 0
OS2SubXSize: 1434
OS2SubYSize: 1331
OS2SubXOff: 0
OS2SubYOff: 287
OS2SupXSize: 1434
OS2SupYSize: 1331
OS2SupXOff: 0
OS2SupYOff: 977
OS2StrikeYSize: 102
OS2StrikeYPos: 512
OS2CapHeight: 1550
OS2XHeight: 1140
OS2Vendor: '    '
OS2CodePages: 20000093.00000000
OS2UnicodeRanges: 8000002f.4000204b.00000000.00000000
Lookup: 258 0 0 "'kern' Horizontal Kerning lookup 0" { "'kern' Horizontal Kerning lookup 0-1 subtable" [307,0,4] } ['kern' ('DFLT' <'dflt' > 'grek' <'dflt' > 'latn' <'dflt' > ) ]
MarkAttachClasses: 1
DEI: 91125
KernClass2: 66 52 "'kern' Horizontal Kerning lookup 0-1 subtable"
 185 H I U Igrave Iacute Icircumflex Idieresis Ugrave Uacute Ucircumflex Udieresis Hcircumflex Hbar Itilde Imacron Ibreve Iogonek Idotaccent Utilde Umacron Ubreve Uring Uhungarumlaut Uogonek
 84 A Agrave Aacute Acircumflex Atilde Adieresis Aring Amacron Abreve Aogonek Aringacute
 9 B uni1E02
 47 C Ccedilla Cacute Ccircumflex Cdotaccent Ccaron
 44 G Gcircumflex Gbreve Gdotaccent Gcommaaccent

StartChar: .notdef
Encoding: 65536 -1 0
Width: 974
Flags: W
HStem: 0 118<293 731> 1392 118<564 1002>
VStem: 80 814<0 814> 401 814<696 1510>
DStem2: 80 0 267.918 0 0.207912 0.978148<159.707 1462.21> 705.918 0 894 0 0.207912 0.978148<120.636 1423.14>
LayerCount: 2
Fore
SplineSet
80 0 m 1,0,-1
 401 1510 l 1,1,-1
 1215 1510 l 1,2,-1
 894 0 l 1,3,-1
 80 0 l 1,0,-1
293 118 m 1,4,-1
 731 118 l 1,5,-1
 1002 1392 l 1,6,-1
 564 1392 l 1,7,-1
 293 118 l 1,4,-1
EndSplineSet
Validated: 1
EndChar

StartChar: exclam
Encoding: 33 33 4
Width: 579
GlyphClass: 2
Flags: W
HStem: -20 21G<258.5 281.5> 1530 20G<750.884 789>
VStem: 138 374<103.382 229.618>
LayerCount: 2
Fore
SplineSet
779 1550 m 1,0,-1
 789 1550 l 1,1,-1
 534 545 l 1,2,-1
 242 337 l 1,3,-1
 232 337 l 1,4,-1
 391 1274 l 1,5,-1
 779 1550 l 1,0,-1
268 -20 m 0,6,7
 249 -20 249 -20 227 -11 c 0,8,9
 184 7 184 7 160 50 c 0,10,11
 138 90 138 90 138 132 c 0,12,13
 138 148 138 148 141 164 c 0,14,15
 150 207 150 207 190 235 c 2,16,-1
 327 332 l 2,17,18
 356 353 356 353 383 353 c 0,19,20
 402 353 402 353 423 344 c 0,21,22
 468 325 468 325 490 283 c 0,23,24
 512 243 512 243 512 201 c 0,25,26
 512 185 512 185 509 169 c 0,27,28
 500 126 500 126 460 98 c 2,29,-1
 324 1 l 2,30,31
 295 -20 295 -20 268 -20 c 0,6,7
EndSplineSet
Validated: 1
EndChar

StartChar: quotedbl
Encoding: 34 34 5
Width: 557
GlyphClass: 2
Flags: W
HStem: 925 625
VStem: 217 649
LayerCount: 2
Fore
SplineSet
856 1550 m 1,0,-1
 866 1550 l 1,1,-1
 770 1097 l 1,2,-1
 529 925 l 1,3,-1
 519 925 l 1,4,-1
 615 1378 l 1,5,-1
 856 1550 l 1,0,-1
554 1550 m 1,6,-1
 564 1550 l 1,7,-1
 468 1097 l 1,8,-1
 227 925 l 1,9,-1
 217 925 l 1,10,-1
 313 1378 l 1,11,-1
 554 1550 l 1,6,-1
EndSplineSet
Validated: 1
EndChar

StartChar: numbersign
Encoding: 35 35 6
Width: 1349
GlyphClass: 2
Flags: W
HStem: 498 190<376 522 752 848 1078 1224> 824 190<446 591 822 917 1148 1293>
DStem2: 450 161 639.904 161 0.207912 0.978148<193.857 344.605 578.273 677.827 911.703 1061.27> 776 161 965.904 161 0.207912 0.978148<193.857 344.605 578.273 677.827 911.703 1061.27>
LayerCount: 2
Fore
SplineSet
883 1350 m 1,0,-1
 893 1350 l 1,1,-1
 822 1014 l 1,2,-1
 958 1014 l 1,3,-1
 997 1199 l 1,4,-1
 1209 1350 l 1,5,-1
 1219 1350 l 1,6,-1
 1148 1014 l 1,7,-1
 1484 1014 l 1,8,-1
 1481 1004 l 1,9,-1
 1293 824 l 1,10,-1
 1107 824 l 1,11,-1
 1078 688 l 1,12,-1
 1414 688 l 1,13,-1
 1412 678 l 1,14,-1
 1224 498 l 1,15,-1
 1038 498 l 1,16,-1
 998 312 l 1,17,-1
 786 161 l 1,18,-1
 776 161 l 1,19,-1
 848 498 l 1,20,-1
 712 498 l 1,21,-1
 672 312 l 1,22,-1
 460 161 l 1,23,-1
 450 161 l 1,24,-1
 522 498 l 1,25,-1
 186 498 l 1,26,-1
 188 508 l 1,27,-1
 376 688 l 1,28,-1
 562 688 l 1,29,-1
 591 824 l 1,30,-1
 255 824 l 1,31,-1
 257 834 l 1,32,-1
 446 1014 l 1,33,-1
 632 1014 l 1,34,-1
 671 1199 l 1,35,-1
 883 1350 l 1,0,-1
888 688 m 1,36,-1
 917 824 l 1,37,-1
 781 824 l 1,38,-1
 752 688 l 1,39,-1
 888 688 l 1,36,-1
EndSplineSet
Validated: 1
EndChar

StartChar: dollar
Encoding: 36 36 7
Width: 1266
GlyphClass: 2
Flags: W
VStem: 365 314<933.5 1142.71> 986 323<447.883 627.306>
DStem2: 575.493 -140 674.846 -140 0.207912 0.978148<98.3544 122.681 463.354 822.859 1168.84 1403.6 1724.09 1752.33>
LayerCount: 2
Fore
SplineSet
601 -20 m 1,0,1
 543 -20 543 -20 494 -4 c 0,2,3
 336 48 336 48 247 174 c 0,4,5
 176 276 176 276 162 386 c 1,6,-1
 505 629 l 1,7,-1
 515 629 l 1,8,-1
 493 529 l 2,9,10
 486 497 486 497 486 469 c 0,11,12
 487 400 487 400 527 350 c 0,13,14
 578 286 578 286 665 281 c 1,15,-1
 746 665 l 1,16,17
 556 673 556 673 450 785 c 0,18,19
 365 875 365 875 365 992 c 0,20,21
 365 1028 365 1028 373 1066 c 0,22,23
 391 1151 391 1151 503 1231 c 2,24,-1
 856 1483 l 2,25,26
 894 1510 894 1510 929 1522 c 1,27,-1
 940 1574 l 1,28,-1
 1046 1650 l 1,29,-1
 1056 1650 l 1,30,-1
 1030 1526 l 1,31,32
 1048 1523 1048 1523 1064 1517 c 0,33,34
 1171 1481 1171 1481 1237 1395 c 0,35,36
 1293 1322 1293 1322 1308 1228 c 1,37,-1
 1016 1020 l 1,38,-1
 1006 1020 l 1,39,-1
 1016 1067 l 2,40,41
 1021 1090 1021 1090 1021 1113 c 0,42,43
 1021 1162 1021 1162 993 1192 c 0,44,45
 980 1206 980 1206 963 1215 c 1,46,-1
 914 983 l 1,47,48
 1119 973 1119 973 1225 841 c 0,49,50
 1309 737 1309 737 1309 616 c 0,51,52
 1309 573 1309 573 1298 526 c 0,53,54
 1286 475 1286 475 1256 434 c 0,55,56
 1228 396 1228 396 1166 352 c 2,57,-1
 710 27 l 1,58,-1
 691 -64 l 1,59,-1
 585 -140 l 1,60,-1
 575 -140 l 1,61,-1
 601 -20 l 1,0,1
815 987 m 1,62,-1
 867 1233 l 1,63,64
 814 1229 814 1229 766 1202 c 0,65,66
 695 1162 695 1162 682 1100 c 0,67,68
 679 1088 679 1088 679 1077 c 0,69,70
 679 1032 679 1032 723 1009 c 0,71,72
 756 993 756 993 815 987 c 1,62,-1
845 660 m 1,73,-1
 767 293 l 1,74,75
 827 312 827 312 881 357 c 0,76,77
 964 427 964 427 982 512 c 0,78,79
 986 530 986 530 986 546 c 0,80,81
 986 643 986 643 845 660 c 1,73,-1
EndSplineSet
Validated: 1
EndChar

StartChar: percent
Encoding: 37 37 8
Width: 1560
GlyphClass: 2
Flags: W
HStem: -40 21G<223.47 267.035> -20 208<1043.05 1185.44> 495 207<1166.31 1303.76> 808 208<572.05 714.444> 1323 207<695.305 832.757> 1530 20G<1614.88 1659>
VStem: 321 230<1056.82 1240.91> 792 230<228.817 412.911> 857 232<1097.09 1281.03> 1328 232<269.089 453.028>
DStem2: 132 126 246 -40 0.724711 0.689053<0 2043.55>
LayerCount: 2
Fore
SplineSet
1077 -20 m 0,0,1
 1044 -20 1044 -20 1008 -9 c 0,2,3
 924 15 924 15 863 88 c 0,4,5
 792 173 792 173 792 274 c 0,6,7
 792 302 792 302 797 331 c 0,8,9
 805 375 805 375 833 409 c 0,10,11
 856 438 856 438 904 472 c 2,12,-1
 1176 665 l 2,13,14
 1228 702 1228 702 1275 702 c 0,15,16
 1308 702 1308 702 1344 691 c 0,17,18
 1428 667 1428 667 1489 594 c 0,19,20
 1560 509 1560 509 1560 408 c 0,21,22
 1560 380 1560 380 1555 351 c 0,23,24
 1547 307 1547 307 1519 273 c 0,25,26
 1496 244 1496 244 1448 210 c 2,27,-1
 1176 17 l 2,28,29
 1124 -20 1124 -20 1077 -20 c 0,0,1
1207 495 m 0,30,31
 1148 495 1148 495 1093 452 c 0,32,33
 1041 412 1041 412 1027 342 c 0,34,35
 1022 318 1022 318 1022 297 c 0,36,37
 1022 254 1022 254 1044 228 c 0,38,39
 1076 188 1076 188 1142.5 188 c 128,-1,40
 1209 188 1209 188 1260 230 c 0,41,42
 1310 270 1310 270 1324 340 c 0,43,44
 1328 361 1328 361 1328 379 c 0,45,46
 1328 423 1328 423 1303 454 c 0,47,48
 1271 495 1271 495 1207 495 c 0,30,31
804 1530 m 0,49,50
 837 1530 837 1530 873 1519 c 0,51,52
 957 1495 957 1495 1018 1422 c 0,53,54
 1089 1337 1089 1337 1089 1236 c 0,55,56
 1089 1208 1089 1208 1084 1179 c 0,57,58
 1076 1135 1076 1135 1048 1101 c 0,59,60
 1025 1072 1025 1072 977 1038 c 2,61,-1
 705 845 l 2,62,63
 653 808 653 808 606 808 c 0,64,65
 573 808 573 808 537 819 c 0,66,67
 453 843 453 843 392 916 c 0,68,69
 321 1001 321 1001 321 1102 c 0,70,71
 321 1130 321 1130 326 1159 c 0,72,73
 334 1203 334 1203 362 1237 c 0,74,75
 385 1266 385 1266 433 1300 c 2,76,-1
 705 1493 l 2,77,78
 757 1530 757 1530 804 1530 c 0,49,50
736 1323 m 0,79,80
 677 1323 677 1323 622 1280 c 0,81,82
 570 1240 570 1240 556 1170 c 0,83,84
 551 1146 551 1146 551 1125 c 0,85,86
 551 1082 551 1082 573 1056 c 0,87,88
 605 1016 605 1016 671.5 1016 c 128,-1,89
 738 1016 738 1016 789 1058 c 0,90,91
 839 1098 839 1098 853 1168 c 0,92,93
 857 1189 857 1189 857 1207 c 0,94,95
 857 1251 857 1251 832 1282 c 0,96,97
 800 1323 800 1323 736 1323 c 0,79,80
246 -40 m 1,98,-1
 236 -40 l 1,99,-1
 132 126 l 1,100,-1
 1636 1550 l 1,101,-1
 1646 1550 l 1,102,-1
 1750 1390 l 1,103,-1
 246 -40 l 1,98,-1
EndSplineSet
Validated: 1
EndChar

StartChar: ampersand
Encoding: 38 38 9
Width: 1442
GlyphClass: 2
Flags: W
HStem: -40 21G<1225.11 1277.12> -20 300<544.413 703.402> 1257 274<854.242 985.706>
VStem: 162 328<336.419 547.135> 381 316<1008.03 1168.12>
DStem2: 826 968 725 699 0.578485 -0.815693<142.761 508.587 698.31 1061.13> 935 396 1032 258 0.814594 0.580032<-261.011 -1.02876>
LayerCount: 2
Fore
SplineSet
589 -20 m 0,0,1
 540 -20 540 -20 491 -4 c 0,2,3
 333 48 333 48 244 174 c 0,4,5
 162 291 162 291 162 431 c 0,6,7
 162 491 162 491 194 533 c 0,8,9
 226 573 226 573 293 621 c 2,10,-1
 542 799 l 1,11,12
 512 816 512 816 485 839 c 0,13,14
 381 928 381 928 381 1041 c 0,15,16
 381 1063 381 1063 385 1086 c 0,17,18
 393 1137 393 1137 434 1177 c 0,19,20
 467 1209 467 1209 513 1242 c 2,21,-1
 850 1483 l 2,22,23
 917 1531 917 1531 973 1531 c 0,24,25
 1003 1531 1003 1531 1062 1512 c 0,26,27
 1168 1478 1168 1478 1241 1392 c 0,28,29
 1295 1328 1295 1328 1315 1263 c 1,30,-1
 1008 1044 l 1,31,-1
 998 1044 l 1,32,-1
 1008 1091 l 2,33,34
 1013 1115 1013 1115 1013 1135 c 0,35,36
 1013 1184 1013 1184 985 1216 c 0,37,38
 950 1257 950 1257 887 1257 c 128,-1,39
 824 1257 824 1257 772 1218 c 0,40,41
 714 1175 714 1175 700 1112 c 0,42,43
 697 1097 697 1097 697 1083 c 0,44,45
 697 1040 697 1040 727 1007 c 0,46,47
 763 968 763 968 826 968 c 1,48,-1
 1120 553 l 1,49,50
 1150 600 1150 600 1166 674 c 2,51,-1
 1195 808 l 1,52,-1
 1554 1064 l 1,53,-1
 1564 1064 l 1,54,-1
 1480 668 l 2,55,56
 1468 614 1468 614 1442 574 c 0,57,58
 1411 528 1411 528 1345 481 c 2,59,-1
 1230 399 l 1,60,-1
 1443 98 l 1,61,-1
 1249 -40 l 1,62,-1
 1239 -40 l 1,63,-1
 1032 258 l 1,64,-1
 706 26 l 2,65,66
 641 -20 641 -20 589 -20 c 0,0,1
725 699 m 1,67,68
 651 688 651 688 590 641 c 0,69,70
 513 581 513 581 495 492 c 0,71,72
 490 470 490 470 490 448 c 0,73,74
 490 390 490 390 527 343 c 0,75,76
 578 280 578 280 682 280 c 0,77,78
 778 280 778 280 860 341 c 2,79,-1
 935 396 l 1,80,-1
 725 699 l 1,67,68
EndSplineSet
Validated: 1
EndChar

StartChar: quotesingle
Encoding: 39 39 10
Width: 255
GlyphClass: 2
Flags: W
HStem: 925 625
VStem: 217 347
LayerCount: 2
Fore
SplineSet
554 1550 m 1,0,-1
 564 1550 l 1,1,-1
 468 1097 l 1,2,-1
 227 925 l 1,3,-1
 217 925 l 1,4,-1
 313 1378 l 1,5,-1
 554 1550 l 1,0,-1
EndSplineSet
Validated: 1
EndChar

StartChar: parenleft
Encoding: 40 40 11
Width: 818
GlyphClass: 2
Flags: W
HStem: -240 300<577.656 709>
VStem: 186 324<128.505 461.367>
DStem2: 79.3064 -240 399.306 -240 0.207912 0.978148<570.643 1614.42>
LayerCount: 2
Fore
SplineSet
196 309 m 2,0,-1
 383 1190 l 2,1,2
 396 1252 396 1252 427 1296 c 0,3,4
 453 1332 453 1332 518 1378 c 2,5,-1
 975 1704 l 2,6,7
 1040 1750 1040 1750 1092 1750 c 0,8,9
 1139 1750 1139 1750 1183 1743 c 1,10,-1
 1002 1450 l 1,11,12
 903 1450 903 1450 815.5 1378 c 128,-1,13
 728 1306 728 1306 705 1201 c 2,14,-1
 516 309 l 2,15,16
 510 278 510 278 510 251 c 0,17,18
 510 181 510 181 552 130 c 0,19,20
 610 60 610 60 709 60 c 1,21,-1
 736 -194 l 17,22,23
 671 -240 671 -240 619 -240 c 0,24,25
 570 -240 570 -240 521 -224 c 0,26,27
 363 -172 363 -172 274 -46 c 0,28,29
 186 80 186 80 186 219 c 0,30,31
 186 262 186 262 196 309 c 2,0,-1
EndSplineSet
Validated: 1
EndChar

StartChar: parenright
Encoding: 41 41 12
Width: 819
GlyphClass: 2
Flags: W
HStem: 1450 300<431 562.344>
VStem: 630 324<1048.63 1381.49>
DStem2: 318.306 -240 637.968 -240 0.207912 0.978148<487.006 1530.22>
LayerCount: 2
Fore
SplineSet
521 1750 m 0,0,1
 570 1750 570 1750 619 1734 c 0,2,3
 777 1682 777 1682 866 1556 c 0,4,5
 954 1430 954 1430 954 1291 c 0,6,7
 954 1248 954 1248 944 1201 c 2,8,-1
 757 320 l 2,9,10
 744 258 744 258 712 214 c 0,11,12
 686 178 686 178 622 132 c 2,13,-1
 165 -194 l 2,14,15
 100 -240 100 -240 48 -240 c 0,16,17
 0 -240 0 -240 -44 -233 c 1,18,-1
 138 60 l 1,19,20
 237 60 237 60 324.5 132 c 128,-1,21
 412 204 412 204 435 309 c 2,22,-1
 624 1201 l 2,23,24
 630 1232 630 1232 630 1259 c 0,25,26
 630 1329 630 1329 588 1380 c 0,27,28
 530 1450 530 1450 431 1450 c 1,29,-1
 404 1704 l 17,30,31
 468 1750 468 1750 521 1750 c 0,0,1
EndSplineSet
Validated: 1
EndChar

StartChar: asterisk
Encoding: 42 42 13
Width: 1086
GlyphClass: 2
Flags: W
HStem: 1530 20G<928.921 967>
DStem2: 274 913 481 824 0.889393 0.457143<143.419 323.207 704.85 883.749> 471 1393 456 1152 0.835384 -0.549666<119.939 268.599 586.331 734.991> 574 591 763.904 591 0.207912 0.978148<193.857 322.047 697.914 825.896>
LayerCount: 2
Fore
SplineSet
957 1550 m 1,0,-1
 967 1550 l 1,1,-1
 901 1235 l 1,2,-1
 1060 1317 l 1,3,-1
 1264 1237 l 1,4,-1
 1267 1228 l 1,5,-1
 961 1071 l 1,6,-1
 1085 989 l 1,7,-1
 1077 757 l 1,8,-1
 1070 748 l 1,9,-1
 831 906 l 1,10,-1
 796 742 l 1,11,-1
 584 591 l 1,12,-1
 574 591 l 1,13,-1
 641 906 l 1,14,-1
 481 824 l 1,15,-1
 277 904 l 1,16,-1
 274 913 l 1,17,-1
 580 1070 l 1,18,-1
 456 1152 l 1,19,-1
 464 1384 l 1,20,-1
 471 1393 l 1,21,-1
 711 1235 l 1,22,-1
 745 1399 l 1,23,-1
 957 1550 l 1,0,-1
EndSplineSet
Validated: 1
EndChar

StartChar: plus
Encoding: 43 43 14
Width: 1194
GlyphClass: 2
Flags: W
HStem: 630 250<468 606 909 1047>
LayerCount: 2
Fore
SplineSet
982 1272 m 1,0,-1
 992 1272 l 1,1,-1
 909 880 l 1,2,-1
 1301 880 l 1,3,-1
 1299 870 l 1,4,-1
 1047 630 l 1,5,-1
 856 630 l 1,6,-1
 815 439 l 1,7,-1
 533 238 l 1,8,-1
 523 238 l 1,9,-1
 606 630 l 1,10,-1
 214 630 l 1,11,-1
 216 640 l 1,12,-1
 468 880 l 1,13,-1
 659 880 l 1,14,-1
 700 1071 l 1,15,-1
 982 1272 l 1,0,-1
EndSplineSet
Validated: 1
EndChar

StartChar: comma
Encoding: 44 44 15
Width: 452
GlyphClass: 2
Flags: W
HStem: -313 593
VStem: 169 277<-58.4058 95>
LayerCount: 2
Fore
SplineSet
342 280 m 1,0,-1
 352 280 l 1,1,2
 446 202 446 202 446 95 c 0,3,4
 446 66 446 66 439 35 c 0,5,6
 395 -172 395 -172 94 -313 c 1,7,-1
 84 -313 l 1,8,-1
 -23 -203 l 1,9,10
 139 -146 139 -146 166 -21 c 0,11,12
 169 -7 169 -7 169 6 c 0,13,14
 169 73 169 73 86 98 c 1,15,-1
 342 280 l 1,0,-1
EndSplineSet
Validated: 1
EndChar

StartChar: hyphen
Encoding: 45 45 16
Width: 1194
GlyphClass: 2
Flags: W
HStem: 630 250<468 1047>
LayerCount: 2
Fore
SplineSet
468 880 m 1,0,-1
 1301 880 l 1,1,-1
 1299 870 l 1,2,-1
 1047 630 l 1,3,-1
 214 630 l 1,4,-1
 216 640 l 1,5,-1
 468 880 l 1,0,-1
EndSplineSet
Validated: 1
EndChar

StartChar: period
Encoding: 46 46 17
Width: 407
GlyphClass: 2
Flags: W
HStem: -20 373<208.891 269.875>
VStem: 52 374<103.382 229.618>
LayerCount: 2
Fore
SplineSet
182 -20 m 0,0,1
 163 -20 163 -20 141 -11 c 0,2,3
 98 7 98 7 74 50 c 0,4,5
 52 90 52 90 52 132 c 0,6,7
 52 148 52 148 55 164 c 0,8,9
 64 207 64 207 104 235 c 2,10,-1
 241 332 l 2,11,12
 270 353 270 353 297 353 c 0,13,14
 316 353 316 353 337 344 c 0,15,16
 382 325 382 325 404 283 c 0,17,18
 426 243 426 243 426 201 c 0,19,20
 426 185 426 185 423 169 c 0,21,22
 414 126 414 126 374 98 c 2,23,-1
 238 1 l 2,24,25
 209 -20 209 -20 182 -20 c 0,0,1
EndSplineSet
Validated: 1
EndChar

StartChar: slash
Encoding: 47 47 18
Width: 1077
GlyphClass: 2
Flags: W
DStem2: -9 -66 171 -240 0.562659 0.826689<0 2154.15>
LayerCount: 2
Fore
SplineSet
1237 1750 m 1,0,-1
 1407 1576 l 1,1,-1
 171 -240 l 1,2,-1
 161 -240 l 1,3,-1
 -9 -66 l 1,4,-1
 1227 1750 l 1,5,-1
 1237 1750 l 1,0,-1
EndSplineSet
Validated: 1
EndChar

StartChar: zero
Encoding: 48 48 19
Width: 1332
GlyphClass: 2
Flags: W
HStem: -20 300<595.403 749.745> 1230 300<902.214 1059.63>
VStem: 202 326<348.505 685.93> 1127 323<817.094 1161.49>
DStem2: 95.3064 -20 417.306 -20 0.207912 0.978148<571.059 1162.05> 907.306 -20 1227.97 -20 0.207912 0.978148<486.568 1080.71>
LayerCount: 2
Fore
SplineSet
635 -20 m 0,0,1
 586 -20 586 -20 537 -4 c 0,2,3
 379 48 379 48 290 174 c 0,4,5
 202 300 202 300 202 439 c 0,6,7
 202 483 202 483 212 529 c 2,8,-1
 308 970 l 2,9,10
 321 1029 321 1029 353 1076 c 0,11,12
 377 1111 377 1111 443 1158 c 2,13,-1
 900 1484 l 2,14,15
 964 1530 964 1530 1017 1530 c 0,16,17
 1066 1530 1066 1530 1115 1514 c 0,18,19
 1273 1462 1273 1462 1362 1336 c 0,20,21
 1450 1210 1450 1210 1450 1071 c 0,22,23
 1450 1028 1450 1028 1440 981 c 2,24,-1
 1347 540 l 2,25,26
 1335 482 1335 482 1302 434 c 0,27,28
 1278 399 1278 399 1212 352 c 2,29,-1
 752 26 l 2,30,31
 687 -20 687 -20 635 -20 c 0,0,1
728 280 m 128,-1,33
 827 280 827 280 914.5 352 c 128,-1,34
 1002 424 1002 424 1024 529 c 2,35,-1
 1121 981 l 2,36,37
 1127 1012 1127 1012 1127 1039 c 0,38,39
 1127 1110 1127 1110 1085 1160 c 0,40,41
 1026 1230 1026 1230 927 1230 c 128,-1,42
 828 1230 828 1230 740.5 1158 c 128,-1,43
 653 1086 653 1086 631 981 c 2,44,-1
 534 529 l 2,45,46
 528 498 528 498 528 471 c 0,47,48
 528 400 528 400 570 350 c 0,49,32
 629 280 629 280 728 280 c 128,-1,33
EndSplineSet
Validated: 1
EndChar

StartChar: one
Encoding: 49 49 20
Width: 699
GlyphClass: 2
Flags: W
HStem: -40 21G<245 283.125> 1530 20G<859.913 898>
DStem2: 245 -40 560.586 -40 0.207912 0.978148<327.333 1113.44>
LayerCount: 2
Fore
SplineSet
245 -40 m 1,0,-1
 477 1049 l 1,1,-1
 191 853 l 1,2,-1
 242 1090 l 1,3,-1
 888 1550 l 1,4,-1
 898 1550 l 1,5,-1
 615 216 l 1,6,-1
 255 -40 l 1,7,-1
 245 -40 l 1,0,-1
EndSplineSet
Validated: 1
EndChar

StartChar: two
Encoding: 50 50 21
Width: 1282
GlyphClass: 2
Flags: W
HStem: 0 220<493 1026> 1230 300<881.755 1043.48>
VStem: 294 323<824.015 1076.56> 1100 320<905.541 1173.21>
LayerCount: 2
Fore
SplineSet
60 0 m 1,0,-1
 62 10 l 1,1,2
 403 520 403 520 869 752 c 0,3,4
 1062 848 1062 848 1094 999 c 0,5,6
 1100 1029 1100 1029 1100 1056 c 0,7,8
 1100 1122 1100 1122 1062 1167 c 0,9,10
 1008 1230 1008 1230 909 1230 c 128,-1,11
 810 1230 810 1230 729 1169 c 128,-1,12
 648 1108 648 1108 624 999 c 0,13,14
 617 967 617 967 617 940 c 0,15,16
 617 886 617 886 643 847 c 1,17,-1
 382 660 l 1,18,-1
 372 660 l 1,19,20
 294 776 294 776 294 909 c 0,21,22
 294 953 294 953 304 999 c 16,23,24
 313 1043 313 1043 344 1084 c 0,25,26
 372 1121 372 1121 435 1166 c 2,27,-1
 880 1484 l 2,28,29
 944 1530 944 1530 997 1530 c 0,30,31
 1046 1530 1046 1530 1095 1514 c 0,32,33
 1253 1462 1253 1462 1342 1336 c 0,34,35
 1420 1225 1420 1225 1420 1071 c 0,36,37
 1420 1035 1420 1035 1414 999 c 0,38,39
 1359 650 1359 650 983 524 c 0,40,41
 709 432 709 432 493 220 c 1,42,-1
 1249 220 l 1,43,-1
 1247 210 l 1,44,-1
 1026 0 l 1,45,-1
 60 0 l 1,0,-1
EndSplineSet
Validated: 1
EndChar

StartChar: three
Encoding: 51 51 22
Width: 1242
GlyphClass: 2
Flags: W
HStem: -20 300<536.601 692.54> 1290 220<613 948>
VStem: 957 324<434.376 686.979>
LayerCount: 2
Fore
SplineSet
578 -20 m 0,0,1
 529 -20 529 -20 480 -4 c 0,2,3
 322 48 322 48 233 174 c 0,4,5
 173 260 173 260 154 349 c 1,6,-1
 480 579 l 1,7,-1
 490 579 l 1,8,-1
 479 529 l 2,9,10
 472 497 472 497 472 469 c 0,11,12
 472 400 472 400 512 350 c 0,13,14
 568 280 568 280 667.5 280 c 128,-1,15
 767 280 767 280 847.5 343 c 128,-1,16
 928 406 928 406 950 511 c 16,17,18
 957 542 957 542 957 569 c 0,19,20
 957 635 957 635 919 680 c 0,21,22
 866 742 866 742 766 742 c 0,23,24
 690 742 690 742 621 700 c 1,25,-1
 552 774 l 1,26,-1
 948 1290 l 1,27,-1
 433 1290 l 1,28,-1
 435 1300 l 1,29,-1
 613 1510 l 1,30,-1
 1435 1510 l 1,31,-1
 1433 1500 l 1,32,-1
 1034 984 l 1,33,34
 1133 942 1133 942 1193 860 c 0,35,36
 1281 741 1281 741 1281 601 c 0,37,38
 1281 557 1281 557 1271 511 c 144,-1,39
 1261 465 1261 465 1231 426 c 0,40,41
 1203 389 1203 389 1140 344 c 2,42,-1
 695 26 l 2,43,44
 631 -20 631 -20 578 -20 c 0,0,1
EndSplineSet
Validated: 1
EndChar

StartChar: four
Encoding: 52 52 23
Width: 1271
GlyphClass: 2
Flags: W
HStem: -40 21G<729 767.207> 334 220<638 809> 1530 20G<1222.5 1277>
LayerCount: 2
Fore
SplineSet
739 -40 m 1,0,-1
 729 -40 l 1,1,-1
 809 334 l 1,2,-1
 76 334 l 1,3,-1
 78 344 l 1,4,5
 675 702 675 702 782 1204 c 1,6,-1
 1267 1550 l 1,7,-1
 1277 1550 l 1,8,9
 1168 881 1168 881 638 554 c 1,10,-1
 856 554 l 1,11,-1
 876 647 l 1,12,-1
 1229 899 l 1,13,-1
 1239 899 l 1,14,-1
 1166 554 l 1,15,-1
 1369 554 l 1,16,-1
 1367 544 l 1,17,-1
 1146 334 l 1,18,-1
 1119 334 l 1,19,-1
 1093 211 l 1,20,-1
 739 -40 l 1,0,-1
EndSplineSet
Validated: 1
EndChar

StartChar: five
Encoding: 53 53 24
Width: 1242
GlyphClass: 2
Flags: W
HStem: -20 300<536.601 692.54> 742 300<739.936 901.379> 1290 220<811 1209>
VStem: 957 320<429.163 685.651>
DStem2: 279 832 629 931 0.432257 0.90175<240.563 617.688>
LayerCount: 2
Fore
SplineSet
578 -20 m 0,0,1
 529 -20 529 -20 480 -4 c 0,2,3
 319 49 319 49 233 174 c 0,4,5
 173 261 173 261 154 349 c 1,6,-1
 480 579 l 1,7,-1
 490 579 l 1,8,-1
 479 529 l 2,9,10
 472 497 472 497 472 469 c 0,11,12
 472 400 472 400 512 350 c 0,13,14
 568 280 568 280 667.5 280 c 128,-1,15
 767 280 767 280 847.5 343 c 128,-1,16
 928 406 928 406 950 511 c 16,17,18
 957 542 957 542 957 569 c 0,19,20
 957 635 957 635 919 680 c 0,21,22
 866 742 866 742 766 742 c 0,23,24
 664 742 664 742 584 675 c 2,25,-1
 542 640 l 1,26,-1
 279 832 l 1,27,-1
 546 1389 l 1,28,-1
 716 1510 l 1,29,-1
 1432 1510 l 1,30,-1
 1430 1500 l 1,31,-1
 1209 1290 l 1,32,-1
 811 1290 l 1,33,-1
 629 931 l 1,34,-1
 637 925 l 1,35,-1
 737 996 l 2,36,37
 802 1042 802 1042 854 1042 c 0,38,39
 903 1042 903 1042 952 1026 c 0,40,41
 1110 974 1110 974 1199 848 c 0,42,43
 1277 737 1277 737 1277 583 c 0,44,45
 1277 538 1277 538 1271 511 c 16,46,47
 1261 465 1261 465 1231 426 c 0,48,49
 1203 389 1203 389 1140 344 c 2,50,-1
 695 26 l 2,51,52
 631 -20 631 -20 578 -20 c 0,0,1
EndSplineSet
Validated: 1
EndChar

StartChar: six
Encoding: 54 54 25
Width: 1290
GlyphClass: 2
Flags: W
HStem: -20 300<582.287 750.853> 738 300<796.139 964.713> 1230 300<900.401 1057.8>
VStem: 203 319<339.83 599.826> 1024 320<433.367 677.227>
LayerCount: 2
Fore
SplineSet
636 -20 m 0,0,1
 587 -20 587 -20 538 -4 c 0,2,3
 380 48 380 48 291 174 c 0,4,5
 203 300 203 300 203 439 c 0,6,7
 203 482 203 482 213 529 c 2,8,-1
 306 970 l 2,9,10
 319 1033 319 1033 351 1076 c 0,11,12
 378 1113 378 1113 441 1158 c 2,13,-1
 898 1484 l 2,14,15
 962 1530 962 1530 1015 1530 c 0,16,17
 1064 1530 1064 1530 1113 1514 c 0,18,19
 1271 1462 1271 1462 1360 1336 c 0,20,21
 1381 1306 1381 1306 1396 1277 c 1,22,-1
 1129 1088 l 1,23,-1
 1119 1088 l 1,24,25
 1110 1128 1110 1128 1083 1160 c 0,26,27
 1025 1230 1025 1230 925.5 1230 c 128,-1,28
 826 1230 826 1230 738 1158 c 0,29,30
 650 1085 650 1085 629 981 c 2,31,-1
 602 855 l 1,32,-1
 794 992 l 2,33,34
 858 1038 858 1038 911 1038 c 0,35,36
 960 1038 960 1038 1009 1022 c 0,37,38
 1167 970 1167 970 1256 844 c 0,39,40
 1344 718 1344 718 1344 579 c 0,41,42
 1344 536 1344 536 1338 509 c 0,43,44
 1329 470 1329 470 1300 434 c 0,45,46
 1269 394 1269 394 1210 352 c 2,47,-1
 753 26 l 2,48,49
 689 -20 689 -20 636 -20 c 0,0,1
724 280 m 128,-1,51
 832 280 832 280 921 353 c 0,52,53
 998 416 998 416 1018 509 c 0,54,55
 1024 538 1024 538 1024 564 c 0,56,57
 1024 627 1024 627 988 671 c 0,58,59
 931 738 931 738 823 738 c 128,-1,60
 715 738 715 738 625 665 c 0,61,62
 548 602 548 602 528 509 c 0,63,64
 522 480 522 480 522 455 c 0,65,66
 522 392 522 392 559 347 c 0,67,50
 616 280 616 280 724 280 c 128,-1,51
EndSplineSet
Validated: 1
EndChar

StartChar: seven
Encoding: 55 55 26
Width: 1054
GlyphClass: 2
Flags: W
HStem: -40 21G<308.5 355.127> 1300 210<493 854>
VStem: 300 385<126.5 554.449>
LayerCount: 2
Fore
SplineSet
317 -40 m 1,0,1
 300 69 300 69 300 184 c 0,2,3
 300 303 300 303 318 428 c 0,4,5
 389 916 389 916 854 1300 c 1,6,-1
 281 1300 l 1,7,-1
 283 1310 l 1,8,-1
 493 1510 l 1,9,-1
 1370 1510 l 1,10,-1
 1368 1500 l 1,11,12
 797 1120 797 1120 702 675 c 0,13,14
 685 595 685 595 685 511 c 0,15,16
 685 382 685 382 725 243 c 1,17,-1
 327 -40 l 1,18,-1
 317 -40 l 1,0,1
EndSplineSet
Validated: 19457
EndChar

StartChar: eight
Encoding: 56 56 27
Width: 1239
GlyphClass: 2
Flags: W
HStem: -20 300<549.211 704.201> 702 266<728.132 900.453> 1257 274<854.242 987.926>
VStem: 162 329<340.325 547.069> 381 316<1008.03 1168.12> 958 324<416 644.224> 1016 312<1052.02 1216.97>
LayerCount: 2
Fore
SplineSet
589 -20 m 0,0,1
 540 -20 540 -20 491 -4 c 0,2,3
 333 48 333 48 244 174 c 0,4,5
 162 291 162 291 162 431 c 0,6,7
 162 491 162 491 194 533 c 0,8,9
 226 573 226 573 293 621 c 2,10,-1
 542 799 l 1,11,12
 512 816 512 816 485 839 c 0,13,14
 381 923 381 923 381 1041 c 0,15,16
 381 1060 381 1060 385 1086 c 0,17,18
 393 1137 393 1137 434 1177 c 0,19,20
 467 1209 467 1209 513 1242 c 2,21,-1
 850 1483 l 2,22,23
 917 1531 917 1531 973 1531 c 0,24,25
 1003 1531 1003 1531 1062 1512 c 0,26,27
 1168 1478 1168 1478 1241 1392 c 0,28,29
 1328 1292 1328 1292 1328 1179 c 0,30,31
 1328 1156 1328 1156 1324 1130 c 0,32,33
 1317 1085 1317 1085 1273 1041 c 0,34,35
 1241 1008 1241 1008 1185 968 c 2,36,-1
 1079 892 l 1,37,38
 1178 843 1178 843 1222 765 c 0,39,40
 1282 660 1282 660 1282 533 c 0,41,42
 1282 475 1282 475 1250 431 c 0,43,44
 1224 395 1224 395 1151 343 c 2,45,-1
 706 26 l 2,46,47
 641 -20 641 -20 589 -20 c 0,0,1
826 968 m 128,-1,49
 889 968 889 968 941 1007 c 0,50,51
 999 1050 999 1050 1013 1113 c 0,52,53
 1016 1128 1016 1128 1016 1142 c 0,54,55
 1016 1185 1016 1185 986 1218 c 0,56,57
 950 1257 950 1257 887 1257 c 128,-1,58
 824 1257 824 1257 772 1218 c 0,59,60
 714 1175 714 1175 700 1112 c 0,61,62
 697 1097 697 1097 697 1083 c 0,63,64
 697 1040 697 1040 727 1007 c 0,65,48
 763 968 763 968 826 968 c 128,-1,49
680 280 m 0,66,67
 779 280 779 280 857.5 345 c 128,-1,68
 936 410 936 410 954 491 c 0,69,70
 958 512 958 512 958 531 c 0,71,72
 958 588 958 588 920 637 c 0,73,74
 868 702 868 702 769 702 c 128,-1,75
 670 702 670 702 592 637 c 128,-1,76
 514 572 514 572 496 491 c 0,77,78
 492 474 492 474 491 451 c 0,79,80
 492 394 492 394 530 345 c 0,81,82
 582 280 582 280 680 280 c 0,66,67
EndSplineSet
Validated: 1
EndChar

StartChar: nine
Encoding: 57 57 28
Width: 1290
GlyphClass: 2
Flags: W
HStem: -20 300<553.2 710.599> 472 300<646.287 814.861> 1230 300<860.147 1028.71>
VStem: 267 320<832.773 1076.63> 1089 319<910.174 1170.17>
LayerCount: 2
Fore
SplineSet
596 -20 m 0,0,1
 547 -20 547 -20 498 -4 c 0,2,3
 340 48 340 48 251 174 c 0,4,5
 230 204 230 204 215 233 c 1,6,-1
 482 422 l 1,7,-1
 492 422 l 1,8,9
 501 382 501 382 528 350 c 0,10,11
 586 280 586 280 685.5 280 c 128,-1,12
 785 280 785 280 873 352 c 0,13,14
 961 425 961 425 982 529 c 2,15,-1
 1009 655 l 1,16,-1
 817 518 l 2,17,18
 753 472 753 472 700 472 c 0,19,20
 651 472 651 472 602 488 c 0,21,22
 444 540 444 540 355 666 c 0,23,24
 267 792 267 792 267 931 c 0,25,26
 267 974 267 974 273 1001 c 0,27,28
 282 1040 282 1040 311 1076 c 0,29,30
 342 1116 342 1116 401 1158 c 2,31,-1
 858 1484 l 2,32,33
 922 1530 922 1530 975 1530 c 0,34,35
 1024 1530 1024 1530 1073 1514 c 0,36,37
 1231 1462 1231 1462 1320 1336 c 0,38,39
 1408 1210 1408 1210 1408 1071 c 0,40,41
 1408 1028 1408 1028 1398 981 c 2,42,-1
 1305 540 l 2,43,44
 1292 477 1292 477 1260 434 c 0,45,46
 1233 397 1233 397 1170 352 c 2,47,-1
 713 26 l 2,48,49
 649 -20 649 -20 596 -20 c 0,0,1
887 1230 m 128,-1,51
 779 1230 779 1230 690 1157 c 0,52,53
 613 1094 613 1094 593 1001 c 0,54,55
 587 972 587 972 587 946 c 0,56,57
 587 883 587 883 623 839 c 0,58,59
 680 772 680 772 788 772 c 128,-1,60
 896 772 896 772 986 845 c 0,61,62
 1063 908 1063 908 1083 1001 c 0,63,64
 1089 1030 1089 1030 1089 1055 c 0,65,66
 1089 1118 1089 1118 1052 1163 c 0,67,50
 995 1230 995 1230 887 1230 c 128,-1,51
EndSplineSet
Validated: 1
EndChar

StartChar: colon
Encoding: 58 58 29
Width: 407
GlyphClass: 2
Flags: W
HStem: -20 21G<172.5 195.5>
VStem: 52 374<103.382 229.618> 189 375<751.653 876.618>
LayerCount: 2
Fore
SplineSet
435 1000 m 0,0,1
 454 1000 454 1000 475 991 c 0,2,3
 520 972 520 972 542 930 c 0,4,5
 564 891 564 891 564 850 c 0,6,7
 564 833 564 833 560 816 c 0,8,9
 551 773 551 773 511 745 c 2,10,-1
 376 648 l 2,11,12
 347 627 347 627 319 627 c 0,13,14
 300 627 300 627 278 636 c 0,15,16
 235 654 235 654 211 697 c 0,17,18
 189 737 189 737 189 779 c 0,19,20
 189 795 189 795 192 811 c 0,21,22
 201 854 201 854 241 882 c 2,23,-1
 378 979 l 2,24,25
 408 1000 408 1000 435 1000 c 0,0,1
182 -20 m 0,26,27
 163 -20 163 -20 141 -11 c 0,28,29
 98 7 98 7 74 50 c 0,30,31
 52 90 52 90 52 132 c 0,32,33
 52 148 52 148 55 164 c 0,34,35
 64 207 64 207 104 235 c 2,36,-1
 241 332 l 2,37,38
 270 353 270 353 297 353 c 0,39,40
 316 353 316 353 337 344 c 0,41,42
 382 325 382 325 404 283 c 0,43,44
 426 243 426 243 426 201 c 0,45,46
 426 185 426 185 423 169 c 0,47,48
 414 126 414 126 374 98 c 2,49,-1
 238 1 l 2,50,51
 209 -20 209 -20 182 -20 c 0,26,27
EndSplineSet
Validated: 1
EndChar

StartChar: semicolon
Encoding: 59 59 30
Width: 482
GlyphClass: 2
Flags: W
VStem: 169 277<-58.4058 95> 219 375<751.653 876.618>
LayerCount: 2
Fore
SplineSet
342 280 m 1,0,-1
 352 280 l 1,1,2
 446 202 446 202 446 95 c 0,3,4
 446 66 446 66 439 35 c 0,5,6
 395 -172 395 -172 94 -313 c 1,7,-1
 84 -313 l 1,8,-1
 -23 -203 l 1,9,10
 139 -146 139 -146 166 -21 c 0,11,12
 169 -7 169 -7 169 6 c 0,13,14
 169 73 169 73 86 98 c 1,15,-1
 342 280 l 1,0,-1
465 1000 m 0,16,17
 484 1000 484 1000 505 991 c 0,18,19
 550 972 550 972 572 930 c 0,20,21
 594 891 594 891 594 850 c 0,22,23
 594 833 594 833 590 816 c 0,24,25
 581 773 581 773 541 745 c 2,26,-1
 406 648 l 2,27,28
 377 627 377 627 349 627 c 0,29,30
 330 627 330 627 308 636 c 0,31,32
 265 654 265 654 241 697 c 0,33,34
 219 737 219 737 219 779 c 0,35,36
 219 795 219 795 222 811 c 0,37,38
 231 854 231 854 271 882 c 2,39,-1
 408 979 l 2,40,41
 438 1000 438 1000 465 1000 c 0,16,17
EndSplineSet
Validated: 1
EndChar

StartChar: less
Encoding: 60 60 31
Width: 1293
GlyphClass: 2
Flags: W
DStem2: 659 767 223 671 0.88805 -0.459747<0 579.192> 477 921 659 767 0.920321 0.391165<107.259 876.868>
LayerCount: 2
Fore
SplineSet
477 921 m 1,0,-1
 1284 1264 l 1,1,-1
 1393 1090 l 1,2,-1
 1390 1079 l 1,3,-1
 659 767 l 1,4,-1
 1261 465 l 1,5,-1
 1259 454 l 1,6,-1
 1042 247 l 1,7,-1
 223 671 l 1,8,-1
 225 681 l 1,9,-1
 477 921 l 1,0,-1
EndSplineSet
Validated: 1
EndChar

StartChar: equal
Encoding: 61 61 32
Width: 1214
GlyphClass: 2
Flags: W
HStem: 421 250<444 1022> 838 250<532 1111>
LayerCount: 2
Fore
SplineSet
444 671 m 1,0,-1
 1277 671 l 1,1,-1
 1274 661 l 1,2,-1
 1022 421 l 1,3,-1
 189 421 l 1,4,-1
 192 431 l 1,5,-1
 444 671 l 1,0,-1
532 1088 m 1,6,-1
 1365 1088 l 1,7,-1
 1363 1078 l 1,8,-1
 1111 838 l 1,9,-1
 278 838 l 1,10,-1
 280 848 l 1,11,-1
 532 1088 l 1,6,-1
EndSplineSet
Validated: 19457
EndChar

StartChar: greater
Encoding: 62 62 33
Width: 1292
GlyphClass: 2
Flags: W
DStem2: 223 432 330 247 0.920146 0.391576<26.0141 790.335> 572 1264 352 1046 0.88805 -0.459747<0 575.671>
LayerCount: 2
Fore
SplineSet
572 1264 m 1,0,-1
 1391 840 l 1,1,-1
 1388 830 l 1,2,-1
 1136 590 l 1,3,-1
 330 247 l 1,4,-1
 220 421 l 1,5,-1
 223 432 l 1,6,-1
 950 742 l 1,7,-1
 352 1046 l 1,8,-1
 355 1057 l 1,9,-1
 572 1264 l 1,0,-1
EndSplineSet
Validated: 1
EndChar

StartChar: question
Encoding: 63 63 34
Width: 1270
GlyphClass: 2
Flags: W
HStem: -20 21G<601.5 624.5> 1230 300<869.755 1031.48>
VStem: 282 323<824.015 1076.56> 481 374<103.382 229.618> 1088 320<917.164 1171.79>
DStem2: 837 730 577 337 0.814525 0.580129<-254.092 310.729>
LayerCount: 2
Fore
SplineSet
985 1530 m 0,0,1
 1034 1530 1034 1530 1083 1514 c 0,2,3
 1241 1462 1241 1462 1330 1336 c 0,4,5
 1408 1225 1408 1225 1408 1071 c 0,6,7
 1408 1028 1408 1028 1402 999 c 24,8,9
 1393 956 1393 956 1362 914 c 0,10,11
 1334 876 1334 876 1272 832 c 2,12,-1
 577 337 l 1,13,-1
 567 337 l 1,14,15
 617 573 617 573 837 730 c 2,16,-1
 948 809 l 2,17,18
 1059 888 1059 888 1082 999 c 0,19,20
 1088 1029 1088 1029 1088 1056 c 0,21,22
 1088 1122 1088 1122 1050 1167 c 0,23,24
 996 1230 996 1230 897 1230 c 128,-1,25
 798 1230 798 1230 717 1169 c 128,-1,26
 636 1108 636 1108 612 999 c 0,27,28
 605 967 605 967 605 940 c 0,29,30
 605 886 605 886 631 847 c 1,31,-1
 370 660 l 1,32,-1
 360 660 l 1,33,34
 282 776 282 776 282 909 c 0,35,36
 282 953 282 953 292 999 c 16,37,38
 301 1043 301 1043 332 1084 c 0,39,40
 360 1121 360 1121 423 1166 c 2,41,-1
 868 1484 l 2,42,43
 932 1530 932 1530 985 1530 c 0,0,1
611 -20 m 0,44,45
 592 -20 592 -20 570 -11 c 0,46,47
 527 7 527 7 503 50 c 0,48,49
 481 90 481 90 481 132 c 0,50,51
 481 148 481 148 484 164 c 0,52,53
 493 207 493 207 533 235 c 2,54,-1
 670 332 l 2,55,56
 699 353 699 353 726 353 c 0,57,58
 745 353 745 353 766 344 c 0,59,60
 811 325 811 325 833 283 c 0,61,62
 855 243 855 243 855 201 c 0,63,64
 855 185 855 185 852 169 c 0,65,66
 843 126 843 126 803 98 c 2,67,-1
 667 1 l 2,68,69
 638 -20 638 -20 611 -20 c 0,44,45
EndSplineSet
Validated: 1
EndChar

StartChar: at
Encoding: 64 64 35
Width: 1290
GlyphClass: 2
Flags: W
HStem: -40 21G<744.5 835 901 939.148> 854 266<794.233 987.925>
VStem: 91 308<-57.2096 261.781>
DStem2: -6.67919 -407 293.62 -407 0.207912 0.978148<545.818 1137.34> 629 452 766 326 0.815205 0.579172<30.0895 346.996>
LayerCount: 2
Fore
SplineSet
911 -40 m 1,0,-1
 901 -40 l 1,1,-1
 913 12 l 1,2,3
 858 -20 858 -20 812 -20 c 0,4,5
 677 -20 677 -20 594 76 c 0,6,7
 518 164 518 164 518 262 c 0,8,9
 518 291 518 291 525 321 c 0,10,11
 535 366 535 366 562 395 c 0,12,13
 587 422 587 422 629 452 c 2,14,-1
 1040 744 l 1,15,16
 985 854 985 854 844 854 c 0,17,18
 733 854 733 854 622 764 c 0,19,20
 526 687 526 687 502 572 c 2,21,-1
 405 117 l 2,22,23
 399 89 399 89 399 64 c 0,24,25
 399 -20 399 -20 463 -77 c 0,26,27
 547 -153 547 -153 780 -153 c 1,28,-1
 423 -407 l 1,29,-1
 413 -407 l 1,30,31
 273 -350 273 -350 188 -252 c 0,32,33
 91 -141 91 -141 91 4 c 0,34,35
 91 54 91 54 103 109 c 2,36,-1
 199 561 l 2,37,38
 222 669 222 669 335 749 c 2,39,-1
 791 1074 l 2,40,41
 856 1120 856 1120 908 1120 c 0,42,43
 947 1120 947 1120 992 1108 c 0,44,45
 1167 1061 1167 1061 1271 918 c 0,46,47
 1348 814 1348 814 1348 694 c 0,48,49
 1348 650 1348 650 1338 603 c 2,50,-1
 1253 203 l 1,51,-1
 911 -40 l 1,0,-1
957 221 m 1,52,-1
 1017 505 l 1,53,-1
 766 326 l 1,54,55
 785 264 785 264 834 242 c 0,56,57
 880 221 880 221 957 221 c 1,52,-1
EndSplineSet
Validated: 1
EndChar

StartChar: A
Encoding: 65 65 36
Width: 1455
GlyphClass: 2
Flags: W
HStem: -40 21G<96 310.5 1116 1220.04> 480 210<662 1107> 1230 300<995.749 1157.55>
VStem: 1050 333<129.564 420.719> 1220 323<918.861 1165.03>
DStem2: 186.929 -40 506.204 -40 0.207912 0.978148<244.389 531.522 812.821 1184.99> 996.508 -40 1316.28 -40 0.207912 0.978148<371.325 531.609 746.376 1105.86>
LayerCount: 2
Fore
SplineSet
96 -40 m 1,0,1
 221 125 221 125 266 332 c 2,2,-1
 297 480 l 1,3,-1
 107 480 l 1,4,-1
 109 490 l 1,5,-1
 319 690 l 1,6,-1
 342 690 l 1,7,-1
 401 970 l 2,8,9
 414 1032 414 1032 446 1076 c 0,10,11
 473 1113 473 1113 536 1158 c 2,12,-1
 993 1484 l 2,13,14
 1057 1530 1057 1530 1110 1530 c 0,15,16
 1159 1530 1159 1530 1208 1514 c 0,17,18
 1366 1462 1366 1462 1455 1336 c 0,19,20
 1543 1210 1543 1210 1543 1071 c 0,21,22
 1543 1028 1543 1028 1533 981 c 2,23,-1
 1386 288 l 2,24,25
 1383 272 1383 272 1383 257 c 0,26,27
 1383 189 1383 189 1464 174 c 1,28,-1
 1192 -20 l 1,29,-1
 1182 -20 l 1,30,31
 1050 31 1050 31 1050 173 c 0,32,33
 1050 210 1050 210 1059 254 c 2,34,-1
 1107 480 l 1,35,-1
 617 480 l 1,36,-1
 584 326 l 2,37,38
 515 0 515 0 106 -40 c 1,39,-1
 96 -40 l 1,0,1
1152 690 m 1,40,-1
 1213 980 l 2,41,42
 1220 1014 1220 1014 1220 1044 c 0,43,44
 1220 1114 1220 1114 1181 1162 c 0,45,46
 1123 1230 1123 1230 1019 1230 c 128,-1,47
 915 1230 915 1230 832 1160 c 0,48,49
 747 1088 747 1088 723 980 c 2,50,-1
 662 690 l 1,51,-1
 1152 690 l 1,40,-1
EndSplineSet
Validated: 19457
EndChar

StartChar: B
Encoding: 66 66 37
Width: 1252
GlyphClass: 2
Flags: W
HStem: -40 21G<121 373.5> 1530 20G<740.923 779 1033.95 1110>
VStem: 1010 313<1075.7 1232.11> 1021 337<492.89 726.355>
DStem2: 121 -40 441.16 -40 0.207912 0.978148<330.329 1359.78>
LayerCount: 2
Fore
SplineSet
121 -40 m 1,0,-1
 404 1290 l 1,1,-1
 769 1550 l 1,2,-1
 779 1550 l 1,3,-1
 496 218 l 1,4,5
 673 234 673 234 832 342 c 0,6,7
 986 447 986 447 1016 590 c 0,8,9
 1021 612 1021 612 1021 631 c 0,10,11
 1021 695 1021 695 970 733 c 0,12,13
 898 786 898 786 718 794 c 1,14,15
 965 895 965 895 1005 1083 c 0,16,17
 1010 1107 1010 1107 1010 1129 c 0,18,19
 1010 1205 1010 1205 947 1248 c 0,20,21
 881 1294 881 1294 731 1294 c 1,22,-1
 1062 1530 l 1,23,24
 1158 1505 1158 1505 1226 1437 c 0,25,26
 1323 1342 1323 1342 1323 1219 c 0,27,28
 1323 1206 1323 1206 1322 1193 c 0,29,30
 1312 1070 1312 1070 1168 964 c 1,31,32
 1199 949 1199 949 1235 921 c 0,33,34
 1358 826 1358 826 1358 670 c 0,35,36
 1358 653 1358 653 1357 635 c 0,37,38
 1336 369 1336 369 1003 198 c 0,39,40
 616 0 616 0 131 -40 c 1,41,-1
 121 -40 l 1,0,-1
EndSplineSet
Validated: 1
EndChar

StartChar: C
Encoding: 67 67 38
Width: 1290
GlyphClass: 2
Flags: W
HStem: -20 300<574.876 729.836> 1230 300<880.233 1035.14>
VStem: 182 328<345.693 589.79>
DStem2: 75.3064 -20 400.306 -20 0.207912 0.978148<569.549 1163.15> 1355 684 1190 352 0.813852 0.581073<-756.486 -145.265>
LayerCount: 2
Fore
SplineSet
615 -20 m 0,0,1
 566 -20 566 -20 517 -4 c 0,2,3
 359 48 359 48 270 174 c 0,4,5
 182 300 182 300 182 439 c 0,6,7
 182 482 182 482 192 529 c 2,8,-1
 286 970 l 2,9,10
 299 1032 299 1032 331 1076 c 0,11,12
 358 1113 358 1113 421 1158 c 2,13,-1
 878 1484 l 2,14,15
 942 1530 942 1530 995 1530 c 0,16,17
 1044 1530 1044 1530 1093 1514 c 0,18,19
 1251 1462 1251 1462 1340 1336 c 0,20,21
 1411 1234 1411 1234 1425 1124 c 1,22,-1
 1082 881 l 1,23,-1
 1072 881 l 1,24,-1
 1094 981 l 2,25,26
 1101 1013 1101 1013 1101 1041 c 0,27,28
 1100 1110 1100 1110 1060 1160 c 0,29,30
 1004 1230 1004 1230 905 1230 c 128,-1,31
 806 1230 806 1230 721 1158 c 0,32,33
 637 1087 637 1087 614 981 c 2,34,-1
 517 529 l 2,35,36
 510 497 510 497 510 469 c 0,37,38
 510 400 510 400 550 350 c 0,39,40
 606 280 606 280 706 280 c 0,41,42
 789 280 789 280 890 352 c 2,43,-1
 1355 684 l 17,44,-1
 1325 540 l 2,45,46
 1312 478 1312 478 1280 434 c 0,47,48
 1253 397 1253 397 1190 352 c 2,49,-1
 732 26 l 2,50,51
 667 -20 667 -20 615 -20 c 0,0,1
EndSplineSet
Validated: 1
EndChar

StartChar: D
Encoding: 68 68 39
Width: 1313
GlyphClass: 2
Flags: W
HStem: -40 21G<121 349> 1530 20G<740.923 779 1033.95 1159>
VStem: 1145 334<736.712 1096.99>
DStem2: 121 -40 441.185 -40 0.207912 0.978148<344.647 1359.78>
LayerCount: 2
Fore
SplineSet
121 -40 m 1,0,-1
 404 1290 l 1,1,-1
 769 1550 l 1,2,-1
 779 1550 l 1,3,-1
 499 232 l 1,4,5
 681 299 681 299 834 404 c 0,6,7
 1078 573 1078 573 1134 838 c 0,8,9
 1145 887 1145 887 1145 932 c 0,10,11
 1145 1070 1145 1070 1045 1169 c 0,12,13
 942 1271 942 1271 731 1294 c 1,14,-1
 1062 1530 l 1,15,16
 1256 1469 1256 1469 1365 1331 c 0,17,18
 1479 1187 1479 1187 1479 992 c 0,19,20
 1479 937 1479 937 1470 878 c 0,21,22
 1405 458 1405 458 960 224 c 0,23,24
 567 16 567 16 131 -40 c 1,25,-1
 121 -40 l 1,0,-1
EndSplineSet
Validated: 1
EndChar

StartChar: E
Encoding: 69 69 40
Width: 1229
GlyphClass: 2
Flags: W
HStem: 0 210<217 240 560 1056> 480 210<662 921> 1300 210<791 1164>
DStem2: 195.363 0 515.363 0 0.207912 0.978148<281.223 490.642 771.941 1387.15>
LayerCount: 2
Fore
SplineSet
5 0 m 1,0,-1
 7 10 l 1,1,-1
 217 210 l 1,2,-1
 240 210 l 1,3,-1
 297 480 l 1,4,-1
 107 480 l 1,5,-1
 109 490 l 1,6,-1
 319 690 l 1,7,-1
 342 690 l 1,8,-1
 483 1357 l 1,9,-1
 698 1510 l 1,10,-1
 1376 1510 l 1,11,-1
 1374 1500 l 1,12,-1
 1164 1300 l 1,13,-1
 791 1300 l 1,14,-1
 662 690 l 1,15,-1
 1133 690 l 1,16,-1
 1131 680 l 1,17,-1
 921 480 l 1,18,-1
 617 480 l 1,19,-1
 560 210 l 1,20,-1
 1268 210 l 1,21,-1
 1266 200 l 1,22,-1
 1056 0 l 1,23,-1
 5 0 l 1,0,-1
EndSplineSet
Validated: 19457
EndChar

StartChar: F
Encoding: 70 70 41
Width: 1105
GlyphClass: 2
Flags: W
HStem: -40 21G<186 224.154> 480 210<662 921> 1300 210<791 1164>
DStem2: 186.471 -40 506.735 -40 0.207912 0.978148<332.395 531.617 812.916 1428.12>
LayerCount: 2
Fore
SplineSet
186 -40 m 1,0,-1
 297 480 l 1,1,-1
 107 480 l 1,2,-1
 109 490 l 1,3,-1
 319 690 l 1,4,-1
 342 690 l 1,5,-1
 483 1357 l 1,6,-1
 698 1510 l 1,7,-1
 1376 1510 l 1,8,-1
 1374 1500 l 1,9,-1
 1164 1300 l 1,10,-1
 791 1300 l 1,11,-1
 662 690 l 1,12,-1
 1133 690 l 1,13,-1
 1131 680 l 1,14,-1
 921 480 l 1,15,-1
 617 480 l 1,16,-1
 562 220 l 1,17,-1
 196 -40 l 1,18,-1
 186 -40 l 1,0,-1
EndSplineSet
Validated: 1
EndChar

StartChar: G
Encoding: 71 71 42
Width: 1290
GlyphClass: 2
Flags: W
HStem: -20 300<574.601 730.576> 480 210<841 983> 1230 300<880.733 1035.64>
VStem: 183 327<345.693 589.79>
DStem2: 76.3064 -20 400.306 -20 0.207912 0.978148<569.341 1162.94>
LayerCount: 2
Fore
SplineSet
616 -20 m 0,0,1
 567 -20 567 -20 518 -4 c 0,2,3
 360 48 360 48 271 174 c 0,4,5
 183 300 183 300 183 439 c 0,6,7
 183 482 183 482 193 529 c 2,8,-1
 287 970 l 2,9,10
 300 1032 300 1032 332 1076 c 0,11,12
 359 1113 359 1113 422 1158 c 2,13,-1
 879 1484 l 2,14,15
 943 1530 943 1530 996 1530 c 0,16,17
 1045 1530 1045 1530 1094 1514 c 0,18,19
 1252 1462 1252 1462 1341 1336 c 0,20,21
 1412 1234 1412 1234 1426 1124 c 1,22,-1
 1082 881 l 1,23,-1
 1072 881 l 1,24,-1
 1094 981 l 2,25,26
 1101 1013 1101 1013 1101 1041 c 0,27,28
 1100 1110 1100 1110 1060 1160 c 0,29,30
 1004 1230 1004 1230 905 1230 c 128,-1,31
 806 1230 806 1230 721 1158 c 0,32,33
 637 1087 637 1087 614 981 c 2,34,-1
 517 529 l 2,35,36
 510 497 510 497 510 469 c 0,37,38
 510 400 510 400 550 350 c 0,39,40
 606 280 606 280 705.5 280 c 128,-1,41
 805 280 805 280 890 352 c 0,42,43
 954 406 954 406 983 480 c 1,44,-1
 629 480 l 1,45,-1
 631 490 l 1,46,-1
 841 690 l 1,47,-1
 1357 690 l 1,48,-1
 1325 540 l 2,49,50
 1312 478 1312 478 1280 434 c 0,51,52
 1253 397 1253 397 1190 352 c 2,53,-1
 733 26 l 2,54,55
 669 -20 669 -20 616 -20 c 0,0,1
EndSplineSet
Validated: 1
EndChar

StartChar: H
Encoding: 72 72 43
Width: 1435
GlyphClass: 2
Flags: W
HStem: -40 21G<186 224.154 976 1014.15> 480 210<662 1087> 1530 20G<805.923 844 1595.92 1634>
DStem2: 186.471 -40 506.735 -40 0.207912 0.978148<332.395 531.617 812.916 1359.68> 976.471 -40 1296.74 -40 0.207912 0.978148<332.395 531.617 746.384 1359.68>
LayerCount: 2
Fore
SplineSet
186 -40 m 1,0,-1
 297 480 l 1,1,-1
 107 480 l 1,2,-1
 109 490 l 1,3,-1
 319 690 l 1,4,-1
 342 690 l 1,5,-1
 469 1290 l 1,6,-1
 834 1550 l 1,7,-1
 844 1550 l 1,8,-1
 662 690 l 1,9,-1
 1132 690 l 1,10,-1
 1259 1290 l 1,11,-1
 1624 1550 l 1,12,-1
 1634 1550 l 1,13,-1
 1352 220 l 1,14,-1
 986 -40 l 1,15,-1
 976 -40 l 1,16,-1
 1087 480 l 1,17,-1
 617 480 l 1,18,-1
 562 220 l 1,19,-1
 196 -40 l 1,20,-1
 186 -40 l 1,0,-1
EndSplineSet
Validated: 19457
EndChar

StartChar: I
Encoding: 73 73 44
Width: 580
GlyphClass: 2
Flags: W
HStem: -40 21G<121 159.154> 1530 20G<740.923 779>
VStem: 121 658
DStem2: 121 -40 441.735 -40 0.207912 0.978148<332.493 1359.78>
LayerCount: 2
Fore
SplineSet
121 -40 m 1,0,-1
 404 1290 l 1,1,-1
 769 1550 l 1,2,-1
 779 1550 l 1,3,-1
 497 220 l 1,4,-1
 131 -40 l 1,5,-1
 121 -40 l 1,0,-1
EndSplineSet
Validated: 1
EndChar

StartChar: J
Encoding: 74 74 45
Width: 1236
GlyphClass: 2
Flags: W
HStem: -20 300<476.856 631.767> 1300 210<659 1062>
DStem2: 781.306 -20 1101.61 -20 0.207912 0.978148<480.38 1349.51>
LayerCount: 2
Fore
SplineSet
517 -20 m 0,0,1
 468 -20 468 -20 419 -4 c 0,2,3
 261 47 261 47 172 174 c 0,4,5
 100 277 100 277 87 386 c 1,6,-1
 430 629 l 1,7,-1
 440 629 l 1,8,-1
 418 529 l 2,9,10
 411 497 411 497 411 469 c 0,11,12
 411 400 411 400 452 350 c 0,13,14
 508 280 508 280 607 280 c 128,-1,15
 706 280 706 280 791 352 c 128,-1,16
 876 424 876 424 898 529 c 2,17,-1
 1062 1300 l 1,18,-1
 447 1300 l 1,19,-1
 449 1310 l 1,20,-1
 659 1510 l 1,21,-1
 1427 1510 l 1,22,-1
 1220 537 l 2,23,24
 1205 467 1205 467 1180 432 c 0,25,26
 1156 398 1156 398 1091 352 c 2,27,-1
 634 26 l 2,28,29
 570 -20 570 -20 517 -20 c 0,0,1
EndSplineSet
Validated: 1
EndChar

StartChar: K
Encoding: 75 75 46
Width: 1329
GlyphClass: 2
Flags: W
HStem: -40 21G<121 159.154 1006.2 1055.2> 1530 20G<740.923 779 1500.92 1539>
DStem2: 121 -40 441.735 -40 0.207912 0.978148<332.493 380.592 581.973 1359.78> 900 838 639 660 0.475149 -0.879905<32.6093 134.238 371.172 795.54>
LayerCount: 2
Fore
SplineSet
121 -40 m 1,0,-1
 404 1290 l 1,1,-1
 769 1550 l 1,2,-1
 779 1550 l 1,3,-1
 549 464 l 1,4,5
 630 494 630 494 706 537 c 1,6,-1
 639 660 l 1,7,-1
 890 838 l 1,8,-1
 900 838 l 1,9,-1
 964 720 l 1,10,11
 1080 883 1080 883 1151 1227 c 2,12,-1
 1164 1290 l 1,13,-1
 1529 1550 l 1,14,-1
 1539 1550 l 1,15,-1
 1471 1227 l 2,16,17
 1373 763 1373 763 1072 520 c 1,18,-1
 1278 138 l 1,19,-1
 1027 -40 l 1,20,-1
 1017 -40 l 1,21,-1
 801 360 l 1,22,23
 645 285 645 285 501 242 c 1,24,-1
 497 220 l 1,25,-1
 131 -40 l 1,26,-1
 121 -40 l 1,0,-1
EndSplineSet
Validated: 1
EndChar

StartChar: L
Encoding: 76 76 47
Width: 1228
GlyphClass: 2
Flags: W
HStem: 0 210<217 240 560 1056> 1530 20G<805.923 844>
DStem2: 195.363 0 515.363 0 0.207912 0.978148<281.223 1318.7>
LayerCount: 2
Fore
SplineSet
1056 0 m 1,0,-1
 5 0 l 1,1,-1
 7 10 l 1,2,-1
 217 210 l 1,3,-1
 240 210 l 1,4,-1
 469 1290 l 1,5,-1
 834 1550 l 1,6,-1
 844 1550 l 1,7,-1
 560 210 l 1,8,-1
 1268 210 l 1,9,-1
 1266 200 l 1,10,-1
 1056 0 l 1,0,-1
EndSplineSet
Validated: 1
EndChar

StartChar: M
Encoding: 77 77 48
Width: 2200
GlyphClass: 2
Flags: W
HStem: -40 21G<121 159.154 931 969.154 1741 1779.15> 1230 300<930.944 1092.95 1740.96 1902.7> 1530 20G<740.923 779>
VStem: 1966 322<917.201 1165.03>
DStem2: 121 -40 441.735 -40 0.207912 0.978148<332.493 1272.05> 931 -40 1251.74 -40 0.207912 0.978148<332.493 1106.17> 1741 -40 2061.74 -40 0.207912 0.978148<332.493 1106.17>
LayerCount: 2
Fore
SplineSet
121 -40 m 1,0,-1
 404 1290 l 1,1,-1
 769 1550 l 1,2,-1
 779 1550 l 1,3,-1
 736 1347 l 1,4,-1
 928 1484 l 2,5,6
 992 1530 992 1530 1045 1530 c 0,7,8
 1095 1530 1095 1530 1143 1514 c 0,9,10
 1306 1460 1306 1460 1390 1336 c 0,11,12
 1413 1302 1413 1302 1431 1268 c 1,13,-1
 1738 1484 l 2,14,15
 1803 1530 1803 1530 1855 1530 c 0,16,17
 1904 1530 1904 1530 1953 1514 c 0,18,19
 2112 1462 2112 1462 2200 1336 c 128,-1,20
 2288 1210 2288 1210 2288 1071 c 0,21,22
 2288 1028 2288 1028 2278 981 c 2,23,-1
 2117 220 l 1,24,-1
 1751 -40 l 1,25,-1
 1741 -40 l 1,26,-1
 1959 981 l 2,27,28
 1966 1014 1966 1014 1966 1044 c 0,29,30
 1966 1114 1966 1114 1926 1162 c 0,31,32
 1869 1230 1869 1230 1764 1230 c 0,33,34
 1662 1230 1662 1230 1577 1160 c 128,-1,35
 1492 1090 1492 1090 1469 981 c 2,36,-1
 1307 220 l 1,37,-1
 941 -40 l 1,38,-1
 931 -40 l 1,39,-1
 1149 981 l 2,40,41
 1156 1014 1156 1014 1156 1044 c 0,42,43
 1156 1114 1156 1114 1116 1162 c 0,44,45
 1059 1230 1059 1230 954 1230 c 0,46,47
 852 1230 852 1230 767 1160 c 128,-1,48
 682 1090 682 1090 659 981 c 2,49,-1
 497 220 l 1,50,-1
 131 -40 l 1,51,-1
 121 -40 l 1,0,-1
EndSplineSet
Validated: 1
EndChar

StartChar: N
Encoding: 78 78 49
Width: 1390
GlyphClass: 2
Flags: W
HStem: -40 21G<121 159.154 931 969.154> 1230 300<930.944 1092.55> 1530 20G<740.923 779>
VStem: 1156 322<917.201 1165.03>
DStem2: 121 -40 441.735 -40 0.207912 0.978148<332.493 1272.37> 931 -40 1251.74 -40 0.207912 0.978148<332.493 1106.2>
LayerCount: 2
Fore
SplineSet
121 -40 m 1,0,-1
 404 1290 l 1,1,-1
 769 1550 l 1,2,-1
 779 1550 l 1,3,-1
 736 1347 l 1,4,-1
 928 1484 l 2,5,6
 992 1530 992 1530 1045 1530 c 0,7,8
 1094 1530 1094 1530 1143 1514 c 0,9,10
 1301 1462 1301 1462 1390 1336 c 0,11,12
 1478 1210 1478 1210 1478 1071 c 0,13,14
 1478 1028 1478 1028 1468 981 c 2,15,-1
 1307 220 l 1,16,-1
 941 -40 l 1,17,-1
 931 -40 l 1,18,-1
 1149 981 l 2,19,20
 1156 1015 1156 1015 1156 1044 c 0,21,22
 1156 1114 1156 1114 1116 1162 c 0,23,24
 1058 1230 1058 1230 954 1230 c 0,25,26
 852 1230 852 1230 767 1160 c 0,27,28
 682 1091 682 1091 659 981 c 2,29,-1
 497 220 l 1,30,-1
 131 -40 l 1,31,-1
 121 -40 l 1,0,-1
EndSplineSet
Validated: 1
EndChar

StartChar: O
Encoding: 79 79 50
Width: 1292
GlyphClass: 2
Flags: W
HStem: -20 300<576.632 729.532> 1230 300<882.233 1037.14>
VStem: 182 330<345.693 588.643> 1103 327<919.62 1160.82>
DStem2: 75.3064 -20 402.306 -20 0.207912 0.978148<569.965 1159.88> 882.306 -20 1207.97 -20 0.207912 0.978148<486.945 1082.84>
LayerCount: 2
Fore
SplineSet
615 -20 m 0,0,1
 566 -20 566 -20 517 -4 c 0,2,3
 359 48 359 48 270 174 c 0,4,5
 182 300 182 300 182 439 c 0,6,7
 182 483 182 483 192 529 c 2,8,-1
 288 970 l 2,9,10
 301 1029 301 1029 333 1076 c 0,11,12
 357 1111 357 1111 423 1158 c 2,13,-1
 880 1484 l 2,14,15
 944 1530 944 1530 997 1530 c 0,16,17
 1046 1530 1046 1530 1095 1514 c 0,18,19
 1254 1462 1254 1462 1342 1336 c 128,-1,20
 1430 1210 1430 1210 1430 1071 c 0,21,22
 1430 1028 1430 1028 1420 981 c 2,23,-1
 1327 540 l 2,24,25
 1315 482 1315 482 1282 434 c 0,26,27
 1258 398 1258 398 1192 352 c 2,28,-1
 732 26 l 2,29,30
 667 -20 667 -20 615 -20 c 0,0,1
707.5 280 m 128,-1,32
 807 280 807 280 892 352 c 128,-1,33
 977 424 977 424 999 529 c 2,34,-1
 1096 981 l 2,35,36
 1103 1013 1103 1013 1103 1041 c 0,37,38
 1102 1110 1102 1110 1062 1160 c 0,39,40
 1006 1230 1006 1230 907 1230 c 128,-1,41
 808 1230 808 1230 723 1158 c 128,-1,42
 638 1086 638 1086 616 981 c 2,43,-1
 519 529 l 2,44,45
 512 497 512 497 512 469 c 0,46,47
 512 400 512 400 552 350 c 0,48,31
 608 280 608 280 707.5 280 c 128,-1,32
EndSplineSet
Validated: 1
EndChar

StartChar: P
Encoding: 80 80 51
Width: 1254
GlyphClass: 2
Flags: W
HStem: -40 21G<121 159.154> 1530 20G<740.923 779 1033.95 1146>
VStem: 1107 335<864.957 1156.69>
DStem2: 121 -40 441.735 -40 0.207912 0.978148<332.493 390.074 587.071 1359.78>
LayerCount: 2
Fore
SplineSet
121 -40 m 1,0,-1
 404 1290 l 1,1,-1
 769 1550 l 1,2,-1
 779 1550 l 1,3,-1
 550 469 l 1,4,5
 1034 641 1034 641 1099 945 c 0,6,7
 1107 983 1107 983 1107 1018 c 0,8,9
 1107 1122 1107 1122 1032 1192 c 0,10,11
 938 1280 938 1280 731 1294 c 1,12,-1
 1062 1530 l 1,13,14
 1230 1480 1230 1480 1331 1365 c 0,15,16
 1442 1240 1442 1240 1442 1078 c 0,17,18
 1442 1032 1442 1032 1433 983 c 0,19,20
 1376 658 1376 658 971 442 c 0,21,22
 756 328 756 328 504 253 c 1,23,-1
 497 220 l 1,24,-1
 131 -40 l 1,25,-1
 121 -40 l 1,0,-1
EndSplineSet
Validated: 1
EndChar

StartChar: Q
Encoding: 81 81 52
Width: 1290
GlyphClass: 2
Flags: W
HStem: -40 21G<897.714 946.154> -20 300<574.876 730.3> 1230 300<880.233 1035.14>
VStem: 182 328<345.693 589.79> 1101 327<919.62 1160.82>
DStem2: 71.0553 -40 396.055 -40 0.207912 0.978148<589.996 1183.06> 876.055 -40 1201.72 -40 0.207912 0.978148<509.49 1103.29>
LayerCount: 2
Fore
SplineSet
615 -20 m 0,0,1
 566 -20 566 -20 517 -4 c 0,2,3
 359 48 359 48 270 174 c 0,4,5
 182 300 182 300 182 439 c 0,6,7
 182 482 182 482 192 529 c 2,8,-1
 286 970 l 2,9,10
 299 1032 299 1032 331 1076 c 0,11,12
 358 1113 358 1113 421 1158 c 2,13,-1
 878 1484 l 2,14,15
 942 1530 942 1530 995 1530 c 0,16,17
 1044 1530 1044 1530 1093 1514 c 0,18,19
 1251 1462 1251 1462 1340 1336 c 0,20,21
 1428 1210 1428 1210 1428 1071 c 0,22,23
 1428 1028 1428 1028 1418 981 c 2,24,-1
 1325 540 l 2,25,26
 1312 478 1312 478 1280 434 c 0,27,28
 1254 398 1254 398 1190 352 c 2,29,-1
 1024 234 l 1,30,-1
 1101 90 l 1,31,-1
 918 -40 l 1,32,-1
 908 -40 l 1,33,-1
 836 100 l 1,34,-1
 732 26 l 2,35,36
 667 -20 667 -20 615 -20 c 0,0,1
679 407 m 1,37,-1
 854 532 l 1,38,-1
 864 532 l 1,39,-1
 936 399 l 1,40,41
 982 456 982 456 997 529 c 2,42,-1
 1094 981 l 2,43,44
 1101 1013 1101 1013 1101 1041 c 0,45,46
 1100 1110 1100 1110 1060 1160 c 0,47,48
 1004 1230 1004 1230 905 1230 c 128,-1,49
 806 1230 806 1230 721 1158 c 128,-1,50
 636 1086 636 1086 614 981 c 2,51,-1
 517 529 l 2,52,53
 510 497 510 497 510 469 c 0,54,55
 510 400 510 400 550 350 c 0,56,57
 606 280 606 280 706 280 c 0,58,59
 725 280 725 280 742 283 c 1,60,-1
 679 407 l 1,37,-1
EndSplineSet
Validated: 1
EndChar

StartChar: R
Encoding: 82 82 53
Width: 1322
GlyphClass: 2
Flags: W
HStem: -40 21G<121 159.154 1006.2 1055.2> 1510 40G<740.923 779 1033.95 1146>
VStem: 1107 335<864.813 1156.69>
DStem2: 121 -40 441.735 -40 0.207912 0.978148<332.493 390.706 587.071 1359.78> 900 838 639 660 0.475149 -0.879905<32.6093 144.533 372.764 795.54>
LayerCount: 2
Fore
SplineSet
639 660 m 1,0,-1
 890 838 l 1,1,-1
 900 838 l 1,2,-1
 969 711 l 1,3,4
 1072 816 1072 816 1099 945 c 0,5,6
 1107 983 1107 983 1107 1018 c 0,7,8
 1107 1122 1107 1122 1032 1192 c 0,9,10
 938 1280 938 1280 731 1294 c 1,11,-1
 1062 1530 l 1,12,13
 1230 1480 1230 1480 1331 1365 c 0,14,15
 1442 1240 1442 1240 1442 1078 c 0,16,17
 1442 1032 1442 1032 1433 983 c 0,18,19
 1384 704 1384 704 1079 506 c 1,20,-1
 1278 138 l 1,21,-1
 1027 -40 l 1,22,-1
 1017 -40 l 1,23,-1
 801 360 l 1,24,25
 660 299 660 299 504 253 c 1,26,-1
 497 220 l 1,27,-1
 131 -40 l 1,28,-1
 121 -40 l 1,29,-1
 404 1290 l 1,30,-1
 769 1550 l 1,31,-1
 779 1550 l 1,32,-1
 550 469 l 1,33,34
 635 499 635 499 707 534 c 1,35,-1
 639 660 l 1,0,-1
EndSplineSet
Validated: 1
EndChar

StartChar: S
Encoding: 83 83 54
Width: 1266
GlyphClass: 2
Flags: W
HStem: -20 300<551.856 706.115> 664 320<724.546 949.067> 1234 296<860.067 993.543>
VStem: 365 314<933.5 1142.71> 986 323<447.883 627.306>
LayerCount: 2
Fore
SplineSet
162 386 m 1,0,1
 505 629 l 1,2,-1
 515 629 l 1,3,-1
 493 529 l 2,4,5
 486 498 486 498 486 469 c 0,6,7
 487 400 487 400 527 350 c 0,8,9
 583 280 583 280 682 280 c 0,10,11
 789 280 789 280 881 357 c 0,12,13
 964 427 964 427 982 512 c 0,14,15
 986 530 986 530 986 546 c 0,16,17
 986 664 986 664 777 664 c 0,18,19
 565 664 565 664 450 785 c 0,20,21
 365 875 365 875 365 992 c 0,22,23
 365 1028 365 1028 373 1066 c 0,24,25
 391 1151 391 1151 503 1231 c 2,26,-1
 856 1483 l 2,27,28
 922 1530 922 1530 978 1530 c 0,29,30
 1025 1530 1025 1530 1064 1517 c 0,31,32
 1171 1481 1171 1481 1237 1395 c 0,33,34
 1293 1322 1293 1322 1308 1228 c 1,35,-1
 1016 1020 l 1,36,-1
 1006 1020 l 1,37,-1
 1016 1067 l 2,38,39
 1021 1092 1021 1092 1021 1113 c 0,40,41
 1021 1162 1021 1162 993 1192 c 0,42,43
 953 1234 953 1234 885 1234 c 0,44,45
 823 1234 823 1234 766 1202 c 0,46,47
 695 1162 695 1162 682 1100 c 0,48,49
 679 1088 679 1088 679 1077 c 0,50,51
 679 1032 679 1032 723 1009 c 0,52,53
 772 984 772 984 880 984 c 0,54,55
 1110 984 1110 984 1225 841 c 0,56,57
 1309 737 1309 737 1309 616 c 0,58,59
 1309 572 1309 572 1298 526 c 0,60,61
 1286 475 1286 475 1256 434 c 0,62,63
 1228 396 1228 396 1166 352 c 2,64,-1
 709 26 l 2,65,66
 645 -20 645 -20 592 -20 c 0,67,68
 543 -20 543 -20 494 -4 c 0,69,70
 336 48 336 48 247 174 c 0,71,72
 176 276 176 276 162 386 c 1,0,1
EndSplineSet
Validated: 1
EndChar

StartChar: T
Encoding: 84 84 55
Width: 1186
GlyphClass: 2
Flags: W
HStem: -40 21G<424 462.154> 1300 210<493 709 1029 1290>
DStem2: 424 -40 744.735 -40 0.207912 0.978148<332.493 1369.97>
LayerCount: 2
Fore
SplineSet
424 -40 m 1,0,-1
 709 1300 l 1,1,-1
 281 1300 l 1,2,-1
 283 1310 l 1,3,-1
 493 1510 l 1,4,-1
 1502 1510 l 1,5,-1
 1500 1500 l 1,6,-1
 1290 1300 l 1,7,-1
 1029 1300 l 1,8,-1
 800 220 l 1,9,-1
 434 -40 l 1,10,-1
 424 -40 l 1,0,-1
EndSplineSet
Validated: 1
EndChar

StartChar: U
Encoding: 85 85 56
Width: 1390
GlyphClass: 2
Flags: W
HStem: -40 21G<931 969.154> -20 300<618.449 780.056> 1530 20G<740.923 779 1550.92 1589>
VStem: 233 322<344.974 592.799>
DStem2: 122.055 -40 441.055 -40 0.207912 0.978148<585.875 1359.56> 931.3 -40 1251.04 -40 0.207912 0.978148<420.156 1359.71>
LayerCount: 2
Fore
SplineSet
941 -40 m 1,0,-1
 931 -40 l 1,1,-1
 975 163 l 1,2,-1
 783 26 l 2,3,4
 719 -20 719 -20 666 -20 c 0,5,6
 617 -20 617 -20 568 -4 c 0,7,8
 410 48 410 48 321 174 c 0,9,10
 233 300 233 300 233 439 c 0,11,12
 233 482 233 482 243 529 c 2,13,-1
 404 1290 l 1,14,-1
 769 1550 l 1,15,-1
 779 1550 l 1,16,-1
 562 529 l 2,17,18
 555 496 555 496 555 466 c 0,19,20
 555 396 555 396 595 348 c 0,21,22
 653 280 653 280 757 280 c 0,23,24
 859 280 859 280 944 350 c 128,-1,25
 1029 420 1029 420 1052 529 c 2,26,-1
 1214 1290 l 1,27,-1
 1579 1550 l 1,28,-1
 1589 1550 l 1,29,-1
 1307 220 l 1,30,-1
 941 -40 l 1,0,-1
EndSplineSet
Validated: 1
EndChar

StartChar: V
Encoding: 86 86 57
Width: 1390
GlyphClass: 2
Flags: W
HStem: -20 300<618.449 780.251> 1510 20G<555.959 660 1465 1679>
VStem: 233 323<344.974 592.279> 393 333<1094.62 1380.44>
DStem2: 126.306 -20 446.094 -20 0.207912 0.978148<565.636 1300.17> 936.094 -20 1255.97 -20 0.207912 0.978148<488.892 1427.04>
LayerCount: 2
Fore
SplineSet
666 -20 m 0,0,1
 617 -20 617 -20 568 -4 c 0,2,3
 410 48 410 48 321 174 c 0,4,5
 233 300 233 300 233 439 c 0,6,7
 233 482 233 482 243 529 c 2,8,-1
 390 1222 l 2,9,10
 393 1238 393 1238 393 1253 c 0,11,12
 393 1321 393 1321 312 1336 c 1,13,-1
 584 1530 l 1,14,-1
 594 1530 l 1,15,16
 726 1479 726 1479 726 1337 c 0,17,18
 726 1300 726 1300 717 1256 c 2,19,-1
 563 530 l 2,20,21
 556 496 556 496 556 466 c 0,22,23
 556 396 556 396 595 348 c 0,24,25
 653 280 653 280 757 280 c 128,-1,26
 861 280 861 280 944 350 c 0,27,28
 1029 422 1029 422 1053 530 c 2,29,-1
 1192 1184 l 2,30,31
 1261 1510 1261 1510 1669 1550 c 1,32,-1
 1679 1550 l 1,33,34
 1554 1385 1554 1385 1510 1178 c 2,35,-1
 1375 540 l 2,36,37
 1362 478 1362 478 1330 434 c 0,38,39
 1303 397 1303 397 1240 352 c 2,40,-1
 783 26 l 2,41,42
 719 -20 719 -20 666 -20 c 0,0,1
EndSplineSet
Validated: 1
EndChar

StartChar: W
Encoding: 87 87 58
Width: 2200
GlyphClass: 2
Flags: W
HStem: -20 300<618.145 780.235 1428.14 1590.25> 1510 40G<555.959 660.5 1550.92 1589 2275 2489>
VStem: 233 323<344.974 592.279> 393 334<1094.62 1381.38>
DStem2: 126.306 -20 446.094 -20 0.207912 0.978148<565.636 1300.17> 935.551 -20 1256.09 -20 0.207912 0.978148<565.793 1339.27> 1746.09 -20 2065.97 -20 0.207912 0.978148<486.467 1427.04>
LayerCount: 2
Fore
SplineSet
666 -20 m 0,0,1
 617 -20 617 -20 568 -4 c 0,2,3
 410 48 410 48 321 174 c 0,4,5
 233 300 233 300 233 439 c 0,6,7
 233 482 233 482 243 529 c 2,8,-1
 390 1222 l 2,9,10
 393 1238 393 1238 393 1253 c 0,11,12
 393 1321 393 1321 312 1336 c 1,13,-1
 584 1530 l 1,14,-1
 594 1530 l 1,15,16
 727 1480 727 1480 727 1338 c 0,17,18
 727 1300 727 1300 717 1256 c 2,19,-1
 563 530 l 2,20,21
 556 496 556 496 556 466 c 0,22,23
 556 396 556 396 595 348 c 0,24,25
 651 280 651 280 757 280 c 0,26,27
 861 280 861 280 944 350 c 0,28,29
 1030 423 1030 423 1053 530 c 2,30,-1
 1214 1290 l 1,31,-1
 1579 1550 l 1,32,-1
 1589 1550 l 1,33,-1
 1373 530 l 2,34,35
 1366 496 1366 496 1366 466 c 0,36,37
 1366 396 1366 396 1405 348 c 0,38,39
 1461 280 1461 280 1567 280 c 0,40,41
 1671 280 1671 280 1754 350 c 0,42,43
 1840 423 1840 423 1863 530 c 2,44,-1
 2002 1184 l 2,45,46
 2071 1510 2071 1510 2479 1550 c 1,47,-1
 2489 1550 l 1,48,49
 2364 1385 2364 1385 2320 1178 c 2,50,-1
 2185 540 l 2,51,52
 2172 478 2172 478 2140 434 c 0,53,54
 2113 397 2113 397 2050 352 c 2,55,-1
 1593 26 l 2,56,57
 1529 -20 1529 -20 1476 -20 c 0,58,59
 1427 -20 1427 -20 1378 -4 c 0,60,61
 1220 48 1220 48 1131 174 c 0,62,63
 1107 208 1107 208 1090 243 c 1,64,-1
 783 26 l 2,65,66
 718 -20 718 -20 666 -20 c 0,0,1
EndSplineSet
Validated: 1
EndChar

StartChar: X
Encoding: 88 88 59
Width: 1360
GlyphClass: 2
Flags: W
HStem: -40 21G<121 159.125 906 944.125> 604 301<740.502 940.088> 1530 20G<735.953 774 1520.95 1559>
VStem: 366 318<963.481 1293.3> 997 318<216.375 546.019>
LayerCount: 2
Fore
SplineSet
121 -40 m 1,0,-1
 205 355 l 2,1,2
 217 412 217 412 255 466 c 0,3,4
 281 502 281 502 341 543 c 2,5,-1
 562 694 l 1,6,7
 499 740 499 740 454 803 c 0,8,9
 366 926 366 926 366 1068 c 0,10,11
 366 1111 366 1111 376 1158 c 2,12,-1
 405 1294 l 1,13,-1
 764 1550 l 1,14,-1
 774 1550 l 1,15,-1
 692 1161 l 2,16,17
 684 1122 684 1122 684 1089 c 0,18,19
 684 1020 684 1020 719 973 c 0,20,21
 771 905 771 905 867 905 c 0,22,23
 973 905 973 905 1055 974 c 0,24,25
 1138 1044 1138 1044 1162 1160 c 2,26,-1
 1190 1294 l 1,27,-1
 1549 1550 l 1,28,-1
 1559 1550 l 1,29,-1
 1475 1154 l 2,30,31
 1463 1097 1463 1097 1437 1060 c 0,32,33
 1402 1010 1402 1010 1341 967 c 2,34,-1
 1123 813 l 1,35,36
 1182 770 1182 770 1227 707 c 0,37,38
 1315 584 1315 584 1315 442 c 0,39,40
 1315 399 1315 399 1305 352 c 2,41,-1
 1276 216 l 1,42,-1
 916 -40 l 1,43,-1
 906 -40 l 1,44,-1
 989 348 l 2,45,46
 997 387 997 387 997 420 c 0,47,48
 997 489 997 489 962 536 c 0,49,50
 910 604 910 604 813 604 c 0,51,52
 708 604 708 604 626 535 c 128,-1,53
 544 466 544 466 519 349 c 2,54,-1
 491 216 l 1,55,-1
 131 -40 l 1,56,-1
 121 -40 l 1,0,-1
EndSplineSet
Validated: 1
EndChar

StartChar: Y
Encoding: 89 89 60
Width: 1390
GlyphClass: 2
Flags: W
HStem: -40 21G<531 569.095> 1530 20G<740.923 779 1550.92 1589>
VStem: 301 324<667.289 1016.3>
DStem2: 121.4 -40 441.187 -40 0.207912 0.978148<923.262 1359.69> 931.187 -40 1251.06 -40 0.207912 0.978148<837.777 1359.74>
LayerCount: 2
Fore
SplineSet
531 -40 m 1,0,-1
 609 329 l 1,1,2
 470 382 470 382 389 497 c 0,3,4
 301 623 301 623 301 762 c 0,5,6
 301 805 301 805 311 852 c 2,7,-1
 404 1290 l 1,8,-1
 769 1550 l 1,9,-1
 779 1550 l 1,10,-1
 631 853 l 2,11,12
 625 823 625 823 625 796 c 0,13,14
 625 716 625 716 679 655 c 1,15,-1
 695 729 l 1,16,-1
 1049 981 l 1,17,-1
 1059 981 l 1,18,-1
 989 655 l 1,19,20
 1097 739 1097 739 1121 853 c 2,21,-1
 1214 1290 l 1,22,-1
 1579 1550 l 1,23,-1
 1589 1550 l 1,24,-1
 1443 863 l 2,25,26
 1430 801 1430 801 1399 757 c 0,27,28
 1374 722 1374 722 1308 675 c 2,29,-1
 937 410 l 1,30,-1
 895 212 l 1,31,-1
 541 -40 l 1,32,-1
 531 -40 l 1,0,-1
EndSplineSet
Validated: 1
EndChar

StartChar: Z
Encoding: 90 90 61
Width: 1268
GlyphClass: 2
Flags: W
HStem: 0 210<558 1041> 480 210<911 1123> 1300 210<638 996>
DStem2: 396 480 558 210 0.592581 0.805511<-121.49 0 474.337 1016.07>
LayerCount: 2
Fore
SplineSet
50 0 m 1,0,-1
 52 10 l 1,1,-1
 396 480 l 1,2,-1
 202 480 l 1,3,-1
 204 490 l 1,4,-1
 414 690 l 1,5,-1
 550 690 l 1,6,-1
 996 1300 l 1,7,-1
 426 1300 l 1,8,-1
 428 1310 l 1,9,-1
 638 1510 l 1,10,-1
 1509 1510 l 1,11,-1
 1507 1500 l 1,12,-1
 911 690 l 1,13,-1
 1335 690 l 1,14,-1
 1333 680 l 1,15,-1
 1123 480 l 1,16,-1
 757 480 l 1,17,-1
 558 210 l 1,18,-1
 1253 210 l 1,19,-1
 1251 200 l 1,20,-1
 1041 0 l 1,21,-1
 50 0 l 1,0,-1
EndSplineSet
Validated: 1
EndChar

StartChar: bracketleft
Encoding: 91 91 62
Width: 869
GlyphClass: 2
Flags: W
HStem: -240 210<444 646> 1540 210<777 1024>
DStem2: 79 -240 399.363 -240 0.207912 0.978148<281.299 1837.15>
LayerCount: 2
Fore
SplineSet
79 -240 m 1,0,-1
 461 1557 l 1,1,-1
 732 1750 l 1,2,-1
 1236 1750 l 1,3,-1
 1234 1740 l 1,4,-1
 1024 1540 l 1,5,-1
 777 1540 l 1,6,-1
 444 -30 l 1,7,-1
 858 -30 l 1,8,-1
 855 -40 l 1,9,-1
 646 -240 l 1,10,-1
 79 -240 l 1,0,-1
EndSplineSet
Validated: 1
EndChar

StartChar: backslash
Encoding: 92 92 63
Width: 1062
GlyphClass: 2
Flags: W
DStem2: 568 1750 345 1598 0.247741 -0.968826<92.0153 1897.14>
LayerCount: 2
Fore
SplineSet
558 1750 m 1,0,-1
 568 1750 l 1,1,-1
 1038 -88 l 1,2,-1
 825 -240 l 1,3,-1
 815 -240 l 1,4,-1
 345 1598 l 1,5,-1
 558 1750 l 1,0,-1
EndSplineSet
Validated: 1
EndChar

StartChar: bracketright
Encoding: 93 93 64
Width: 870
GlyphClass: 2
Flags: W
HStem: -240 210<167 414> 1540 210<545 747>
DStem2: 369.363 -240 688.977 -240 0.207912 0.978148<263.763 1819.62>
LayerCount: 2
Fore
SplineSet
1112 1750 m 1,0,-1
 730 -47 l 1,1,-1
 459 -240 l 1,2,-1
 -45 -240 l 1,3,-1
 -43 -230 l 1,4,-1
 167 -30 l 1,5,-1
 414 -30 l 1,6,-1
 747 1540 l 1,7,-1
 333 1540 l 1,8,-1
 335 1550 l 1,9,-1
 545 1750 l 1,10,-1
 1112 1750 l 1,0,-1
EndSplineSet
Validated: 1
EndChar

StartChar: asciicircum
Encoding: 94 94 65
Width: 924
GlyphClass: 2
Flags: W
HStem: 1020 530
DStem2: 261 1135 384 1020 0.814677 0.579916<33.5149 468.519>
LayerCount: 2
Fore
SplineSet
844 1550 m 1,0,-1
 854 1550 l 1,1,-1
 1153 1170 l 1,2,-1
 940 1020 l 1,3,-1
 932 1020 l 1,4,-1
 740 1270 l 1,5,-1
 384 1020 l 1,6,-1
 374 1020 l 1,7,-1
 261 1135 l 1,8,-1
 844 1550 l 1,0,-1
EndSplineSet
Validated: 1
EndChar

StartChar: underscore
Encoding: 95 95 66
Width: 1186
GlyphClass: 2
Flags: W
HStem: -410 240<237 826>
LayerCount: 2
Fore
SplineSet
237 -170 m 1,0,-1
 1070 -170 l 1,1,-1
 1068 -180 l 1,2,-1
 826 -410 l 1,3,-1
 -7 -410 l 1,4,-1
 -5 -400 l 1,5,-1
 237 -170 l 1,0,-1
EndSplineSet
Validated: 1
EndChar

StartChar: grave
Encoding: 96 96 67
Width: 447
GlyphClass: 2
Flags: W
HStem: 1151 419
VStem: 560 130<1236 1272.44>
LayerCount: 2
Fore
SplineSet
544 1570 m 1,0,1
 692 1449 692 1449 692 1273 c 0,2,3
 692 1255 692 1255 690 1236 c 1,4,-1
 570 1151 l 1,5,-1
 560 1151 l 1,6,7
 523 1371 523 1371 322 1419 c 1,8,-1
 534 1570 l 1,9,-1
 544 1570 l 1,0,1
EndSplineSet
Validated: 1
EndChar

StartChar: a
Encoding: 97 97 68
Width: 1003
GlyphClass: 2
Flags: W
HStem: -40 21G<614 652.085> -20 230<415.472 554.621> 511 231<537.061 684.557> 855 265<582.247 747.871>
VStem: 93 292<246.814 395.545> 791 274<679.357 812.74>
LayerCount: 2
Fore
SplineSet
624 -40 m 1,0,-1
 614 -40 l 1,1,-1
 641 86 l 1,2,-1
 550 21 l 2,3,4
 493 -20 493 -20 440 -20 c 0,5,6
 275 -20 275 -20 177 72 c 0,7,8
 93 151 93 151 93 264 c 0,9,10
 93 283 93 283 95 304 c 0,11,12
 101 356 101 356 144 403 c 0,13,14
 180 443 180 443 223 473 c 2,15,-1
 542 701 l 2,16,17
 599 742 599 742 655 742 c 0,18,19
 725 742 725 742 789 679 c 1,20,21
 791 694 791 694 791 708 c 0,22,23
 791 771 791 771 747 814 c 0,24,25
 707 855 707 855 634 855 c 0,26,27
 557 855 557 855 492 808 c 1,28,-1
 397 943 l 1,29,-1
 582 1075 l 2,30,31
 645 1120 645 1120 705 1120 c 0,32,33
 753 1120 753 1120 801 1104 c 0,34,35
 901 1070 901 1070 974 988 c 0,36,37
 1065 888 1065 888 1065 757 c 0,38,39
 1065 716 1065 716 1056 674 c 2,40,-1
 954 195 l 1,41,-1
 624 -40 l 1,0,-1
389 359 m 0,42,43
 385 342 385 342 385 327 c 0,44,45
 385 283 385 283 415 253 c 0,46,47
 457 210 457 210 518 210 c 0,48,49
 585 210 585 210 643 257 c 0,50,51
 697 301 697 301 709 359 c 0,52,53
 713 377 713 377 713 392 c 0,54,55
 713 435 713 435 685 467 c 0,56,57
 646 511 646 511 582 511 c 0,58,59
 519 511 519 511 459 464 c 0,60,61
 402 420 402 420 389 359 c 0,42,43
EndSplineSet
Validated: 1
EndChar

StartChar: b
Encoding: 98 98 69
Width: 1120
GlyphClass: 2
Flags: W
HStem: -20 280<532.785 673.423> 840 280<729.735 871.371> 1530 20G<711 749>
VStem: 212 293<302.88 487.804> 898 304<616.411 797.058>
DStem2: 125.987 -20 415.987 -20 0.207912 0.978148<469.756 904.655 1110.18 1364.88>
LayerCount: 2
Fore
SplineSet
551 -20 m 0,0,1
 509 -20 509 -20 467 -6 c 0,2,3
 358 31 358 31 286 119 c 0,4,5
 212 210 212 210 212 344 c 0,6,7
 212 385 212 385 221 427 c 2,8,-1
 410 1315 l 1,9,-1
 739 1550 l 1,10,-1
 749 1550 l 1,11,-1
 634 1007 l 1,12,-1
 729 1075 l 2,13,14
 792 1120 792 1120 852 1120 c 0,15,16
 894 1120 894 1120 936 1106 c 0,17,18
 1045 1069 1045 1069 1117 981 c 0,19,20
 1202 879 1202 879 1202 756 c 0,21,22
 1202 715 1202 715 1193 673 c 2,23,-1
 1145 448 l 2,24,25
 1132 386 1132 386 1098 342 c 0,26,27
 1069 306 1069 306 1010 264 c 2,28,-1
 674 25 l 2,29,30
 611 -20 611 -20 551 -20 c 0,0,1
643 260 m 128,-1,32
 713 260 713 260 767 302 c 0,33,34
 823 346 823 346 841 427 c 2,35,-1
 893 673 l 2,36,37
 898 698 898 698 898 719 c 0,38,39
 898 768 898 768 871 798 c 0,40,41
 831 840 831 840 761 840 c 0,42,43
 689 840 689 840 637 798 c 0,44,45
 581 754 581 754 563 673 c 2,46,-1
 511 427 l 2,47,48
 505 401 505 401 505 379 c 0,49,50
 505 330 505 330 533 302 c 0,51,31
 573 260 573 260 643 260 c 128,-1,32
EndSplineSet
Validated: 1
EndChar

StartChar: c
Encoding: 99 99 70
Width: 1071
GlyphClass: 2
Flags: W
HStem: -20 270<485.172 624.862> 840 280<680.735 822.402>
VStem: 152 304<298.004 482.614>
DStem2: 1127 594 961 264 0.813868 0.58105<-634.73 -142.888>
LayerCount: 2
Fore
SplineSet
502 -20 m 0,0,1
 460 -20 460 -20 418 -6 c 0,2,3
 309 31 309 31 237 119 c 0,4,5
 152 222 152 222 152 344 c 0,6,7
 152 386 152 386 161 427 c 2,8,-1
 210 652 l 2,9,10
 224 717 224 717 257 758 c 0,11,12
 286 794 286 794 345 836 c 2,13,-1
 680 1075 l 2,14,15
 743 1120 743 1120 803 1120 c 0,16,17
 845 1120 845 1120 887 1106 c 0,18,19
 996 1069 996 1069 1068 981 c 0,20,21
 1129 908 1129 908 1146 827 c 1,22,-1
 841 610 l 1,23,-1
 831 610 l 1,24,-1
 844 673 l 2,25,26
 849 698 849 698 849 719 c 0,27,28
 849 768 849 768 822 798 c 0,29,30
 784 840 784 840 712 840 c 128,-1,31
 640 840 640 840 588 798 c 0,32,33
 531 753 531 753 514 673 c 2,34,-1
 462 427 l 2,35,36
 456 401 456 401 456 378 c 0,37,38
 457 329 457 329 483 297 c 0,39,40
 521 250 521 250 591 250 c 0,41,42
 645 250 645 250 718 302 c 2,43,-1
 1127 594 l 1,44,-1
 1096 448 l 2,45,46
 1083 386 1083 386 1049 342 c 0,47,48
 1023 308 1023 308 961 264 c 2,49,-1
 625 25 l 2,50,51
 562 -20 562 -20 502 -20 c 0,0,1
EndSplineSet
Validated: 1
EndChar

StartChar: d
Encoding: 100 100 71
Width: 1121
GlyphClass: 2
Flags: W
HStem: -40 21G<692 730.085> -20 280<483.785 624.423> 840 280<680.735 821.537> 1530 20G<1282 1320>
VStem: 152 304<302.88 482.614>
DStem2: 692.447 -40 982.049 -40 0.207912 0.978148<341.555 774.32 1129.62 1385.38>
LayerCount: 2
Fore
SplineSet
702 -40 m 1,0,-1
 692 -40 l 1,1,-1
 721 93 l 1,2,-1
 625 25 l 2,3,4
 561 -20 561 -20 502 -20 c 0,5,6
 460 -20 460 -20 418 -6 c 0,7,8
 309 31 309 31 237 119 c 0,9,10
 152 221 152 221 152 344 c 0,11,12
 152 386 152 386 161 427 c 2,13,-1
 210 652 l 2,14,15
 224 716 224 716 257 758 c 0,16,17
 287 795 287 795 345 836 c 2,18,-1
 680 1075 l 2,19,20
 744 1120 744 1120 800 1120 c 0,21,22
 882 1120 882 1120 927 1065 c 9,23,-1
 981 1315 l 1,24,-1
 1310 1550 l 1,25,-1
 1320 1550 l 1,26,-1
 1032 195 l 1,27,-1
 702 -40 l 1,0,-1
594 260 m 128,-1,29
 664 260 664 260 718 302 c 0,30,31
 774 346 774 346 792 427 c 2,32,-1
 844 673 l 2,33,34
 849 698 849 698 849 719 c 0,35,36
 849 768 849 768 822 798 c 0,37,38
 782 840 782 840 712 840 c 0,39,40
 640 840 640 840 588 798 c 0,41,42
 532 754 532 754 514 673 c 2,43,-1
 462 427 l 2,44,45
 456 401 456 401 456 379 c 0,46,47
 456 330 456 330 484 302 c 0,48,28
 524 260 524 260 594 260 c 128,-1,29
EndSplineSet
Validated: 1
EndChar

StartChar: e
Encoding: 101 101 72
Width: 1071
GlyphClass: 2
Flags: W
HStem: -20 270<482.466 624.191> 845 275<680.694 824.496>
DStem2: 465 467 474 306 0.814463 0.580215<0 486.546> 1127 594 961 264 0.813868 0.58105<-633.941 -144.15>
LayerCount: 2
Fore
SplineSet
502 -20 m 0,0,1
 460 -20 460 -20 418 -6 c 0,2,3
 310 30 310 30 237 119 c 0,4,5
 152 222 152 222 152 344 c 0,6,7
 152 386 152 386 161 427 c 2,8,-1
 210 652 l 2,9,10
 224 717 224 717 257 758 c 0,11,12
 286 794 286 794 345 836 c 2,13,-1
 680 1075 l 2,14,15
 743 1120 743 1120 803 1120 c 0,16,17
 845 1120 845 1120 887 1106 c 0,18,19
 996 1069 996 1069 1068 981 c 0,20,21
 1143 891 1143 891 1152 789 c 1,22,-1
 474 306 l 1,23,24
 511 250 511 250 592 250 c 0,25,26
 645 250 645 250 718 302 c 2,27,-1
 1127 594 l 1,28,-1
 1096 448 l 2,29,30
 1083 387 1083 387 1049 342 c 0,31,32
 1024 308 1024 308 961 264 c 2,33,-1
 625 25 l 2,34,35
 562 -20 562 -20 502 -20 c 0,0,1
852 742 m 1,36,37
 846 775 846 775 825 800 c 0,38,39
 788 845 788 845 716 845 c 0,40,41
 645 845 645 845 588 798 c 0,42,43
 525 747 525 747 509 673 c 2,44,-1
 465 467 l 1,45,-1
 852 742 l 1,36,37
EndSplineSet
Validated: 1
EndChar

StartChar: f
Encoding: 102 102 73
Width: 1041
GlyphClass: 2
Flags: W
HStem: -40 21G<201 239.085> 734 180<356 366 694 866> 1250 280<897.235 1040>
DStem2: 201 -40 491.049 -40 0.207912 0.978148<300.555 791.392 1035.65 1281.59>
LayerCount: 2
Fore
SplineSet
201 -40 m 1,0,-1
 366 734 l 1,1,-1
 176 734 l 1,2,-1
 178 744 l 1,3,-1
 356 914 l 1,4,-1
 404 914 l 1,5,-1
 438 1071 l 2,6,7
 452 1135 452 1135 485 1177 c 0,8,9
 513 1213 513 1213 573 1255 c 2,10,-1
 897 1485 l 2,11,12
 960 1530 960 1530 1020 1530 c 0,13,14
 1062 1530 1062 1530 1104 1516 c 0,15,16
 1208 1481 1208 1481 1285 1391 c 0,17,18
 1309 1363 1309 1363 1321 1342 c 1,19,-1
 1075 1152 l 1,20,21
 1063 1183 1063 1183 1038 1208 c 0,22,23
 996 1250 996 1250 928 1250 c 0,24,25
 856 1250 856 1250 804 1208 c 0,26,27
 747 1163 747 1163 730 1083 c 2,28,-1
 694 914 l 1,29,-1
 1046 914 l 1,30,-1
 1044 904 l 1,31,-1
 866 734 l 1,32,-1
 656 734 l 1,33,-1
 541 195 l 1,34,-1
 211 -40 l 1,35,-1
 201 -40 l 1,0,-1
EndSplineSet
Validated: 1
EndChar

StartChar: g
Encoding: 103 103 74
Width: 1070
GlyphClass: 2
Flags: W
HStem: -450 280<389.999 532.765> -20 280<482.629 624.96> 840 280<679.735 821.371>
VStem: 152 303<302.88 483.589> 848 304<611.129 797.058>
DStem2: 603.987 -450 904.736 -450 0.207912 0.978148<393.803 555.255 760.779 1193.54>
LayerCount: 2
Fore
SplineSet
502 -20 m 0,0,1
 460 -20 460 -20 418 -6 c 0,2,3
 309 31 309 31 237 119 c 0,4,5
 152 221 152 221 152 344 c 0,6,7
 152 385 152 385 161 427 c 2,8,-1
 209 652 l 2,9,10
 222 714 222 714 256 758 c 0,11,12
 285 794 285 794 344 836 c 2,13,-1
 679 1075 l 2,14,15
 742 1120 742 1120 802 1120 c 0,16,17
 844 1120 844 1120 886 1106 c 0,18,19
 995 1069 995 1069 1067 981 c 0,20,21
 1152 879 1152 879 1152 756 c 0,22,23
 1152 715 1152 715 1143 673 c 2,24,-1
 1004 17 l 2,25,26
 990 -49 990 -49 956 -89 c 0,27,28
 924 -128 924 -128 869 -167 c 2,29,-1
 533 -405 l 2,30,31
 469 -450 469 -450 410 -450 c 0,32,33
 368 -450 368 -450 326 -436 c 0,34,35
 217 -399 217 -399 145 -311 c 0,36,37
 120 -280 120 -280 110 -262 c 1,38,-1
 355 -72 l 1,39,40
 367 -103 367 -103 392 -128 c 0,41,42
 434 -170 434 -170 502 -170 c 0,43,44
 574 -170 574 -170 626 -128 c 0,45,46
 681 -85 681 -85 699 -3 c 2,47,-1
 720 93 l 1,48,-1
 625 25 l 2,49,50
 562 -20 562 -20 502 -20 c 0,0,1
593 260 m 128,-1,52
 663 260 663 260 717 302 c 0,53,54
 773 346 773 346 791 427 c 2,55,-1
 843 673 l 2,56,57
 848 698 848 698 848 719 c 0,58,59
 848 768 848 768 821 798 c 0,60,61
 781 840 781 840 711 840 c 0,62,63
 639 840 639 840 587 798 c 0,64,65
 531 754 531 754 513 673 c 2,66,-1
 461 427 l 2,67,68
 455 401 455 401 455 379 c 0,69,70
 455 330 455 330 483 302 c 0,71,51
 523 260 523 260 593 260 c 128,-1,52
EndSplineSet
Validated: 1
EndChar

StartChar: h
Encoding: 104 104 75
Width: 1140
GlyphClass: 2
Flags: W
HStem: -40 21G<121 159.085 741 779.148> 840 280<729.735 871.371> 1530 20G<711 749>
VStem: 898 304<611.184 797.058>
DStem2: 121 -40 411.049 -40 0.207912 0.978148<300.555 923.525 1130.78 1385.48> 741 -40 1041.35 -40 0.207912 0.978148<310.875 774.413>
LayerCount: 2
Fore
SplineSet
121 -40 m 1,0,-1
 410 1315 l 1,1,-1
 739 1550 l 1,2,-1
 749 1550 l 1,3,-1
 634 1007 l 1,4,-1
 729 1075 l 2,5,6
 792 1120 792 1120 852 1120 c 0,7,8
 894 1120 894 1120 936 1106 c 0,9,10
 1045 1069 1045 1069 1117 981 c 0,11,12
 1202 879 1202 879 1202 756 c 0,13,14
 1202 715 1202 715 1193 673 c 2,15,-1
 1093 203 l 1,16,-1
 751 -40 l 1,17,-1
 741 -40 l 1,18,-1
 893 673 l 2,19,20
 898 698 898 698 898 719 c 0,21,22
 898 768 898 768 871 798 c 0,23,24
 831 840 831 840 761 840 c 0,25,26
 689 840 689 840 637 798 c 0,27,28
 581 754 581 754 563 673 c 2,29,-1
 461 195 l 1,30,-1
 131 -40 l 1,31,-1
 121 -40 l 1,0,-1
EndSplineSet
Validated: 1
EndChar

StartChar: i
Encoding: 105 105 76
Width: 550
GlyphClass: 2
Flags: W
HStem: -40 21G<119 157.085> 1120 20G<621.915 660> 1523 20G<606.5 629.5>
VStem: 375 374<1293.38 1419.62>
DStem2: 119 -40 409.049 -40 0.207912 0.978148<300.555 966.14>
LayerCount: 2
Fore
SplineSet
505 1170 m 0,0,1
 486 1170 486 1170 464 1179 c 0,2,3
 421 1197 421 1197 397 1240 c 0,4,5
 375 1280 375 1280 375 1322 c 0,6,7
 375 1338 375 1338 378 1354 c 0,8,9
 387 1397 387 1397 427 1425 c 2,10,-1
 564 1522 l 2,11,12
 593 1543 593 1543 620 1543 c 0,13,14
 639 1543 639 1543 660 1534 c 0,15,16
 705 1515 705 1515 727 1473 c 0,17,18
 749 1433 749 1433 749 1391 c 0,19,20
 749 1375 749 1375 746 1359 c 0,21,22
 737 1316 737 1316 697 1288 c 2,23,-1
 561 1191 l 2,24,25
 532 1170 532 1170 505 1170 c 0,0,1
119 -40 m 1,26,-1
 320 905 l 1,27,-1
 650 1140 l 1,28,-1
 660 1140 l 1,29,-1
 459 195 l 1,30,-1
 129 -40 l 1,31,-1
 119 -40 l 1,26,-1
EndSplineSet
Validated: 1
EndChar

StartChar: j
Encoding: 106 106 77
Width: 550
GlyphClass: 2
Flags: W
HStem: -450 21G<-66 144.5> 1120 20G<624.915 663> 1523 20G<609.5 632.5>
VStem: 378 374<1293.38 1419.62>
DStem2: 35.5908 -450 325.591 -450 0.207912 0.978148<265.49 1385.15>
LayerCount: 2
Fore
SplineSet
508 1170 m 0,0,1
 489 1170 489 1170 467 1179 c 0,2,3
 424 1197 424 1197 400 1240 c 0,4,5
 378 1280 378 1280 378 1322 c 0,6,7
 378 1338 378 1338 381 1354 c 0,8,9
 390 1397 390 1397 430 1425 c 2,10,-1
 567 1522 l 2,11,12
 596 1543 596 1543 623 1543 c 0,13,14
 642 1543 642 1543 663 1534 c 0,15,16
 708 1515 708 1515 730 1473 c 0,17,18
 752 1433 752 1433 752 1391 c 0,19,20
 752 1375 752 1375 749 1359 c 0,21,22
 740 1316 740 1316 700 1288 c 2,23,-1
 564 1191 l 2,24,25
 535 1170 535 1170 508 1170 c 0,0,1
-56 -450 m 1,26,-1
 -66 -450 l 1,27,28
 65 -310 65 -310 117 -67 c 2,29,-1
 323 905 l 1,30,-1
 653 1140 l 1,31,-1
 663 1140 l 1,32,-1
 407 -67 l 2,33,34
 345 -354 345 -354 -56 -450 c 1,26,-1
EndSplineSet
Validated: 1
EndChar

StartChar: k
Encoding: 107 107 78
Width: 1140
GlyphClass: 2
Flags: W
HStem: -40 21G<121 159.085 741 779.148> 1120 20G<1109.95 1167.65> 1530 20G<711 749>
VStem: 842 303<350.034 530.089>
DStem2: 121 -40 411.049 -40 0.207912 0.978148<300.555 650.437 857.763 1385.48> 577 740 951 807 0.814224 0.580552<343.417 689>
LayerCount: 2
Fore
SplineSet
121 -40 m 1,0,-1
 410 1315 l 1,1,-1
 739 1550 l 1,2,-1
 749 1550 l 1,3,-1
 577 740 l 1,4,-1
 1138 1140 l 1,5,-1
 1148 1140 l 1,6,-1
 1259 1027 l 1,7,-1
 951 807 l 1,8,9
 1012 773 1012 773 1060 714 c 0,10,11
 1145 610 1145 610 1145 489 c 0,12,13
 1145 448 1145 448 1136 406 c 2,14,-1
 1093 203 l 1,15,-1
 751 -40 l 1,16,-1
 741 -40 l 1,17,-1
 836 406 l 2,18,19
 842 432 842 432 842 454 c 0,20,21
 842 502 842 502 814 531 c 0,22,23
 774 573 774 573 704 573 c 0,24,25
 632 573 632 573 580 531 c 0,26,27
 523 486 523 486 506 406 c 2,28,-1
 461 195 l 1,29,-1
 131 -40 l 1,30,-1
 121 -40 l 1,0,-1
EndSplineSet
Validated: 1
EndChar

StartChar: l
Encoding: 108 108 79
Width: 550
GlyphClass: 2
Flags: W
HStem: -40 21G<121 159.085> 1530 20G<711 749>
VStem: 121 628
DStem2: 121 -40 411.049 -40 0.207912 0.978148<300.555 1385.48>
LayerCount: 2
Fore
SplineSet
121 -40 m 1,0,-1
 410 1315 l 1,1,-1
 739 1550 l 1,2,-1
 749 1550 l 1,3,-1
 461 195 l 1,4,-1
 131 -40 l 1,5,-1
 121 -40 l 1,0,-1
EndSplineSet
Validated: 1
EndChar

StartChar: m
Encoding: 109 109 80
Width: 1770
GlyphClass: 2
Flags: W
HStem: -40 21G<121 159.085 741 779.148 1371 1409.15> 840 280<729.735 871.402 1359.73 1501.4> 1120 20G<623.915 662>
VStem: 1528 304<611.184 797.027>
DStem2: 121 -40 411.049 -40 0.207912 0.978148<300.555 923.453> 741 -40 1041.35 -40 0.207912 0.978148<310.875 774.413> 1371 -40 1671.35 -40 0.207912 0.978148<310.875 774.413>
LayerCount: 2
Fore
SplineSet
121 -40 m 1,0,-1
 322 905 l 1,1,-1
 652 1140 l 1,2,-1
 662 1140 l 1,3,-1
 634 1007 l 1,4,-1
 729 1075 l 2,5,6
 792 1120 792 1120 852 1120 c 0,7,8
 894 1120 894 1120 936 1106 c 0,9,10
 1038 1071 1038 1071 1117 981 c 0,11,12
 1138 957 1138 957 1154 928 c 1,13,-1
 1359 1075 l 2,14,15
 1422 1120 1422 1120 1482 1120 c 0,16,17
 1524 1120 1524 1120 1566 1106 c 0,18,19
 1675 1069 1675 1069 1747 981 c 0,20,21
 1832 879 1832 879 1832 756 c 0,22,23
 1832 715 1832 715 1823 673 c 2,24,-1
 1723 203 l 1,25,-1
 1381 -40 l 1,26,-1
 1371 -40 l 1,27,-1
 1523 673 l 2,28,29
 1528 698 1528 698 1528 719 c 0,30,31
 1528 767 1528 767 1501 798 c 0,32,33
 1463 840 1463 840 1391 840 c 128,-1,34
 1319 840 1319 840 1267 798 c 0,35,36
 1210 753 1210 753 1193 673 c 2,37,-1
 1093 203 l 1,38,-1
 751 -40 l 1,39,-1
 741 -40 l 1,40,-1
 893 673 l 2,41,42
 898 698 898 698 898 719 c 0,43,44
 898 767 898 767 871 798 c 0,45,46
 833 840 833 840 761 840 c 128,-1,47
 689 840 689 840 637 798 c 0,48,49
 580 753 580 753 563 673 c 2,50,-1
 461 195 l 1,51,-1
 131 -40 l 1,52,-1
 121 -40 l 1,0,-1
EndSplineSet
Validated: 1
EndChar

StartChar: n
Encoding: 110 110 81
Width: 1140
GlyphClass: 2
Flags: W
HStem: -40 21G<121 159.085 741 779.148> 840 280<729.735 871.371> 1120 20G<623.915 662>
VStem: 898 304<611.184 797.058>
DStem2: 121 -40 411.049 -40 0.207912 0.978148<300.555 923.525> 741 -40 1041.35 -40 0.207912 0.978148<310.875 774.413>
LayerCount: 2
Fore
SplineSet
121 -40 m 1,0,-1
 322 905 l 1,1,-1
 652 1140 l 1,2,-1
 662 1140 l 1,3,-1
 634 1007 l 1,4,-1
 729 1075 l 2,5,6
 792 1120 792 1120 852 1120 c 0,7,8
 894 1120 894 1120 936 1106 c 0,9,10
 1045 1069 1045 1069 1117 981 c 0,11,12
 1202 879 1202 879 1202 756 c 0,13,14
 1202 715 1202 715 1193 673 c 2,15,-1
 1093 203 l 1,16,-1
 751 -40 l 1,17,-1
 741 -40 l 1,18,-1
 893 673 l 2,19,20
 898 698 898 698 898 719 c 0,21,22
 898 768 898 768 871 798 c 0,23,24
 831 840 831 840 761 840 c 0,25,26
 689 840 689 840 637 798 c 0,27,28
 581 754 581 754 563 673 c 2,29,-1
 461 195 l 1,30,-1
 131 -40 l 1,31,-1
 121 -40 l 1,0,-1
EndSplineSet
Validated: 1
EndChar

StartChar: o
Encoding: 111 111 82
Width: 1071
GlyphClass: 2
Flags: W
HStem: -20 280<483.785 624.423> 840 280<680.735 822.371>
VStem: 152 304<302.88 482.614> 849 304<616.411 797.058>
LayerCount: 2
Fore
SplineSet
502 -20 m 0,0,1
 460 -20 460 -20 418 -6 c 0,2,3
 309 31 309 31 237 119 c 0,4,5
 152 222 152 222 152 344 c 0,6,7
 152 384 152 384 161 427 c 2,8,-1
 210 652 l 2,9,10
 224 717 224 717 257 758 c 0,11,12
 286 794 286 794 345 836 c 2,13,-1
 680 1075 l 2,14,15
 743 1120 743 1120 803 1120 c 0,16,17
 845 1120 845 1120 887 1106 c 0,18,19
 996 1069 996 1069 1068 981 c 0,20,21
 1153 879 1153 879 1153 756 c 0,22,23
 1153 716 1153 716 1144 673 c 2,24,-1
 1096 448 l 2,25,26
 1082 383 1082 383 1049 342 c 0,27,28
 1020 306 1020 306 961 264 c 2,29,-1
 625 25 l 2,30,31
 562 -20 562 -20 502 -20 c 0,0,1
594 260 m 128,-1,33
 664 260 664 260 718 302 c 0,34,35
 774 346 774 346 792 427 c 2,36,-1
 844 673 l 2,37,38
 849 698 849 698 849 719 c 0,39,40
 849 768 849 768 822 798 c 0,41,42
 782 840 782 840 712 840 c 0,43,44
 640 840 640 840 588 798 c 0,45,46
 532 754 532 754 514 673 c 2,47,-1
 462 427 l 2,48,49
 456 401 456 401 456 379 c 0,50,51
 456 330 456 330 484 302 c 0,52,32
 524 260 524 260 594 260 c 128,-1,33
EndSplineSet
Validated: 1
EndChar

StartChar: p
Encoding: 112 112 83
Width: 1120
GlyphClass: 2
Flags: W
HStem: -450 21G<34 72.0851> -20 280<533.453 673.765> 840 280<729.04 871.371> 1120 20G<623.915 662>
VStem: 899 303<616.411 797.12>
DStem2: 34 -450 324.049 -450 0.207912 0.978148<300.555 556.111 911.618 1342.65>
LayerCount: 2
Fore
SplineSet
555 -20 m 0,0,1
 473 -20 473 -20 427 35 c 9,2,-1
 374 -215 l 1,3,-1
 44 -450 l 1,4,-1
 34 -450 l 1,5,-1
 322 905 l 1,6,-1
 652 1140 l 1,7,-1
 662 1140 l 1,8,-1
 634 1007 l 1,9,-1
 729 1075 l 2,10,11
 792 1120 792 1120 852 1120 c 0,12,13
 894 1120 894 1120 936 1106 c 0,14,15
 1045 1069 1045 1069 1117 981 c 0,16,17
 1202 879 1202 879 1202 756 c 0,18,19
 1202 715 1202 715 1193 673 c 2,20,-1
 1145 448 l 2,21,22
 1132 386 1132 386 1098 342 c 0,23,24
 1068 305 1068 305 1010 264 c 2,25,-1
 674 25 l 2,26,27
 611 -20 611 -20 555 -20 c 0,0,1
761 840 m 128,-1,29
 691 840 691 840 637 798 c 0,30,31
 581 754 581 754 563 673 c 2,32,-1
 511 427 l 2,33,34
 506 402 506 402 506 381 c 0,35,36
 506 332 506 332 533 302 c 0,37,38
 573 260 573 260 643 260 c 0,39,40
 715 260 715 260 767 302 c 0,41,42
 823 346 823 346 841 427 c 2,43,-1
 893 673 l 2,44,45
 899 699 899 699 899 721 c 0,46,47
 899 770 899 770 871 798 c 0,48,28
 831 840 831 840 761 840 c 128,-1,29
EndSplineSet
Validated: 1
EndChar

StartChar: q
Encoding: 113 113 84
Width: 1121
GlyphClass: 2
Flags: W
HStem: -450 21G<605 643.085> -20 280<483.785 624.765> 840 280<680.04 822.371>
VStem: 152 305<302.942 483.589> 850 292<612.196 797.12>
DStem2: 605 -450 895.049 -450 0.207912 0.978148<300.555 555.252 760.777 1195.68>
LayerCount: 2
Fore
SplineSet
502 -20 m 0,0,1
 460 -20 460 -20 418 -6 c 0,2,3
 309 31 309 31 237 119 c 0,4,5
 152 221 152 221 152 344 c 0,6,7
 152 385 152 385 161 427 c 2,8,-1
 209 652 l 2,9,10
 222 714 222 714 256 758 c 0,11,12
 285 794 285 794 344 836 c 2,13,-1
 680 1075 l 2,14,15
 743 1120 743 1120 803 1120 c 0,16,17
 845 1120 845 1120 887 1106 c 0,18,19
 996 1069 996 1069 1068 981 c 0,20,21
 1142 890 1142 890 1142 756 c 0,22,23
 1142 716 1142 716 1133 673 c 2,24,-1
 945 -215 l 1,25,-1
 615 -450 l 1,26,-1
 605 -450 l 1,27,-1
 721 93 l 1,28,-1
 625 25 l 2,29,30
 561 -20 561 -20 502 -20 c 0,0,1
712 840 m 128,-1,32
 642 840 642 840 588 798 c 0,33,34
 532 754 532 754 514 673 c 2,35,-1
 462 427 l 2,36,37
 457 402 457 402 457 381 c 0,38,39
 457 332 457 332 484 302 c 0,40,41
 524 260 524 260 594 260 c 0,42,43
 666 260 666 260 718 302 c 0,44,45
 774 346 774 346 792 427 c 2,46,-1
 844 673 l 2,47,48
 850 699 850 699 850 721 c 0,49,50
 850 770 850 770 822 798 c 0,51,31
 782 840 782 840 712 840 c 128,-1,32
EndSplineSet
Validated: 1
EndChar

StartChar: r
Encoding: 114 114 85
Width: 1024
GlyphClass: 2
Flags: W
HStem: -40 21G<121 159.085> 840 280<729.735 871.402> 1120 20G<623.915 662>
DStem2: 121 -40 411.049 -40 0.207912 0.978148<300.555 923.453>
LayerCount: 2
Fore
SplineSet
121 -40 m 1,0,-1
 322 905 l 1,1,-1
 652 1140 l 1,2,-1
 662 1140 l 1,3,-1
 634 1007 l 1,4,-1
 729 1075 l 2,5,6
 792 1120 792 1120 852 1120 c 0,7,8
 894 1120 894 1120 936 1106 c 0,9,10
 1045 1069 1045 1069 1117 981 c 0,11,12
 1178 908 1178 908 1195 827 c 1,13,-1
 890 610 l 1,14,-1
 880 610 l 1,15,-1
 893 673 l 2,16,17
 898 698 898 698 898 719 c 0,18,19
 898 768 898 768 871 798 c 0,20,21
 833 840 833 840 761 840 c 128,-1,22
 689 840 689 840 637 798 c 0,23,24
 580 753 580 753 563 673 c 2,25,-1
 461 195 l 1,26,-1
 131 -40 l 1,27,-1
 121 -40 l 1,0,-1
EndSplineSet
Validated: 1
EndChar

StartChar: s
Encoding: 115 115 86
Width: 996
GlyphClass: 2
Flags: W
HStem: -20 281<404.068 573.826> 455 263<544.103 715.893> 869 251<625.436 773.183>
VStem: 242 286<648.5 823.151> 740 298<334.664 515>
LayerCount: 2
Fore
SplineSet
451 -20 m 0,0,1
 409 -20 409 -20 367 -6 c 0,2,3
 258 31 258 31 186 119 c 0,4,5
 125 193 125 193 108 272 c 1,6,-1
 365 455 l 1,7,-1
 375 455 l 1,8,9
 368 423 368 423 368 397 c 0,10,11
 368 334 368 334 407 299 c 0,12,13
 449 261 449 261 535 261 c 128,-1,14
 621 261 621 261 677 300 c 0,15,16
 728 336 728 336 738 376 c 0,17,18
 740 384 740 384 740 391 c 0,19,20
 740 417 740 417 717 432 c 0,21,22
 682 455 682 455 593 455 c 0,23,24
 424 455 424 455 334 524 c 0,25,26
 242 596 242 596 242 701 c 0,27,28
 242 716 242 716 244 732 c 0,29,30
 253 811 253 811 353 882 c 2,31,-1
 623 1074 l 2,32,33
 688 1120 688 1120 746 1120 c 0,34,35
 882 1120 882 1120 972 1022 c 0,36,37
 1015 975 1015 975 1046 910 c 1,38,-1
 812 744 l 1,39,-1
 802 744 l 1,40,41
 802 802 802 802 768 838 c 0,42,43
 739 869 739 869 671 869 c 0,44,45
 616 869 616 869 576.5 845.5 c 128,-1,46
 537 822 537 822 530 790 c 0,47,48
 528 781 528 781 528 773 c 0,49,50
 528 753 528 753 543 742 c 0,51,52
 578 718 578 718 651 718 c 0,53,54
 865 718 865 718 956 639 c 0,55,56
 1038 569 1038 569 1038 461 c 0,57,58
 1038 439 1038 439 1034 413 c 0,59,60
 1028 374 1028 374 997 339 c 0,61,62
 967 305 967 305 901 258 c 2,63,-1
 574 25 l 2,64,65
 511 -20 511 -20 451 -20 c 0,0,1
EndSplineSet
Validated: 1
EndChar

StartChar: t
Encoding: 116 116 87
Width: 832
GlyphClass: 2
Flags: W
HStem: -40 21G<262 300.085> 920 180<381 467 795 881> 1530 20G<852 890>
DStem2: 262 -40 552.049 -40 0.207912 0.978148<300.555 981.644 1225.91 1385.48>
LayerCount: 2
Fore
SplineSet
262 -40 m 1,0,-1
 467 920 l 1,1,-1
 201 920 l 1,2,-1
 203 930 l 1,3,-1
 381 1100 l 1,4,-1
 505 1100 l 1,5,-1
 551 1315 l 1,6,-1
 880 1550 l 1,7,-1
 890 1550 l 1,8,-1
 795 1100 l 1,9,-1
 1061 1100 l 1,10,-1
 1059 1090 l 1,11,-1
 881 920 l 1,12,-1
 757 920 l 1,13,-1
 602 195 l 1,14,-1
 272 -40 l 1,15,-1
 262 -40 l 1,0,-1
EndSplineSet
Validated: 1
EndChar

StartChar: u
Encoding: 117 117 88
Width: 1141
GlyphClass: 2
Flags: W
HStem: -40 21G<712 750.085> -20 280<503.785 644.765> 1120 20G<594.934 633 1214.91 1253>
VStem: 172 305<302.942 488.254>
DStem2: 81.7361 -40 382.736 -40 0.207912 0.978148<494.623 958.162> 712.134 -40 1002.18 -40 0.207912 0.978148<341.62 966.112>
LayerCount: 2
Fore
SplineSet
722 -40 m 1,0,-1
 712 -40 l 1,1,-1
 741 93 l 1,2,-1
 645 25 l 2,3,4
 581 -20 581 -20 522 -20 c 0,5,6
 480 -20 480 -20 438 -6 c 0,7,8
 329 31 329 31 257 119 c 0,9,10
 172 221 172 221 172 344 c 0,11,12
 172 385 172 385 181 427 c 2,13,-1
 282 897 l 1,14,-1
 623 1140 l 1,15,-1
 633 1140 l 1,16,-1
 482 427 l 2,17,18
 477 402 477 402 477 381 c 0,19,20
 477 332 477 332 504 302 c 0,21,22
 544 260 544 260 614 260 c 0,23,24
 686 260 686 260 738 302 c 0,25,26
 794 346 794 346 812 427 c 2,27,-1
 913 905 l 1,28,-1
 1243 1140 l 1,29,-1
 1253 1140 l 1,30,-1
 1052 195 l 1,31,-1
 722 -40 l 1,0,-1
EndSplineSet
Validated: 1
EndChar

StartChar: v
Encoding: 118 118 89
Width: 1190
GlyphClass: 2
Flags: W
HStem: -20 280<542.785 683.423> 1100 20G<443.908 548 1190.5 1392>
VStem: 211 300<303.066 487.629> 311 303<681.539 986.147>
DStem2: 124.987 -20 420.987 -20 0.207912 0.978148<477.966 902.928> 760.987 -20 1055.52 -20 0.207912 0.978148<392.169 1015.54>
LayerCount: 2
Fore
SplineSet
561 -20 m 0,0,1
 519 -20 519 -20 477 -6 c 0,2,3
 368 31 368 31 296 119 c 0,4,5
 211 221 211 221 211 344 c 0,6,7
 211 385 211 385 220 427 c 2,8,-1
 307 833 l 2,9,10
 311 850 311 850 311 864 c 0,11,12
 311 932 311 932 229 947 c 1,13,-1
 472 1120 l 1,14,-1
 482 1120 l 1,15,16
 614 1069 614 1069 614 927 c 0,17,18
 614 890 614 890 605 846 c 2,19,-1
 516 427 l 2,20,21
 511 405 511 405 511 386 c 0,22,23
 511 336 511 336 543 302 c 0,24,25
 583 260 583 260 653 260 c 128,-1,26
 723 260 723 260 777 302 c 0,27,28
 839 351 839 351 856 427 c 2,29,-1
 930 774 l 2,30,31
 999 1100 999 1100 1382 1140 c 1,32,-1
 1392 1140 l 1,33,34
 1267 975 1267 975 1223 768 c 2,35,-1
 1155 448 l 2,36,37
 1142 385 1142 385 1108 342 c 0,38,39
 1079 306 1079 306 1020 264 c 2,40,-1
 684 25 l 2,41,42
 621 -20 621 -20 561 -20 c 0,0,1
EndSplineSet
Validated: 1
EndChar

StartChar: w
Encoding: 119 119 90
Width: 1825
GlyphClass: 2
Flags: W
HStem: -20 280<542.785 683.423 1177.78 1318.42> 1100 40G<443.908 548.5 1268.93 1307 1826 2027>
VStem: 211 300<303.036 487.629> 311 304<684.711 984.966>
DStem2: 124.987 -20 420.987 -20 0.207912 0.978148<477.966 902.928> 761.086 -20 1055.99 -20 0.207912 0.978148<476.79 937.486> 1395.99 -20 1690.52 -20 0.207912 0.978148<392.695 1015.63>
LayerCount: 2
Fore
SplineSet
561 -20 m 0,0,1
 519 -20 519 -20 477 -6 c 0,2,3
 368 31 368 31 296 119 c 0,4,5
 211 221 211 221 211 344 c 0,6,7
 211 385 211 385 220 427 c 2,8,-1
 307 833 l 2,9,10
 311 850 311 850 311 864 c 0,11,12
 311 932 311 932 229 947 c 1,13,-1
 472 1120 l 1,14,-1
 482 1120 l 1,15,16
 615 1070 615 1070 615 928 c 0,17,18
 615 890 615 890 605 846 c 2,19,-1
 516 427 l 2,20,21
 511 405 511 405 511 386 c 0,22,23
 511 335 511 335 543 302 c 0,24,25
 583 260 583 260 653 260 c 128,-1,26
 723 260 723 260 777 302 c 0,27,28
 840 352 840 352 856 427 c 2,29,-1
 956 897 l 1,30,-1
 1297 1140 l 1,31,-1
 1307 1140 l 1,32,-1
 1151 427 l 2,33,34
 1146 405 1146 405 1146 385 c 0,35,36
 1146 335 1146 335 1178 302 c 0,37,38
 1218 260 1218 260 1288 260 c 128,-1,39
 1358 260 1358 260 1412 302 c 0,40,41
 1475 352 1475 352 1491 427 c 2,42,-1
 1565 774 l 2,43,44
 1635 1100 1635 1100 2017 1140 c 1,45,-1
 2027 1140 l 1,46,47
 1902 975 1902 975 1858 768 c 2,48,-1
 1790 448 l 2,49,50
 1776 384 1776 384 1743 342 c 0,51,52
 1714 306 1714 306 1655 264 c 2,53,-1
 1319 25 l 2,54,55
 1256 -20 1256 -20 1196 -20 c 0,56,57
 1154 -20 1154 -20 1112 -6 c 0,58,59
 1003 31 1003 31 931 119 c 0,60,61
 908 146 908 146 892 175 c 1,62,-1
 684 25 l 2,63,64
 622 -20 622 -20 561 -20 c 0,0,1
EndSplineSet
Validated: 1
EndChar

StartChar: x
Encoding: 120 120 91
Width: 1120
GlyphClass: 2
Flags: W
HStem: -40 21G<101 139.117 706 744.117> 409 280<609.163 743.776> 1120 20G<608.967 647 1213.97 1252>
VStem: 284 298<722.619 908.883> 772 297<190.703 374.906>
LayerCount: 2
Fore
SplineSet
101 -40 m 1,0,-1
 159 230 l 2,1,2
 173 295 173 295 206 336 c 0,3,4
 238 375 238 375 292 411 c 2,5,-1
 424 499 l 1,6,7
 394 524 394 524 369 554 c 0,8,9
 284 654 284 654 284 779 c 0,10,11
 284 823 284 823 293 862 c 2,12,-1
 302 901 l 1,13,-1
 637 1140 l 1,14,-1
 647 1140 l 1,15,-1
 589 866 l 2,16,17
 582 834 582 834 582 808 c 0,18,19
 582 758 582 758 608 730 c 0,20,21
 645 689 645 689 710 689 c 0,22,23
 774 689 774 689 826 730 c 128,-1,24
 878 771 878 771 899 865 c 2,25,-1
 907 901 l 1,26,-1
 1242 1140 l 1,27,-1
 1252 1140 l 1,28,-1
 1195 869 l 2,29,30
 1182 808 1182 808 1151 767 c 0,31,32
 1121 726 1121 726 1061 687 c 2,33,-1
 928 601 l 1,34,35
 958 577 958 577 984 545 c 0,36,37
 1069 440 1069 440 1069 320 c 0,38,39
 1069 280 1069 280 1060 237 c 2,40,-1
 1052 199 l 1,41,-1
 716 -40 l 1,42,-1
 706 -40 l 1,43,-1
 765 233 l 2,44,45
 772 264 772 264 772 289 c 0,46,47
 772 340 772 340 745 368 c 0,48,49
 706 409 706 409 646 409 c 0,50,51
 580 409 580 409 527 368 c 0,52,53
 477 330 477 330 455 234 c 2,54,-1
 447 199 l 1,55,-1
 111 -40 l 1,56,-1
 101 -40 l 1,0,-1
EndSplineSet
Validated: 1
EndChar

StartChar: y
Encoding: 121 121 92
Width: 1141
GlyphClass: 2
Flags: W
HStem: -450 280<410.999 553.765> -20 280<503.785 644.765> 1120 20G<594.934 633 1214.91 1253>
VStem: 172 305<302.942 488.254>
DStem2: -5.4121 -450 295.588 -450 0.207912 0.978148<913.783 1377.32> 624.987 -450 915.437 -450 0.207912 0.978148<382.818 555.255 760.779 1385.27>
LayerCount: 2
Fore
SplineSet
522 -20 m 0,0,1
 480 -20 480 -20 438 -6 c 0,2,3
 329 31 329 31 257 119 c 0,4,5
 172 221 172 221 172 344 c 0,6,7
 172 385 172 385 181 427 c 2,8,-1
 282 897 l 1,9,-1
 623 1140 l 1,10,-1
 633 1140 l 1,11,-1
 482 427 l 2,12,13
 477 402 477 402 477 381 c 0,14,15
 477 332 477 332 504 302 c 0,16,17
 544 260 544 260 614 260 c 0,18,19
 686 260 686 260 738 302 c 0,20,21
 794 346 794 346 812 427 c 2,22,-1
 913 905 l 1,23,-1
 1243 1140 l 1,24,-1
 1253 1140 l 1,25,-1
 1013 9 l 2,26,27
 999 -55 999 -55 965 -97 c 0,28,29
 935 -134 935 -134 878 -175 c 2,30,-1
 554 -405 l 2,31,32
 491 -450 491 -450 431 -450 c 0,33,34
 389 -450 389 -450 347 -436 c 0,35,36
 238 -399 238 -399 166 -311 c 0,37,38
 141 -280 141 -280 131 -262 c 1,39,-1
 376 -72 l 1,40,41
 388 -103 388 -103 413 -128 c 0,42,43
 455 -170 455 -170 523 -170 c 0,44,45
 595 -170 595 -170 647 -128 c 0,46,47
 702 -85 702 -85 720 -3 c 2,48,-1
 741 93 l 1,49,-1
 645 25 l 2,50,51
 581 -20 581 -20 522 -20 c 0,0,1
EndSplineSet
Validated: 1
EndChar

StartChar: z
Encoding: 122 122 93
Width: 1045
GlyphClass: 2
Flags: W
HStem: 0 180<497 843> 362 180<775 900> 920 180<526 751>
LayerCount: 2
Fore
SplineSet
50 0 m 1,0,-1
 52 10 l 1,1,-1
 322 362 l 1,2,-1
 177 362 l 1,3,-1
 179 372 l 1,4,-1
 357 542 l 1,5,-1
 461 542 l 1,6,-1
 751 920 l 1,7,-1
 346 920 l 1,8,-1
 348 930 l 1,9,-1
 526 1100 l 1,10,-1
 1199 1100 l 1,11,-1
 1197 1090 l 1,12,-1
 775 542 l 1,13,-1
 1080 542 l 1,14,-1
 1078 532 l 1,15,-1
 900 362 l 1,16,-1
 637 362 l 1,17,-1
 497 180 l 1,18,-1
 1023 180 l 1,19,-1
 1021 170 l 1,20,-1
 843 0 l 1,21,-1
 50 0 l 1,0,-1
EndSplineSet
Validated: 1
EndChar

StartChar: braceleft
Encoding: 123 123 94
Width: 971
GlyphClass: 2
Flags: W
HStem: -240 300<730.656 862>
VStem: 339 324<128.505 467.961>
DStem2: 232.306 -240 552.306 -240 0.207912 0.978148<570.643 868.994 1164.36 1614.42>
LayerCount: 2
Fore
SplineSet
772 -240 m 0,0,1
 723 -240 723 -240 674 -224 c 0,2,3
 516 -172 516 -172 427 -46 c 0,4,5
 339 80 339 80 339 219 c 0,6,7
 339 262 339 262 349 309 c 2,8,-1
 413 610 l 1,9,-1
 135 610 l 1,10,-1
 137 620 l 1,11,-1
 430 899 l 1,12,-1
 474 899 l 1,13,-1
 536 1190 l 2,14,15
 549 1252 549 1252 580 1296 c 0,16,17
 606 1332 606 1332 671 1378 c 2,18,-1
 1128 1704 l 2,19,20
 1193 1750 1193 1750 1245 1750 c 0,21,22
 1292 1750 1292 1750 1336 1743 c 1,23,-1
 1155 1450 l 1,24,25
 1056 1450 1056 1450 968.5 1378 c 128,-1,26
 881 1306 881 1306 858 1201 c 2,27,-1
 669 309 l 2,28,29
 663 278 663 278 663 251 c 0,30,31
 663 181 663 181 705 130 c 0,32,33
 763 60 763 60 862 60 c 1,34,-1
 889 -194 l 1,35,36
 824 -240 824 -240 772 -240 c 0,0,1
EndSplineSet
Validated: 1
EndChar

StartChar: bar
Encoding: 124 124 95
Width: 630
GlyphClass: 2
Flags: W
DStem2: 129 -240 398.663 -240 0.207912 0.978148<278.936 1811.66>
LayerCount: 2
Fore
SplineSet
129 -240 m 1,0,-1
 506 1532 l 1,1,-1
 812 1750 l 1,2,-1
 822 1750 l 1,3,-1
 445 -22 l 1,4,-1
 139 -240 l 1,5,-1
 129 -240 l 1,0,-1
EndSplineSet
Validated: 1
EndChar

StartChar: braceright
Encoding: 125 125 96
Width: 972
GlyphClass: 2
Flags: W
HStem: 1450 300<431 562.344>
VStem: 630 324<1042.04 1381.49>
DStem2: 318.306 -240 637.968 -240 0.207912 0.978148<487.006 936.504 1231.87 1530.22>
LayerCount: 2
Fore
SplineSet
521 1750 m 0,0,1
 570 1750 570 1750 619 1734 c 0,2,3
 777 1682 777 1682 866 1556 c 0,4,5
 954 1430 954 1430 954 1291 c 0,6,7
 954 1248 954 1248 944 1201 c 2,8,-1
 880 900 l 1,9,-1
 1158 900 l 1,10,-1
 1156 890 l 1,11,-1
 863 611 l 1,12,-1
 819 611 l 1,13,-1
 757 320 l 2,14,15
 744 258 744 258 712 214 c 0,16,17
 686 178 686 178 622 132 c 2,18,-1
 165 -194 l 2,19,20
 100 -240 100 -240 48 -240 c 0,21,22
 0 -240 0 -240 -44 -233 c 1,23,-1
 138 60 l 1,24,25
 237 60 237 60 324.5 132 c 128,-1,26
 412 204 412 204 435 309 c 2,27,-1
 624 1201 l 2,28,29
 630 1232 630 1232 630 1259 c 0,30,31
 630 1329 630 1329 588 1380 c 0,32,33
 530 1450 530 1450 431 1450 c 1,34,-1
 404 1704 l 1,35,36
 468 1750 468 1750 521 1750 c 0,0,1
EndSplineSet
Validated: 1
EndChar

StartChar: asciitilde
Encoding: 126 126 97
Width: 1258
GlyphClass: 2
Flags: W
HStem: 505 181<837.5 1084> 824 181<495 742.5>
VStem: 221 248<623 776.355> 1110 248<733.428 902.737>
DStem2: 1309 1030 1037 533 0.81183 0.583893<-309.309 -91.9038>
LayerCount: 2
Fore
SplineSet
1324 1030 m 1,0,1
 1358 966 1358 966 1358 887 c 0,2,3
 1358 845 1358 845 1348 798 c 8,4,5
 1338 749 1338 749 1297 720 c 2,6,-1
 1037 533 l 2,7,8
 998 505 998 505 956 505 c 0,9,10
 719 505 719 505 640 660 c 24,11,12
 557 824 557 824 512 824 c 0,13,14
 478 824 478 824 471 791 c 0,15,16
 469 783 469 783 469 774 c 0,17,18
 469 726 469 726 521 660 c 1,19,-1
 270 480 l 1,20,-1
 255 480 l 1,21,22
 221 544 221 544 221 623 c 0,23,24
 221 665 221 665 231 712 c 8,25,26
 241 761 241 761 282 790 c 2,27,-1
 542 977 l 2,28,29
 581 1005 581 1005 623 1005 c 0,30,31
 862 1005 862 1005 939 850 c 0,32,33
 1020 686 1020 686 1067 686 c 0,34,35
 1101 686 1101 686 1108 719 c 0,36,37
 1110 727 1110 727 1110 736 c 0,38,39
 1110 784 1110 784 1058 850 c 1,40,-1
 1309 1030 l 1,41,-1
 1324 1030 l 1,0,1
EndSplineSet
Validated: 1
EndChar

StartChar: exclamdown
Encoding: 161 161 99
Width: 579
VWidth: 1618
GlyphClass: 2
Flags: W
HStem: -450 21G<23 61.1884> 1100 20G<531.5 554.5>
VStem: 301 374<870.382 996.618>
LayerCount: 2
Fore
SplineSet
33 -450 m 1,0,-1
 23 -450 l 1,1,-1
 279 555 l 1,2,-1
 571 763 l 1,3,-1
 581 763 l 1,4,-1
 422 -174 l 1,5,-1
 33 -450 l 1,0,-1
545 1120 m 0,6,7
 564 1120 564 1120 586 1111 c 0,8,9
 629 1093 629 1093 653 1050 c 0,10,11
 675 1010 675 1010 675 968 c 0,12,13
 675 952 675 952 672 936 c 0,14,15
 663 893 663 893 623 865 c 2,16,-1
 486 768 l 2,17,18
 457 747 457 747 430 747 c 0,19,20
 411 747 411 747 390 756 c 0,21,22
 345 775 345 775 323 817 c 0,23,24
 301 857 301 857 301 899 c 0,25,26
 301 915 301 915 304 931 c 0,27,28
 313 974 313 974 353 1002 c 2,29,-1
 489 1099 l 2,30,31
 518 1120 518 1120 545 1120 c 0,6,7
EndSplineSet
Validated: 1
EndChar

StartChar: cent
Encoding: 162 162 100
Width: 1091
GlyphClass: 2
Flags: W
VStem: 172 304<280.528 482.614>
DStem2: 476.281 -140 575.846 -140 0.207912 0.978148<98.3986 123.703 429.664 996.673 1307.94 1333.04> 738 302 981 264 0.813868 0.58105<-85.8491 358.656>
LayerCount: 2
Fore
SplineSet
502 -19 m 1,0,1
 470 -16 470 -16 438 -6 c 0,2,3
 330 31 330 31 257 119 c 0,4,5
 172 222 172 222 172 344 c 0,6,7
 172 386 172 386 181 427 c 2,8,-1
 230 652 l 2,9,10
 244 717 244 717 277 758 c 0,11,12
 306 794 306 794 365 836 c 2,13,-1
 700 1075 l 2,14,15
 721 1090 721 1090 739 1099 c 1,16,-1
 753 1164 l 1,17,-1
 860 1240 l 1,18,-1
 870 1240 l 1,19,-1
 844 1119 l 1,20,21
 875 1116 875 1116 907 1106 c 0,22,23
 1016 1069 1016 1069 1088 981 c 0,24,25
 1149 908 1149 908 1166 827 c 1,26,-1
 861 610 l 1,27,-1
 851 610 l 1,28,-1
 864 673 l 2,29,30
 869 697 869 697 869 719 c 0,31,32
 869 768 869 768 842 798 c 0,33,34
 819 823 819 823 783 834 c 1,35,-1
 661 260 l 1,36,37
 699 274 699 274 738 302 c 2,38,-1
 1147 594 l 1,39,-1
 1116 448 l 2,40,41
 1103 388 1103 388 1069 342 c 0,42,43
 1044 308 1044 308 981 264 c 2,44,-1
 605 -3 l 17,45,-1
 592 -64 l 1,46,-1
 486 -140 l 1,47,-1
 476 -140 l 1,48,-1
 502 -19 l 1,0,1
560 257 m 1,49,-1
 683 835 l 1,50,51
 641 825 641 825 608 798 c 0,52,53
 551 753 551 753 534 673 c 2,54,-1
 482 427 l 2,55,56
 476 401 476 401 476 378 c 0,57,58
 477 329 477 329 503 297 c 0,59,60
 525 268 525 268 560 257 c 1,49,-1
EndSplineSet
Validated: 1
EndChar

StartChar: sterling
Encoding: 163 163 101
Width: 1258
GlyphClass: 2
Flags: W
HStem: 0 210<222 245 565 1061> 480 210<667 926> 1229 301<911.245 1035.97>
DStem2: 200.363 0 520.363 0 0.207912 0.978148<281.223 490.642 771.941 1218.3>
LayerCount: 2
Fore
SplineSet
10 0 m 1,0,-1
 12 10 l 1,1,-1
 222 210 l 1,2,-1
 245 210 l 1,3,-1
 302 480 l 1,4,-1
 112 480 l 1,5,-1
 114 490 l 1,6,-1
 324 690 l 1,7,-1
 347 690 l 1,8,-1
 423 1047 l 2,9,10
 437 1112 437 1112 469 1152 c 128,-1,11
 501 1192 501 1192 557 1232 c 2,12,-1
 911 1485 l 2,13,14
 974 1530 974 1530 1034 1530 c 0,15,16
 1076 1530 1076 1530 1118 1516 c 0,17,18
 1227 1479 1227 1479 1299 1391 c 0,19,20
 1355 1323 1355 1323 1374 1251 c 1,21,-1
 1051 1021 l 1,22,-1
 1041 1021 l 1,23,-1
 1050 1061 l 2,24,25
 1057 1092 1057 1092 1057 1117 c 0,26,27
 1057 1162 1057 1162 1035 1188 c 0,28,29
 1001 1229 1001 1229 932 1229 c 0,30,31
 865 1229 865 1229 815 1188 c 0,32,33
 764 1146 764 1146 746 1061 c 2,34,-1
 667 690 l 1,35,-1
 1138 690 l 1,36,-1
 1136 680 l 1,37,-1
 926 480 l 1,38,-1
 622 480 l 1,39,-1
 565 210 l 1,40,-1
 1273 210 l 1,41,-1
 1271 200 l 1,42,-1
 1061 0 l 1,43,-1
 10 0 l 1,0,-1
EndSplineSet
Validated: 19457
EndChar

StartChar: currency
Encoding: 164 164 102
Width: 1549
GlyphClass: 2
Flags: W
HStem: 179 300<747.237 902.271> 977 300<957.209 1112.26>
VStem: 355 324<547.902 813.559> 1181 323<642.441 908.098>
LayerCount: 2
Fore
SplineSet
1071 1277 m 0,0,1
 1199 1277 1199 1277 1318 1193 c 1,2,-1
 1375 1237 l 1,3,-1
 1715 1186 l 1,4,-1
 1720 1179 l 1,5,-1
 1473 986 l 1,6,7
 1504 895 1504 895 1504 813 c 0,8,9
 1504 769 1504 769 1495 728 c 0,10,11
 1483 674 1483 674 1453 633 c 0,12,13
 1427 598 1427 598 1362 551 c 2,14,-1
 1262 479 l 1,15,-1
 1415 302 l 1,16,-1
 1407 295 l 1,17,-1
 1046 242 l 1,18,-1
 1001 294 l 1,19,-1
 904 225 l 2,20,21
 839 179 839 179 788 179 c 0,22,23
 660 179 660 179 541 263 c 1,24,-1
 484 219 l 1,25,-1
 144 270 l 1,26,-1
 139 277 l 1,27,-1
 386 470 l 1,28,29
 355 561 355 561 355 643 c 0,30,31
 355 687 355 687 364 728 c 0,32,33
 376 782 376 782 406 823 c 0,34,35
 431 858 431 858 497 905 c 2,36,-1
 596 976 l 1,37,-1
 443 1153 l 1,38,-1
 452 1160 l 1,39,-1
 813 1213 l 1,40,-1
 857 1161 l 1,41,-1
 955 1231 l 2,42,43
 1019 1277 1019 1277 1071 1277 c 0,0,1
685 728 m 0,44,45
 679 697 679 697 679 670 c 0,46,47
 679 600 679 600 721 549 c 0,48,49
 779 479 779 479 878 479 c 128,-1,50
 977 479 977 479 1064.5 551 c 128,-1,51
 1152 623 1152 623 1175 728 c 0,52,53
 1181 759 1181 759 1181 786 c 0,54,55
 1181 856 1181 856 1139 907 c 0,56,57
 1081 977 1081 977 982 977 c 128,-1,58
 883 977 883 977 795 905 c 128,-1,59
 707 833 707 833 685 728 c 0,44,45
EndSplineSet
Validated: 1
EndChar

StartChar: yen
Encoding: 165 165 103
Width: 1262
GlyphClass: 2
Flags: W
HStem: -40 21G<468 506.154> 408 160<377 563 939 1104> 658 160<430 495 1110 1157> 1530 20G<571 614.469 1337.15 1380.6>
DStem2: 609 1550 340 1365 0.273924 -0.961751<104.238 672.775> 819 782 1001 658 0.565644 0.824649<0 0.690681 194.29 899.103>
LayerCount: 2
Fore
SplineSet
468 -40 m 1,0,-1
 563 408 l 1,1,-1
 218 408 l 1,2,-1
 220 418 l 1,3,-1
 377 568 l 1,4,-1
 567 568 l 1,5,-1
 541 658 l 1,6,-1
 271 658 l 1,7,-1
 273 668 l 1,8,-1
 430 818 l 1,9,-1
 495 818 l 1,10,-1
 340 1365 l 1,11,-1
 599 1550 l 1,12,-1
 609 1550 l 1,13,-1
 819 782 l 1,14,-1
 1351 1550 l 1,15,-1
 1361 1550 l 1,16,-1
 1509 1399 l 1,17,-1
 1110 818 l 1,18,-1
 1316 818 l 1,19,-1
 1314 808 l 1,20,-1
 1157 658 l 1,21,-1
 1001 658 l 1,22,-1
 939 568 l 1,23,-1
 1263 568 l 1,24,-1
 1261 558 l 1,25,-1
 1104 408 l 1,26,-1
 883 408 l 1,27,-1
 844 220 l 1,28,-1
 478 -40 l 1,29,-1
 468 -40 l 1,0,-1
EndSplineSet
Validated: 1
EndChar

StartChar: brokenbar
Encoding: 166 166 104
Width: 630
GlyphClass: 2
Flags: W
DStem2: 129 -240 398.663 -240 0.207912 0.978148<278.936 759.614 1330.98 1811.66>
LayerCount: 2
Fore
SplineSet
129 -240 m 1,0,-1
 287 503 l 1,1,-1
 593 721 l 1,2,-1
 603 721 l 1,3,-1
 445 -22 l 1,4,-1
 139 -240 l 1,5,-1
 129 -240 l 1,0,-1
822 1750 m 1,6,-1
 664 1007 l 1,7,-1
 358 789 l 1,8,-1
 348 789 l 1,9,-1
 506 1532 l 1,10,-1
 812 1750 l 1,11,-1
 822 1750 l 1,6,-1
EndSplineSet
Validated: 1
EndChar

StartChar: section
Encoding: 167 167 105
Width: 1072
GlyphClass: 2
Flags: W
HStem: -40 251<482.817 630.564> 362 263<540.107 711.958> 886 263<681.042 852.893> 1300 251<762.436 910.183>
VStem: 218 298<565 745.243> 379 286<1079.5 1254.15> 728 286<256.849 431.5> 877 298<765.757 946>
LayerCount: 2
Fore
SplineSet
510 -40 m 0,0,1
 374 -40 374 -40 284 58 c 0,2,3
 241 105 241 105 210 170 c 1,4,-1
 444 336 l 1,5,-1
 454 336 l 1,6,7
 454 278 454 278 488 242 c 0,8,9
 517 211 517 211 585 211 c 0,10,11
 640 211 640 211 679.5 234.5 c 128,-1,12
 719 258 719 258 726 290 c 0,13,14
 728 299 728 299 728 307 c 0,15,16
 728 327 728 327 713 338 c 0,17,18
 680 362 680 362 605 362 c 0,19,20
 391 362 391 362 300 441 c 0,21,22
 218 511 218 511 218 619 c 0,23,24
 218 641 218 641 222 667 c 0,25,26
 228 706 228 706 259 741 c 0,27,28
 289 775 289 775 355 822 c 2,29,-1
 438 881 l 1,30,-1
 641 809 l 1,31,32
 609 800 609 800 579 780 c 0,33,34
 529 746 529 746 518 704 c 0,35,36
 516 696 516 696 516 689 c 0,37,38
 516 663 516 663 539 648 c 0,39,40
 574 625 574 625 663 625 c 0,41,42
 832 625 832 625 922 556 c 0,43,44
 1014 484 1014 484 1014 379 c 0,45,46
 1014 364 1014 364 1012 348 c 0,47,48
 1003 269 1003 269 903 198 c 2,49,-1
 633 6 l 2,50,51
 568 -40 568 -40 510 -40 c 0,0,1
883 1551 m 0,52,53
 1019 1551 1019 1551 1109 1453 c 0,54,55
 1152 1406 1152 1406 1183 1341 c 1,56,-1
 949 1175 l 1,57,-1
 939 1175 l 1,58,59
 939 1233 939 1233 905 1269 c 0,60,61
 876 1300 876 1300 808 1300 c 0,62,63
 753 1300 753 1300 713.5 1276.5 c 128,-1,64
 674 1253 674 1253 667 1221 c 0,65,66
 665 1212 665 1212 665 1204 c 0,67,68
 665 1184 665 1184 680 1173 c 0,69,70
 713 1149 713 1149 788 1149 c 0,71,72
 1002 1149 1002 1149 1093 1070 c 0,73,74
 1175 1000 1175 1000 1175 892 c 0,75,76
 1175 870 1175 870 1171 844 c 0,77,78
 1165 805 1165 805 1134 770 c 0,79,80
 1104 736 1104 736 1038 689 c 2,81,-1
 955 630 l 1,82,-1
 752 702 l 1,83,84
 784 711 784 711 814 731 c 0,85,86
 864 765 864 765 875 807 c 0,87,88
 877 815 877 815 877 822 c 0,89,90
 877 848 877 848 854 863 c 0,91,92
 819 886 819 886 730 886 c 0,93,94
 561 886 561 886 471 955 c 0,95,96
 379 1027 379 1027 379 1132 c 0,97,98
 379 1147 379 1147 381 1163 c 0,99,100
 390 1242 390 1242 490 1313 c 2,101,-1
 760 1505 l 2,102,103
 825 1551 825 1551 883 1551 c 0,52,53
EndSplineSet
Validated: 1
EndChar

StartChar: dieresis
Encoding: 168 168 106
Width: 739
GlyphClass: 2
Flags: W
HStem: 1190 336<438.781 509.219 806.781 877.219>
VStem: 305 338<1298.39 1417.61> 673 338<1298.39 1417.61>
LayerCount: 2
Fore
SplineSet
894 1526 m 0,0,1
 914 1526 914 1526 931 1518 c 0,2,3
 971 1501 971 1501 991 1463 c 0,4,5
 1011 1427 1011 1427 1011 1390 c 0,6,7
 1011 1375 1011 1375 1008 1360 c 0,8,9
 999 1320 999 1320 963 1296 c 2,10,-1
 841 1209 l 2,11,12
 815 1190 815 1190 791 1190 c 0,13,14
 771 1190 771 1190 754 1198 c 0,15,16
 715 1214 715 1214 693 1253 c 0,17,18
 673 1289 673 1289 673 1326 c 0,19,20
 673 1341 673 1341 676 1356 c 0,21,22
 684 1395 684 1395 721 1420 c 2,23,-1
 843 1507 l 2,24,25
 869 1526 869 1526 894 1526 c 0,0,1
526 1526 m 0,26,27
 546 1526 546 1526 563 1518 c 0,28,29
 603 1501 603 1501 623 1463 c 0,30,31
 643 1427 643 1427 643 1390 c 0,32,33
 643 1375 643 1375 640 1360 c 0,34,35
 631 1320 631 1320 595 1296 c 2,36,-1
 473 1209 l 2,37,38
 447 1190 447 1190 423 1190 c 0,39,40
 403 1190 403 1190 386 1198 c 0,41,42
 347 1214 347 1214 325 1253 c 0,43,44
 305 1289 305 1289 305 1326 c 0,45,46
 305 1341 305 1341 308 1356 c 0,47,48
 316 1395 316 1395 353 1420 c 2,49,-1
 475 1507 l 2,50,51
 501 1526 501 1526 526 1526 c 0,26,27
EndSplineSet
Validated: 1
EndChar

StartChar: copyright
Encoding: 169 169 107
Width: 1278
GlyphClass: 2
Flags: W
HStem: 386 77<554.878 929.312> 542 188<713.103 828.58> 1166 190<832.164 944.696> 1453 77<755.688 1130.37>
VStem: 273 82<659.426 1055.31> 497 207<738.579 1015.42> 1330 82<860.688 1256.57>
DStem2: 408.35 386 611.35 386 0.207912 0.978148<476.571 797.597> 1135 956 804 569 0.815553 0.578683<-418.589 -85.5526>
LayerCount: 2
Fore
SplineSet
948 1530 m 0,0,1
 1190 1530 1190 1530 1317 1368 c 0,2,3
 1412 1247 1412 1247 1412 1097 c 0,4,5
 1412 1019 1412 1019 1403 964 c 0,6,7
 1363 718 1363 718 1164 553 c 0,8,9
 962 386 962 386 737 386 c 0,10,11
 495 386 495 386 368 548 c 0,12,13
 273 669 273 669 273 819 c 0,14,15
 273 897 273 897 282 952 c 0,16,17
 322 1199 322 1199 521 1363 c 0,18,19
 723 1530 723 1530 948 1530 c 0,0,1
947 1453 m 0,20,21
 757 1453 757 1453 585 1312 c 0,22,23
 407 1166 407 1166 366 953 c 0,24,25
 355 896 355 896 355 849 c 0,26,27
 355 701 355 701 431 602 c 0,28,29
 538 463 538 463 738 463 c 0,30,31
 928 463 928 463 1100 604 c 0,32,33
 1278 750 1278 750 1319 963 c 0,34,35
 1330 1020 1330 1020 1330 1067 c 0,36,37
 1330 1213 1330 1213 1254 1314 c 0,38,39
 1148 1453 1148 1453 947 1453 c 0,20,21
930 1356 m 0,40,41
 1055 1356 1055 1356 1117 1259 c 0,42,43
 1153 1203 1153 1203 1165 1129 c 1,44,-1
 946 973 l 1,45,-1
 936 973 l 1,46,-1
 955 1062 l 2,47,48
 958 1076 958 1076 958 1088 c 0,49,50
 958 1117 958 1117 941 1137 c 0,51,52
 917 1166 917 1166 876 1166 c 0,53,54
 836 1166 836 1166 800 1136 c 0,55,56
 765 1106 765 1106 755 1062 c 2,57,-1
 707 836 l 2,58,59
 704 822 704 822 704 810 c 0,60,61
 704 781 704 781 721 761 c 0,62,63
 746 730 746 730 781 730 c 128,-1,64
 816 730 816 730 863 763 c 2,65,-1
 1135 956 l 1,66,-1
 1111 842 l 2,67,68
 1098 778 1098 778 1033 732 c 2,69,-1
 804 569 l 2,70,71
 766 542 766 542 731 542 c 0,72,73
 622 542 622 542 546 633 c 0,74,75
 497 691 497 691 497 771 c 0,76,77
 497 802 497 802 504 836 c 2,78,-1
 550 1056 l 2,79,80
 563 1119 563 1119 629 1166 c 2,81,-1
 857 1329 l 2,82,83
 895 1356 895 1356 930 1356 c 0,40,41
EndSplineSet
Validated: 1
EndChar

StartChar: ordfeminine
Encoding: 170 170 108
Width: 735
VWidth: 1294
GlyphClass: 2
Flags: W
HStem: 823 180<375 748> 1040 144<570.286 669.364> 1316 136<580.776 699.983> 1490 160<616.231 736.24>
VStem: 396 165<1189.77 1303.74> 738 176<1427.57 1488.47>
LayerCount: 2
Fore
SplineSet
594 1296 m 0,0,1
 567 1274 567 1274 562 1248 c 0,2,3
 561 1243 561 1243 561 1236 c 0,4,5
 561 1217 561 1217 576 1202 c 0,6,7
 594 1184 594 1184 622 1184 c 128,-1,8
 650 1184 650 1184 675 1205 c 0,9,10
 702 1228 702 1228 706 1252 c 0,11,12
 707 1259 707 1259 707 1265 c 0,13,14
 707 1283 707 1283 694 1297 c 0,15,16
 677 1316 677 1316 648 1316 c 128,-1,17
 619 1316 619 1316 594 1296 c 0,0,1
725 1650 m 0,18,19
 746 1650 746 1650 764 1645 c 0,20,21
 823 1627 823 1627 864 1582 c 0,22,23
 914 1528 914 1528 914 1459 c 0,24,25
 914 1437 914 1437 909 1414 c 2,26,-1
 854 1158 l 1,27,-1
 652 1030 l 1,28,-1
 642 1030 l 1,29,-1
 650 1070 l 1,30,31
 609 1040 609 1040 575 1040 c 0,32,33
 486 1040 486 1040 431 1101 c 0,34,35
 396 1141 396 1141 396 1193 c 0,36,37
 396 1214 396 1214 402 1238 c 0,38,39
 414 1289 414 1289 461 1322 c 2,40,-1
 621 1436 l 2,41,42
 644 1452 644 1452 676 1452 c 0,43,44
 706 1452 706 1452 738 1427 c 1,45,46
 738 1490 738 1490 678 1490 c 0,47,48
 637 1490 637 1490 590 1456 c 1,49,-1
 529 1543 l 1,50,-1
 641 1623 l 2,51,52
 679 1650 679 1650 725 1650 c 0,18,19
375 1003 m 1,53,-1
 928 1003 l 1,54,-1
 926 993 l 1,55,-1
 748 823 l 1,56,-1
 195 823 l 1,57,-1
 197 833 l 1,58,-1
 375 1003 l 1,53,-1
EndSplineSet
Validated: 1
EndChar

StartChar: guillemotleft
Encoding: 171 171 109
Width: 1202
GlyphClass: 2
Flags: W
DStem2: 508 771 240 754 0.355538 -0.934662<0 365.295> 240 754 508 771 0.648023 0.761621<186.618 721.996> 973 771 705 754 0.355538 -0.934662<0 365.295> 705 754 973 771 0.648023 0.761621<186.618 721.996>
LayerCount: 2
Fore
SplineSet
1207 1344 m 1,0,-1
 1217 1344 l 1,1,-1
 1322 1177 l 1,2,-1
 973 771 l 1,3,-1
 1104 430 l 1,4,-1
 909 244 l 1,5,-1
 899 244 l 1,6,-1
 705 754 l 1,7,-1
 1207 1344 l 1,0,-1
742 1344 m 1,8,-1
 752 1344 l 1,9,-1
 857 1177 l 1,10,-1
 508 771 l 1,11,-1
 639 430 l 1,12,-1
 444 244 l 1,13,-1
 434 244 l 1,14,-1
 240 754 l 1,15,-1
 742 1344 l 1,8,-1
EndSplineSet
Validated: 1
EndChar

StartChar: logicalnot
Encoding: 172 172 110
Width: 1194
GlyphClass: 2
Flags: W
HStem: 630 250<468 783>
VStem: 472 272<341 613>
LayerCount: 2
Fore
SplineSet
468 880 m 1,0,-1
 1301 880 l 1,1,-1
 1299 870 l 1,2,-1
 744 341 l 1,3,-1
 472 341 l 1,4,-1
 783 630 l 1,5,-1
 214 630 l 1,6,-1
 216 640 l 1,7,-1
 468 880 l 1,0,-1
EndSplineSet
Validated: 1
EndChar

StartChar: uni00AD
Encoding: 173 173 111
Width: 1194
GlyphClass: 2
Flags: W
HStem: 630 250<468 1047>
LayerCount: 2
Fore
SplineSet
468 880 m 1,0,-1
 1301 880 l 1,1,-1
 1299 870 l 1,2,-1
 1047 630 l 1,3,-1
 214 630 l 1,4,-1
 216 640 l 1,5,-1
 468 880 l 1,0,-1
EndSplineSet
Validated: 1
EndChar

StartChar: registered
Encoding: 174 174 112
Width: 1278
GlyphClass: 2
Flags: W
HStem: 386 77<554.878 929.312> 1453 77<755.688 1130.37>
VStem: 273 82<659.426 1055.31> 973 205<994.894 1183.17> 1330 82<860.688 1256.57>
DStem2: 441.865 386 640.886 386 0.207912 0.978148<370.504 407.841 522.901 839.264>
LayerCount: 2
Fore
SplineSet
948 1530 m 0,0,1
 1190 1530 1190 1530 1317 1368 c 0,2,3
 1412 1247 1412 1247 1412 1097 c 0,4,5
 1412 1019 1412 1019 1403 964 c 0,6,7
 1363 718 1363 718 1164 553 c 0,8,9
 962 386 962 386 737 386 c 0,10,11
 495 386 495 386 368 548 c 0,12,13
 273 669 273 669 273 819 c 0,14,15
 273 897 273 897 282 952 c 0,16,17
 322 1199 322 1199 521 1363 c 0,18,19
 723 1530 723 1530 948 1530 c 0,0,1
947 1453 m 0,20,21
 757 1453 757 1453 585 1312 c 0,22,23
 407 1166 407 1166 366 953 c 0,24,25
 355 896 355 896 355 849 c 0,26,27
 355 701 355 701 431 602 c 0,28,29
 538 463 538 463 738 463 c 0,30,31
 928 463 928 463 1100 604 c 0,32,33
 1278 750 1278 750 1319 963 c 0,34,35
 1330 1020 1330 1020 1330 1067 c 0,36,37
 1330 1213 1330 1213 1254 1314 c 0,38,39
 1148 1453 1148 1453 947 1453 c 0,20,21
965 1359 m 1,40,41
 1059 1337 1059 1337 1119 1274 c 0,42,43
 1178 1211 1178 1211 1178 1124 c 0,44,45
 1178 1105 1178 1105 1175 1084 c 0,46,47
 1155 941 1155 941 1007 842 c 1,48,-1
 1098 646 l 1,49,-1
 943 549 l 1,50,-1
 933 549 l 1,51,-1
 835 757 l 1,52,53
 782 740 782 740 713 723 c 1,54,-1
 709 708 l 1,55,-1
 488 556 l 1,56,-1
 478 556 l 1,57,-1
 616 1207 l 1,58,-1
 840 1367 l 1,59,-1
 850 1367 l 1,60,-1
 827 1261 l 1,61,-1
 965 1359 l 1,40,41
818 1218 m 1,62,-1
 741 857 l 1,63,64
 762 865 762 865 781 874 c 1,65,-1
 765 908 l 1,66,-1
 921 1005 l 1,67,-1
 931 1005 l 1,68,-1
 937 992 l 1,69,70
 961 1026 961 1026 969 1065 c 0,71,72
 973 1083 973 1083 973 1098 c 0,73,74
 973 1201 973 1201 818 1218 c 1,62,-1
EndSplineSet
Validated: 1
EndChar

StartChar: macron
Encoding: 175 175 113
Width: 735
GlyphClass: 2
Flags: W
HStem: 1272 180<471 843>
LayerCount: 2
Fore
SplineSet
471 1452 m 1,0,-1
 1024 1452 l 1,1,-1
 1022 1442 l 1,2,-1
 843 1272 l 1,3,-1
 290 1272 l 1,4,-1
 292 1282 l 1,5,-1
 471 1452 l 1,0,-1
EndSplineSet
Validated: 1
EndChar

StartChar: degree
Encoding: 176 176 114
Width: 678
GlyphClass: 2
Flags: W
HStem: 936 177<487.079 620.492> 1374 176<585.389 713.684>
VStem: 279 192<1148.72 1313.31> 732 195<1172.1 1347.95>
LayerCount: 2
Fore
SplineSet
687 1550 m 0,0,1
 718 1550 718 1550 746 1540 c 0,2,3
 816 1518 816 1518 866 1459 c 0,4,5
 927 1387 927 1387 927 1293 c 0,6,7
 927 1273 927 1273 924 1252 c 0,8,9
 919 1214 919 1214 894 1185 c 0,10,11
 872 1159 872 1159 834 1132 c 2,12,-1
 603 968 l 2,13,14
 558 936 558 936 519 936 c 0,15,16
 488 936 488 936 460 946 c 0,17,18
 390 968 390 968 340 1027 c 0,19,20
 279 1099 279 1099 279 1193 c 0,21,22
 279 1213 279 1213 282 1234 c 0,23,24
 287 1272 287 1272 312 1301 c 0,25,26
 333 1326 333 1326 372 1354 c 2,27,-1
 603 1518 l 2,28,29
 648 1550 648 1550 687 1550 c 0,0,1
629 1374 m 0,30,31
 579 1374 579 1374 532 1337 c 0,32,33
 488 1303 488 1303 475 1244 c 0,34,35
 471 1224 471 1224 471 1207 c 0,36,37
 471 1171 471 1171 490 1148 c 0,38,39
 519 1113 519 1113 575 1113 c 128,-1,40
 631 1113 631 1113 674 1149 c 0,41,42
 715 1182 715 1182 728 1242 c 0,43,44
 732 1260 732 1260 732 1276 c 0,45,46
 732 1313 732 1313 711 1339 c 0,47,48
 683 1374 683 1374 629 1374 c 0,30,31
EndSplineSet
Validated: 1
EndChar

StartChar: plusminus
Encoding: 177 177 115
Width: 1194
GlyphClass: 2
Flags: W
HStem: 157 250<368 946> 826 250<510 648 951 1089>
LayerCount: 2
Fore
SplineSet
368 407 m 1,0,-1
 1201 407 l 1,1,-1
 1198 397 l 1,2,-1
 946 157 l 1,3,-1
 113 157 l 1,4,-1
 115 167 l 1,5,-1
 368 407 l 1,0,-1
1024 1468 m 1,6,-1
 1034 1468 l 1,7,-1
 951 1076 l 1,8,-1
 1343 1076 l 1,9,-1
 1341 1066 l 1,10,-1
 1089 826 l 1,11,-1
 898 826 l 1,12,-1
 857 635 l 1,13,-1
 574 434 l 1,14,-1
 564 434 l 1,15,-1
 648 826 l 1,16,-1
 256 826 l 1,17,-1
 258 836 l 1,18,-1
 510 1076 l 1,19,-1
 701 1076 l 1,20,-1
 741 1267 l 1,21,-1
 1024 1468 l 1,6,-1
EndSplineSet
Validated: 1
EndChar

StartChar: uni00B2
Encoding: 178 178 116
Width: 650
VWidth: 1406
GlyphClass: 2
Flags: W
HStem: 864 150<497 697> 1463 187<600.209 712.885>
VStem: 323 201<1279.5 1438.64> 725 200<1306.45 1439.5>
LayerCount: 2
Fore
SplineSet
697 1650 m 0,0,1
 814 1650 814 1650 884 1550 c 0,2,3
 925 1492 925 1492 925 1415 c 0,4,5
 925 1394 925 1394 922 1373 c 0,6,7
 899 1213 899 1213 693 1125 c 0,8,9
 580 1076 580 1076 497 1014 c 1,10,-1
 846 1014 l 1,11,-1
 843 1004 l 1,12,-1
 697 864 l 1,13,-1
 204 864 l 1,14,-1
 206 874 l 1,15,16
 403 1158 403 1158 623 1267 c 0,17,18
 708 1309 708 1309 722 1372 c 0,19,20
 725 1386 725 1386 725 1397 c 0,21,22
 724 1424 724 1424 708 1440 c 0,23,24
 684 1462 684 1462 643 1463 c 0,25,26
 600 1463 600 1463 569 1439 c 0,27,28
 537 1414 537 1414 527 1371 c 0,29,30
 524 1359 524 1359 524 1347 c 0,31,32
 524 1321 524 1321 539 1300 c 1,33,-1
 387 1192 l 1,34,-1
 377 1192 l 1,35,36
 323 1263 323 1263 323 1333 c 0,37,38
 323 1352 323 1352 327 1371 c 0,39,40
 338 1422 338 1422 402 1467 c 2,41,-1
 624 1622 l 2,42,43
 664 1650 664 1650 697 1650 c 0,0,1
EndSplineSet
Validated: 1
EndChar

StartChar: uni00B3
Encoding: 179 179 117
Width: 612
VWidth: 1396
GlyphClass: 2
Flags: W
HStem: 834 191<445.309 553.412> 1490 150<518 611>
VStem: 632 204<1053.08 1200.81>
LayerCount: 2
Fore
SplineSet
518 1640 m 1,0,-1
 917 1640 l 1,1,-1
 914 1630 l 1,2,-1
 704 1361 l 1,3,4
 781 1335 781 1335 815 1266 c 0,5,6
 836 1224 836 1224 836 1175 c 0,7,8
 836 1148 836 1148 830 1120 c 0,9,10
 819 1067 819 1067 754 1021 c 2,11,-1
 531 862 l 2,12,13
 492 834 492 834 459 834 c 0,14,15
 348 834 348 834 276 941 c 0,16,17
 249 981 249 981 240 1035 c 1,18,-1
 435 1174 l 1,19,-1
 445 1174 l 1,20,-1
 435 1129 l 2,21,22
 432 1115 432 1115 432 1103 c 0,23,24
 432 1075 432 1075 448 1054 c 0,25,26
 471 1025 471 1025 513 1025 c 0,27,28
 557 1025 557 1025 588 1051 c 0,29,30
 621 1078 621 1078 630 1122 c 0,31,32
 632 1134 632 1134 632 1144 c 0,33,34
 632 1171 632 1171 618 1190 c 0,35,36
 598 1217 598 1217 561 1217 c 128,-1,37
 524 1217 524 1217 479 1189 c 1,38,-1
 424 1247 l 1,39,-1
 611 1490 l 1,40,-1
 368 1490 l 1,41,-1
 370 1500 l 1,42,-1
 518 1640 l 1,0,-1
EndSplineSet
Validated: 1
EndChar

StartChar: acute
Encoding: 180 180 118
Width: 462
GlyphClass: 2
Flags: W
HStem: 1151 419
VStem: 286 454
LayerCount: 2
Fore
SplineSet
565 1570 m 1,0,1
 575 1570 l 1,2,-1
 740 1401 l 1,3,4
 520 1353 520 1353 397 1151 c 1,5,-1
 387 1151 l 1,6,-1
 286 1254 l 1,7,8
 347 1437 347 1437 565 1570 c 1,0,1
EndSplineSet
Validated: 1
EndChar

StartChar: uni00B5
Encoding: 181 181 119
Width: 1170
GlyphClass: 2
Flags: W
HStem: -450 21G<34 72.0851> -40 21G<741 779.085> -20 280<532.403 673.765> 1120 20G<623.915 662 1243.91 1282>
DStem2: 34 -450 324.049 -450 0.207912 0.978148<300.555 545.914 909.485 1385.27> 653.986 -450 944.035 -450 0.207912 0.978148<760.816 1385.27>
LayerCount: 2
Fore
SplineSet
751 -40 m 1,0,-1
 741 -40 l 1,1,-1
 770 93 l 1,2,-1
 674 25 l 2,3,4
 610 -20 610 -20 552 -20 c 0,5,6
 501 -20 501 -20 468 -3 c 0,7,8
 447 8 447 8 425 25 c 1,9,-1
 374 -215 l 1,10,-1
 44 -450 l 1,11,-1
 34 -450 l 1,12,-1
 322 905 l 1,13,-1
 652 1140 l 1,14,-1
 662 1140 l 1,15,-1
 511 427 l 2,16,17
 505 401 505 401 505 379 c 0,18,19
 505 331 505 331 533 302 c 0,20,21
 573 260 573 260 643 260 c 0,22,23
 715 260 715 260 767 302 c 0,24,25
 824 347 824 347 841 427 c 2,26,-1
 942 905 l 1,27,-1
 1272 1140 l 1,28,-1
 1282 1140 l 1,29,-1
 1081 195 l 1,30,-1
 751 -40 l 1,0,-1
EndSplineSet
Validated: 1
EndChar

StartChar: paragraph
Encoding: 182 182 120
Width: 1140
GlyphClass: 2
Flags: W
HStem: -40 21G<681 719.4> 1510 20G<869 920>
DStem2: 681 -40 811.744 -40 0.207912 0.978148<129.417 679.013> 875.266 -40 1001.74 -40 0.207912 0.978148<292.103 1205.27>
LayerCount: 2
Fore
SplineSet
681 -40 m 1,0,-1
 823 624 l 1,1,-1
 751 571 l 2,2,3
 690 526 690 526 628 526 c 0,4,5
 586 526 586 526 544 540 c 0,6,7
 436 577 436 577 363 665 c 0,8,9
 278 768 278 768 278 890 c 0,10,11
 278 929 278 929 287 973 c 2,12,-1
 304 1056 l 2,13,14
 326 1162 326 1162 441 1245 c 2,15,-1
 776 1485 l 2,16,17
 839 1530 839 1530 899 1530 c 0,18,19
 941 1530 941 1530 983 1516 c 0,20,21
 1092 1479 1092 1479 1164 1391 c 0,22,23
 1249 1289 1249 1289 1249 1166 c 0,24,25
 1249 1124 1249 1124 1240 1082 c 2,26,-1
 1057 220 l 1,27,-1
 908 114 l 1,28,-1
 1126 1140 l 1,29,-1
 1051 1086 l 1,30,-1
 833 60 l 1,31,-1
 691 -40 l 1,32,-1
 681 -40 l 1,0,-1
EndSplineSet
Validated: 1
EndChar

StartChar: periodcentered
Encoding: 183 183 121
Width: 407
GlyphClass: 2
Flags: W
HStem: 627 373<345.891 407.641>
VStem: 189 375<751.653 876.618>
LayerCount: 2
Fore
SplineSet
435 1000 m 0,0,1
 454 1000 454 1000 475 991 c 0,2,3
 520 972 520 972 542 930 c 0,4,5
 564 891 564 891 564 850 c 0,6,7
 564 833 564 833 560 816 c 0,8,9
 551 773 551 773 511 745 c 2,10,-1
 376 648 l 2,11,12
 347 627 347 627 319 627 c 0,13,14
 300 627 300 627 278 636 c 0,15,16
 235 654 235 654 211 697 c 0,17,18
 189 737 189 737 189 779 c 0,19,20
 189 795 189 795 192 811 c 0,21,22
 201 854 201 854 241 882 c 2,23,-1
 378 979 l 2,24,25
 408 1000 408 1000 435 1000 c 0,0,1
EndSplineSet
Validated: 1
EndChar

StartChar: cedilla
Encoding: 184 184 122
Width: 493
GlyphClass: 2
Flags: W
HStem: -470 470
VStem: 190 237<-255.91 -125.656>
LayerCount: 2
Fore
SplineSet
157 0 m 1,0,-1
 336 0 l 1,1,-1
 326 -45 l 1,2,3
 427 -92 427 -92 427 -196 c 0,4,5
 427 -210 427 -210 425 -226 c 0,6,7
 393 -470 393 -470 -95 -470 c 1,8,-1
 -93 -460 l 1,9,-1
 105 -271 l 1,10,11
 175 -258 175 -258 188 -196 c 0,12,13
 190 -188 190 -188 190 -180 c 0,14,15
 190 -137 190 -137 131 -120 c 1,16,-1
 157 0 l 1,0,-1
EndSplineSet
Validated: 1
EndChar

StartChar: uni00B9
Encoding: 185 185 123
Width: 369
VWidth: 1401
GlyphClass: 2
Flags: W
VStem: 282 410
DStem2: 318 826 514.629 826 0.207912 0.978148<201.389 514.047>
LayerCount: 2
Fore
SplineSet
682 1660 m 1,0,-1
 692 1660 l 1,1,-1
 548 983 l 1,2,-1
 328 826 l 1,3,-1
 318 826 l 1,4,-1
 424 1329 l 1,5,-1
 282 1231 l 1,6,-1
 318 1401 l 1,7,-1
 682 1660 l 1,0,-1
EndSplineSet
Validated: 1
EndChar

StartChar: ordmasculine
Encoding: 186 186 124
Width: 735
VWidth: 1299
GlyphClass: 2
Flags: W
HStem: 823 180<375 748> 1038 181<555 672.31> 1469 181<633.744 748.5>
VStem: 380 194<1219.82 1432.42> 731 193<1252.62 1467.77>
LayerCount: 2
Fore
SplineSet
375 1003 m 1,0,-1
 928 1003 l 1,1,-1
 926 993 l 1,2,-1
 748 823 l 1,3,-1
 195 823 l 1,4,-1
 197 833 l 1,5,-1
 375 1003 l 1,0,-1
739 1650 m 0,6,7
 758 1650 758 1650 779 1644 c 0,8,9
 837 1627 837 1627 878 1578 c 0,10,11
 924 1523 924 1523 924 1454 c 0,12,13
 924 1431 924 1431 919 1406 c 2,14,-1
 895 1293 l 2,15,16
 882 1233 882 1233 816 1186 c 2,17,-1
 649 1066 l 2,18,19
 610 1038 610 1038 566 1038 c 0,20,21
 544 1038 544 1038 525 1044 c 0,22,23
 467 1062 467 1062 427 1110 c 0,24,25
 380 1165 380 1165 380 1233 c 0,26,27
 380 1257 380 1257 386 1282 c 2,28,-1
 411 1395 l 2,29,30
 424 1456 424 1456 489 1502 c 2,31,-1
 657 1622 l 2,32,33
 696 1650 696 1650 739 1650 c 0,6,7
678 1469 m 0,34,35
 618 1468 618 1468 603 1406 c 2,36,-1
 576 1282 l 2,37,38
 574 1271 574 1271 574 1263 c 0,39,40
 574 1219 574 1219 627 1219 c 0,41,42
 687 1220 687 1220 702 1282 c 2,43,-1
 729 1406 l 2,44,45
 731 1417 731 1417 731 1425 c 0,46,47
 731 1469 731 1469 678 1469 c 0,34,35
EndSplineSet
Validated: 1
EndChar

StartChar: guillemotright
Encoding: 187 187 125
Width: 1202
GlyphClass: 2
Flags: W
DStem2: 217 411 333 244 0.647273 0.762258<0 535.375> 641 1344 436 1158 0.353935 -0.93527<101.403 466.342> 682 411 798 244 0.647273 0.762258<0 535.375> 1106 1344 901 1158 0.353935 -0.93527<101.403 466.342>
LayerCount: 2
Fore
SplineSet
631 1344 m 1,0,-1
 641 1344 l 1,1,-1
 834 834 l 1,2,-1
 333 244 l 1,3,-1
 323 244 l 1,4,-1
 217 411 l 1,5,-1
 566 817 l 1,6,-1
 436 1158 l 1,7,-1
 631 1344 l 1,0,-1
1096 1344 m 1,8,-1
 1106 1344 l 1,9,-1
 1299 834 l 1,10,-1
 798 244 l 1,11,-1
 788 244 l 1,12,-1
 682 411 l 1,13,-1
 1031 817 l 1,14,-1
 901 1158 l 1,15,-1
 1096 1344 l 1,8,-1
EndSplineSet
Validated: 1
EndChar

StartChar: onequarter
Encoding: 188 188 126
Width: 1474
VWidth: 1401
GlyphClass: 2
Flags: W
HStem: -40 21G<168.47 212.035 1105 1143.13> 1121 21G<360.235 385.184> 1530 20G<727.892 766 1559.88 1604>
DStem2: 77 126 191 -40 0.724711 0.689053<0 2043.55> 231.307 -40 428.936 -40 0.207912 0.978148<974.486 1287.14>
LayerCount: 2
Fore
SplineSet
756 1550 m 1,0,-1
 766 1550 l 1,1,-1
 623 873 l 1,2,-1
 402 716 l 1,3,-1
 392 716 l 1,4,-1
 499 1219 l 1,5,-1
 356 1121 l 1,6,-1
 392 1291 l 1,7,-1
 756 1550 l 1,0,-1
191 -40 m 1,8,-1
 181 -40 l 1,9,-1
 77 126 l 1,10,-1
 1581 1550 l 1,11,-1
 1591 1550 l 1,12,-1
 1695 1390 l 1,13,-1
 191 -40 l 1,8,-1
1105 -13 m 1,14,-1
 1145 173 l 1,15,-1
 778 173 l 1,16,-1
 780 183 l 1,17,18
 1079 356 1079 356 1135 619 c 1,19,-1
 1419 821 l 1,20,-1
 1429 821 l 1,21,22
 1360 497 1360 497 1140 323 c 1,23,-1
 1177 323 l 1,24,-1
 1180 341 l 1,25,-1
 1398 496 l 1,26,-1
 1408 496 l 1,27,-1
 1372 323 l 1,28,-1
 1493 323 l 1,29,-1
 1491 313 l 1,30,-1
 1343 173 l 1,31,-1
 1340 173 l 1,32,-1
 1333 142 l 1,33,-1
 1115 -13 l 1,34,-1
 1105 -13 l 1,14,-1
EndSplineSet
Validated: 19457
EndChar

StartChar: onehalf
Encoding: 189 189 127
Width: 1602
VWidth: 1401
GlyphClass: 2
Flags: W
HStem: -40 21G<168.47 212.035> 0 150<1185 1385> 599 187<1288.21 1400.89> 1121 21G<360.235 385.184> 1530 20G<727.892 766 1559.88 1604>
VStem: 1011 201<415.5 574.642> 1413 200<442.445 575.497>
DStem2: 77 126 191 -40 0.724711 0.689053<0 2043.55> 231.307 -40 428.936 -40 0.207912 0.978148<974.486 1287.14>
LayerCount: 2
Fore
SplineSet
1385 786 m 0,0,1
 1502 786 1502 786 1572 686 c 0,2,3
 1613 628 1613 628 1613 551 c 0,4,5
 1613 530 1613 530 1610 509 c 0,6,7
 1587 349 1587 349 1381 261 c 0,8,9
 1268 212 1268 212 1185 150 c 1,10,-1
 1534 150 l 1,11,-1
 1531 140 l 1,12,-1
 1385 0 l 1,13,-1
 892 0 l 1,14,-1
 894 10 l 1,15,16
 1091 294 1091 294 1311 403 c 0,17,18
 1396 445 1396 445 1410 508 c 0,19,20
 1413 522 1413 522 1413 533 c 0,21,22
 1412 560 1412 560 1396 576 c 0,23,24
 1372 598 1372 598 1331 599 c 0,25,26
 1288 599 1288 599 1257 575 c 0,27,28
 1225 550 1225 550 1215 507 c 0,29,30
 1212 495 1212 495 1212 483 c 0,31,32
 1212 457 1212 457 1227 436 c 1,33,-1
 1075 328 l 1,34,-1
 1065 328 l 1,35,36
 1011 399 1011 399 1011 469 c 0,37,38
 1011 488 1011 488 1015 507 c 0,39,40
 1026 558 1026 558 1090 603 c 2,41,-1
 1312 758 l 2,42,43
 1352 786 1352 786 1385 786 c 0,0,1
756 1550 m 1,44,-1
 766 1550 l 1,45,-1
 623 873 l 1,46,-1
 402 716 l 1,47,-1
 392 716 l 1,48,-1
 499 1219 l 1,49,-1
 356 1121 l 1,50,-1
 392 1291 l 1,51,-1
 756 1550 l 1,44,-1
191 -40 m 1,52,-1
 181 -40 l 1,53,-1
 77 126 l 1,54,-1
 1581 1550 l 1,55,-1
 1591 1550 l 1,56,-1
 1695 1390 l 1,57,-1
 191 -40 l 1,52,-1
EndSplineSet
Validated: 19457
EndChar

StartChar: threequarters
Encoding: 190 190 128
Width: 1520
VWidth: 1401
GlyphClass: 2
Flags: W
HStem: -40 21G<214.47 258.035 1151 1189.13> 730 191<453.309 561.412> 1386 150<526 619>
VStem: 640 204<949.078 1096.81>
DStem2: 123 126 237 -40 0.724711 0.689053<0 2043.55>
LayerCount: 2
Fore
SplineSet
526 1536 m 1,0,-1
 925 1536 l 1,1,-1
 922 1526 l 1,2,-1
 712 1257 l 1,3,4
 789 1231 789 1231 823 1162 c 0,5,6
 844 1120 844 1120 844 1071 c 0,7,8
 844 1044 844 1044 838 1016 c 0,9,10
 827 963 827 963 762 917 c 2,11,-1
 539 758 l 2,12,13
 500 730 500 730 467 730 c 0,14,15
 356 730 356 730 284 837 c 0,16,17
 257 877 257 877 248 931 c 1,18,-1
 443 1070 l 1,19,-1
 453 1070 l 1,20,-1
 443 1025 l 2,21,22
 440 1011 440 1011 440 999 c 0,23,24
 440 971 440 971 456 950 c 0,25,26
 479 921 479 921 521 921 c 0,27,28
 565 921 565 921 596 947 c 0,29,30
 629 974 629 974 638 1018 c 0,31,32
 640 1030 640 1030 640 1040 c 0,33,34
 640 1067 640 1067 626 1086 c 0,35,36
 606 1113 606 1113 569 1113 c 128,-1,37
 532 1113 532 1113 487 1085 c 1,38,-1
 432 1143 l 1,39,-1
 619 1386 l 1,40,-1
 376 1386 l 1,41,-1
 378 1396 l 1,42,-1
 526 1536 l 1,0,-1
237 -40 m 1,43,-1
 227 -40 l 1,44,-1
 123 126 l 1,45,-1
 1627 1550 l 1,46,-1
 1637 1550 l 1,47,-1
 1741 1390 l 1,48,-1
 237 -40 l 1,43,-1
1151 -13 m 1,49,-1
 1191 173 l 1,50,-1
 824 173 l 1,51,-1
 826 183 l 1,52,53
 1125 356 1125 356 1181 619 c 1,54,-1
 1465 821 l 1,55,-1
 1475 821 l 1,56,57
 1406 497 1406 497 1186 323 c 1,58,-1
 1223 323 l 1,59,-1
 1226 341 l 1,60,-1
 1444 496 l 1,61,-1
 1454 496 l 1,62,-1
 1418 323 l 1,63,-1
 1539 323 l 1,64,-1
 1537 313 l 1,65,-1
 1389 173 l 1,66,-1
 1386 173 l 1,67,-1
 1379 142 l 1,68,-1
 1161 -13 l 1,69,-1
 1151 -13 l 1,49,-1
EndSplineSet
Validated: 19457
EndChar

StartChar: questiondown
Encoding: 191 191 129
Width: 1269
VWidth: 1638
GlyphClass: 2
Flags: W
HStem: -430 300<471.518 633.245> 1100 20G<878.5 901.5>
VStem: 95 320<-71.7939 182.836> 648 374<870.382 996.618> 898 323<23.4409 275.985>
DStem2: 231 268 555 291 0.814525 0.580129<102.762 667.583>
LayerCount: 2
Fore
SplineSet
518 -430 m 0,0,1
 469 -430 469 -430 420 -414 c 0,2,3
 262 -362 262 -362 173 -236 c 0,4,5
 95 -125 95 -125 95 29 c 0,6,7
 95 72 95 72 101 101 c 24,8,9
 110 144 110 144 141 186 c 0,10,11
 169 224 169 224 231 268 c 2,12,-1
 926 763 l 1,13,-1
 936 763 l 1,14,15
 886 527 886 527 666 370 c 2,16,-1
 555 291 l 2,17,18
 444 212 444 212 421 101 c 0,19,20
 415 71 415 71 415 44 c 0,21,22
 415 -22 415 -22 453 -67 c 0,23,24
 507 -130 507 -130 606 -130 c 128,-1,25
 705 -130 705 -130 786 -69 c 128,-1,26
 867 -8 867 -8 891 101 c 0,27,28
 898 133 898 133 898 160 c 0,29,30
 898 214 898 214 872 253 c 1,31,-1
 1133 440 l 1,32,-1
 1143 440 l 1,33,34
 1221 324 1221 324 1221 191 c 0,35,36
 1221 147 1221 147 1211 101 c 16,37,38
 1202 57 1202 57 1171 16 c 0,39,40
 1143 -21 1143 -21 1080 -66 c 2,41,-1
 635 -384 l 2,42,43
 571 -430 571 -430 518 -430 c 0,0,1
892 1120 m 0,44,45
 911 1120 911 1120 933 1111 c 0,46,47
 976 1093 976 1093 1000 1050 c 0,48,49
 1022 1010 1022 1010 1022 968 c 0,50,51
 1022 952 1022 952 1019 936 c 0,52,53
 1010 893 1010 893 970 865 c 2,54,-1
 833 768 l 2,55,56
 804 747 804 747 777 747 c 0,57,58
 758 747 758 747 737 756 c 0,59,60
 692 775 692 775 670 817 c 0,61,62
 648 857 648 857 648 899 c 0,63,64
 648 915 648 915 651 931 c 0,65,66
 660 974 660 974 700 1002 c 2,67,-1
 836 1099 l 2,68,69
 865 1120 865 1120 892 1120 c 0,44,45
EndSplineSet
Validated: 1
EndChar

StartChar: emdash
Encoding: 8212 8212 130
Width: 1534
GlyphClass: 2
Flags: W
HStem: 630 250<488 1367>
LayerCount: 2
Fore
SplineSet
488 880 m 1,0,-1
 1621 880 l 1,1,-1
 1619 870 l 1,2,-1
 1367 630 l 1,3,-1
 234 630 l 1,4,-1
 236 640 l 1,5,-1
 488 880 l 1,0,-1
EndSplineSet
Validated: 1
EndChar

StartChar: quoteleft
Encoding: 8216 8216 131
Width: 452
GlyphClass: 2
Flags: W
HStem: 1047 593
VStem: 289 277<1186.56 1391.93>
LayerCount: 2
Fore
SplineSet
640 1640 m 1,0,-1
 650 1640 l 1,1,-1
 757 1530 l 1,2,3
 595 1473 595 1473 569 1348 c 0,4,5
 566 1334 566 1334 566 1321 c 0,6,7
 566 1254 566 1254 648 1229 c 1,8,-1
 393 1047 l 1,9,-1
 383 1047 l 1,10,11
 289 1126 289 1126 289 1234 c 0,12,13
 289 1262 289 1262 295 1292 c 0,14,15
 339 1499 339 1499 640 1640 c 1,0,-1
EndSplineSet
Validated: 1
EndChar

StartChar: quoteright
Encoding: 8217 8217 132
Width: 452
GlyphClass: 2
Flags: W
HStem: 1047 593
VStem: 458 277<1295.62 1453>
LayerCount: 2
Fore
SplineSet
631 1640 m 1,0,-1
 641 1640 l 1,1,2
 735 1561 735 1561 735 1453 c 0,3,4
 735 1425 735 1425 729 1395 c 0,5,6
 685 1188 685 1188 384 1047 c 1,7,-1
 374 1047 l 1,8,-1
 266 1157 l 1,9,10
 428 1214 428 1214 455 1339 c 0,11,12
 458 1353 458 1353 458 1366 c 0,13,14
 458 1433 458 1433 375 1458 c 1,15,-1
 631 1640 l 1,0,-1
EndSplineSet
Validated: 1
EndChar

StartChar: quotesinglbase
Encoding: 8218 8218 133
Width: 452
GlyphClass: 2
Flags: W
HStem: -313 593
VStem: 169 277<-58.4058 95>
LayerCount: 2
Fore
SplineSet
342 280 m 1,0,-1
 352 280 l 1,1,2
 446 202 446 202 446 95 c 0,3,4
 446 66 446 66 439 35 c 0,5,6
 395 -172 395 -172 94 -313 c 1,7,-1
 84 -313 l 1,8,-1
 -23 -203 l 1,9,10
 139 -146 139 -146 166 -21 c 0,11,12
 169 -7 169 -7 169 6 c 0,13,14
 169 73 169 73 86 98 c 1,15,-1
 342 280 l 1,0,-1
EndSplineSet
Validated: 1
EndChar

StartChar: quotereversed
Encoding: 8219 8219 134
Width: 451
GlyphClass: 2
Flags: W
HStem: 1047 593<448.901 518>
VStem: 309 253<1200.12 1409.98>
LayerCount: 2
Fore
SplineSet
518 1640 m 1,0,-1
 696 1458 l 1,1,2
 585 1428 585 1428 566 1339 c 0,3,4
 562 1319 562 1319 562 1300 c 0,5,6
 562 1205 562 1205 677 1157 c 1,7,-1
 523 1047 l 1,8,-1
 513 1047 l 1,9,10
 309 1166 309 1166 309 1333 c 0,11,12
 309 1363 309 1363 316 1395 c 0,13,14
 347 1541 347 1541 508 1640 c 1,15,-1
 518 1640 l 1,0,-1
EndSplineSet
Validated: 1
EndChar

StartChar: quotedblleft
Encoding: 8220 8220 135
Width: 843
GlyphClass: 2
Flags: W
HStem: 1047 593
VStem: 289 277<1186.56 1391.93> 680 277<1186.56 1391.93>
LayerCount: 2
Fore
SplineSet
640 1640 m 1,0,-1
 650 1640 l 1,1,-1
 757 1530 l 1,2,3
 595 1473 595 1473 569 1348 c 0,4,5
 566 1334 566 1334 566 1321 c 0,6,7
 566 1254 566 1254 648 1229 c 1,8,-1
 393 1047 l 1,9,-1
 383 1047 l 1,10,11
 289 1126 289 1126 289 1234 c 0,12,13
 289 1262 289 1262 295 1292 c 0,14,15
 339 1499 339 1499 640 1640 c 1,0,-1
1031 1640 m 1,16,-1
 1041 1640 l 1,17,-1
 1148 1530 l 1,18,19
 986 1473 986 1473 960 1348 c 0,20,21
 957 1334 957 1334 957 1321 c 0,22,23
 957 1254 957 1254 1039 1229 c 1,24,-1
 784 1047 l 1,25,-1
 774 1047 l 1,26,27
 680 1126 680 1126 680 1234 c 0,28,29
 680 1262 680 1262 686 1292 c 0,30,31
 730 1499 730 1499 1031 1640 c 1,16,-1
EndSplineSet
Validated: 1
EndChar

StartChar: quotedblright
Encoding: 8221 8221 136
Width: 843
GlyphClass: 2
Flags: W
HStem: 1047 593
VStem: 458 277<1295.62 1453> 849 277<1295.62 1453>
LayerCount: 2
Fore
SplineSet
1022 1640 m 1,0,-1
 1032 1640 l 1,1,2
 1126 1561 1126 1561 1126 1453 c 0,3,4
 1126 1425 1126 1425 1120 1395 c 0,5,6
 1076 1188 1076 1188 775 1047 c 1,7,-1
 765 1047 l 1,8,-1
 657 1157 l 1,9,10
 819 1214 819 1214 846 1339 c 0,11,12
 849 1353 849 1353 849 1366 c 0,13,14
 849 1433 849 1433 766 1458 c 1,15,-1
 1022 1640 l 1,0,-1
631 1640 m 1,16,-1
 641 1640 l 1,17,18
 735 1561 735 1561 735 1453 c 0,19,20
 735 1425 735 1425 729 1395 c 0,21,22
 685 1188 685 1188 384 1047 c 1,23,-1
 374 1047 l 1,24,-1
 266 1157 l 1,25,26
 428 1214 428 1214 455 1339 c 0,27,28
 458 1353 458 1353 458 1366 c 0,29,30
 458 1433 458 1433 375 1458 c 1,31,-1
 631 1640 l 1,16,-1
EndSplineSet
Validated: 1
EndChar

StartChar: quotedblbase
Encoding: 8222 8222 137
Width: 843
GlyphClass: 2
Flags: W
HStem: -313 593
VStem: 169 277<-58.4058 95> 560 277<-58.4058 95>
LayerCount: 2
Fore
SplineSet
733 280 m 1,0,-1
 743 280 l 1,1,2
 837 202 837 202 837 95 c 0,3,4
 837 66 837 66 830 35 c 0,5,6
 786 -172 786 -172 485 -313 c 1,7,-1
 475 -313 l 1,8,-1
 368 -203 l 1,9,10
 530 -146 530 -146 557 -21 c 0,11,12
 560 -7 560 -7 560 6 c 0,13,14
 560 73 560 73 477 98 c 1,15,-1
 733 280 l 1,0,-1
342 280 m 1,16,-1
 352 280 l 1,17,18
 446 202 446 202 446 95 c 0,19,20
 446 66 446 66 439 35 c 0,21,22
 395 -172 395 -172 94 -313 c 1,23,-1
 84 -313 l 1,24,-1
 -23 -203 l 1,25,26
 139 -146 139 -146 166 -21 c 0,27,28
 169 -7 169 -7 169 6 c 0,29,30
 169 73 169 73 86 98 c 1,31,-1
 342 280 l 1,16,-1
EndSplineSet
Validated: 1
EndChar

StartChar: dagger
Encoding: 8224 8224 138
Width: 1194
GlyphClass: 2
Flags: W
HStem: -40 21G<428 466.154> 1530 20G<1047.92 1086>
DStem2: 428 -40 748.735 -40 0.207912 0.978148<332.493 976.337 1350.6 1359.78>
LayerCount: 2
Fore
SplineSet
438 -40 m 1,0,-1
 428 -40 l 1,1,-1
 631 915 l 1,2,-1
 274 915 l 1,3,-1
 277 925 l 1,4,-1
 582 1216 l 1,5,-1
 695 1216 l 1,6,-1
 711 1290 l 1,7,-1
 1076 1550 l 1,8,-1
 1086 1550 l 1,9,-1
 1015 1216 l 1,10,-1
 1372 1216 l 1,11,-1
 1370 1206 l 1,12,-1
 1064 915 l 1,13,-1
 951 915 l 1,14,-1
 804 220 l 1,15,-1
 438 -40 l 1,0,-1
EndSplineSet
Validated: 1
EndChar

StartChar: daggerdbl
Encoding: 8225 8225 139
Width: 1194
GlyphClass: 2
Flags: W
HStem: -40 21G<428 466.154> 1530 20G<1047.92 1086>
LayerCount: 2
Fore
SplineSet
428 -40 m 1,0,-1
 499 294 l 1,1,-1
 142 294 l 1,2,-1
 145 304 l 1,3,-1
 450 595 l 1,4,-1
 563 595 l 1,5,-1
 631 915 l 1,6,-1
 274 915 l 1,7,-1
 277 925 l 1,8,-1
 582 1216 l 1,9,-1
 695 1216 l 1,10,-1
 711 1290 l 1,11,-1
 1076 1550 l 1,12,-1
 1086 1550 l 1,13,-1
 1015 1216 l 1,14,-1
 1372 1216 l 1,15,-1
 1370 1206 l 1,16,-1
 1064 915 l 1,17,-1
 951 915 l 1,18,-1
 883 595 l 1,19,-1
 1240 595 l 1,20,-1
 1238 585 l 1,21,-1
 932 294 l 1,22,-1
 819 294 l 1,23,-1
 804 220 l 1,24,-1
 438 -40 l 1,25,-1
 428 -40 l 1,0,-1
EndSplineSet
Validated: 1
EndChar

StartChar: bullet
Encoding: 8226 8226 140
Width: 914
GlyphClass: 2
Flags: W
HStem: 1084 20G<690.5 730.5>
LayerCount: 2
Fore
SplineSet
516 382 m 0,0,1
 483 382 483 382 447 393 c 0,2,3
 363 417 363 417 302 490 c 0,4,5
 231 575 231 575 231 676 c 0,6,7
 231 704 231 704 236 733 c 0,8,9
 244 777 244 777 272 811 c 0,10,11
 295 840 295 840 343 874 c 2,12,-1
 615 1067 l 2,13,14
 667 1104 667 1104 714 1104 c 0,15,16
 747 1104 747 1104 783 1093 c 0,17,18
 867 1069 867 1069 928 996 c 0,19,20
 999 911 999 911 999 810 c 0,21,22
 999 782 999 782 994 753 c 0,23,24
 986 709 986 709 958 675 c 0,25,26
 935 646 935 646 887 612 c 2,27,-1
 615 419 l 2,28,29
 563 382 563 382 516 382 c 0,0,1
EndSplineSet
Validated: 1
EndChar

StartChar: ellipsis
Encoding: 8230 8230 141
Width: 1243
GlyphClass: 2
Flags: W
HStem: -20 373<208.891 269.875 626.891 687.875 1044.89 1105.88>
VStem: 52 374<103.382 229.618> 470 374<103.382 229.618> 888 374<103.382 229.618>
CounterMasks: 1 70
LayerCount: 2
Fore
SplineSet
1018 -20 m 0,0,1
 999 -20 999 -20 977 -11 c 0,2,3
 934 7 934 7 910 50 c 0,4,5
 888 90 888 90 888 132 c 0,6,7
 888 148 888 148 891 164 c 0,8,9
 900 207 900 207 940 235 c 2,10,-1
 1077 332 l 2,11,12
 1106 353 1106 353 1133 353 c 0,13,14
 1152 353 1152 353 1173 344 c 0,15,16
 1218 325 1218 325 1240 283 c 0,17,18
 1262 243 1262 243 1262 201 c 0,19,20
 1262 185 1262 185 1259 169 c 0,21,22
 1250 126 1250 126 1210 98 c 2,23,-1
 1074 1 l 2,24,25
 1045 -20 1045 -20 1018 -20 c 0,0,1
600 -20 m 0,26,27
 581 -20 581 -20 559 -11 c 0,28,29
 516 7 516 7 492 50 c 0,30,31
 470 90 470 90 470 132 c 0,32,33
 470 148 470 148 473 164 c 0,34,35
 482 207 482 207 522 235 c 2,36,-1
 659 332 l 2,37,38
 688 353 688 353 715 353 c 0,39,40
 734 353 734 353 755 344 c 0,41,42
 800 325 800 325 822 283 c 0,43,44
 844 243 844 243 844 201 c 0,45,46
 844 185 844 185 841 169 c 0,47,48
 832 126 832 126 792 98 c 2,49,-1
 656 1 l 2,50,51
 627 -20 627 -20 600 -20 c 0,26,27
182 -20 m 0,52,53
 163 -20 163 -20 141 -11 c 0,54,55
 98 7 98 7 74 50 c 0,56,57
 52 90 52 90 52 132 c 0,58,59
 52 148 52 148 55 164 c 0,60,61
 64 207 64 207 104 235 c 2,62,-1
 241 332 l 2,63,64
 270 353 270 353 297 353 c 0,65,66
 316 353 316 353 337 344 c 0,67,68
 382 325 382 325 404 283 c 0,69,70
 426 243 426 243 426 201 c 0,71,72
 426 185 426 185 423 169 c 0,73,74
 414 126 414 126 374 98 c 2,75,-1
 238 1 l 2,76,77
 209 -20 209 -20 182 -20 c 0,52,53
EndSplineSet
Validated: 1
EndChar

StartChar: perthousand
Encoding: 8240 8240 142
Width: 2358
GlyphClass: 2
Flags: W
HStem: -40 21G<223.47 267.035> -20 208<1043.05 1185.44 1841.05 1983.44> 495 207<1166.31 1303.76 1964.31 2101.76> 808 208<572.05 714.444> 1323 207<695.305 832.757> 1530 20G<1614.88 1659>
VStem: 321 230<1056.82 1240.91> 792 230<228.817 412.911> 857 232<1097.09 1281.03> 1328 232<269.089 453.028> 1590 230<228.817 412.911> 2126 232<269.089 453.028>
DStem2: 132 126 246 -40 0.724711 0.689053<0 2043.55>
LayerCount: 2
Fore
SplineSet
1875 -20 m 0,0,1
 1842 -20 1842 -20 1806 -9 c 0,2,3
 1722 15 1722 15 1661 88 c 0,4,5
 1590 173 1590 173 1590 274 c 0,6,7
 1590 302 1590 302 1595 331 c 0,8,9
 1603 375 1603 375 1631 409 c 0,10,11
 1654 438 1654 438 1702 472 c 2,12,-1
 1974 665 l 2,13,14
 2026 702 2026 702 2073 702 c 0,15,16
 2106 702 2106 702 2142 691 c 0,17,18
 2226 667 2226 667 2287 594 c 0,19,20
 2358 509 2358 509 2358 408 c 0,21,22
 2358 380 2358 380 2353 351 c 0,23,24
 2345 307 2345 307 2317 273 c 0,25,26
 2294 244 2294 244 2246 210 c 2,27,-1
 1974 17 l 2,28,29
 1922 -20 1922 -20 1875 -20 c 0,0,1
2005 495 m 0,30,31
 1946 495 1946 495 1891 452 c 0,32,33
 1839 412 1839 412 1825 342 c 0,34,35
 1820 318 1820 318 1820 297 c 0,36,37
 1820 254 1820 254 1842 228 c 0,38,39
 1874 188 1874 188 1940.5 188 c 128,-1,40
 2007 188 2007 188 2058 230 c 0,41,42
 2108 270 2108 270 2122 340 c 0,43,44
 2126 361 2126 361 2126 379 c 0,45,46
 2126 423 2126 423 2101 454 c 0,47,48
 2069 495 2069 495 2005 495 c 0,30,31
1077 -20 m 0,49,50
 1044 -20 1044 -20 1008 -9 c 0,51,52
 924 15 924 15 863 88 c 0,53,54
 792 173 792 173 792 274 c 0,55,56
 792 302 792 302 797 331 c 0,57,58
 805 375 805 375 833 409 c 0,59,60
 856 438 856 438 904 472 c 2,61,-1
 1176 665 l 2,62,63
 1228 702 1228 702 1275 702 c 0,64,65
 1308 702 1308 702 1344 691 c 0,66,67
 1428 667 1428 667 1489 594 c 0,68,69
 1560 509 1560 509 1560 408 c 0,70,71
 1560 380 1560 380 1555 351 c 0,72,73
 1547 307 1547 307 1519 273 c 0,74,75
 1496 244 1496 244 1448 210 c 2,76,-1
 1176 17 l 2,77,78
 1124 -20 1124 -20 1077 -20 c 0,49,50
1207 495 m 0,79,80
 1148 495 1148 495 1093 452 c 0,81,82
 1041 412 1041 412 1027 342 c 0,83,84
 1022 318 1022 318 1022 297 c 0,85,86
 1022 254 1022 254 1044 228 c 0,87,88
 1076 188 1076 188 1142.5 188 c 128,-1,89
 1209 188 1209 188 1260 230 c 0,90,91
 1310 270 1310 270 1324 340 c 0,92,93
 1328 361 1328 361 1328 379 c 0,94,95
 1328 423 1328 423 1303 454 c 0,96,97
 1271 495 1271 495 1207 495 c 0,79,80
804 1530 m 0,98,99
 837 1530 837 1530 873 1519 c 0,100,101
 957 1495 957 1495 1018 1422 c 0,102,103
 1089 1337 1089 1337 1089 1236 c 0,104,105
 1089 1208 1089 1208 1084 1179 c 0,106,107
 1076 1135 1076 1135 1048 1101 c 0,108,109
 1025 1072 1025 1072 977 1038 c 2,110,-1
 705 845 l 2,111,112
 653 808 653 808 606 808 c 0,113,114
 573 808 573 808 537 819 c 0,115,116
 453 843 453 843 392 916 c 0,117,118
 321 1001 321 1001 321 1102 c 0,119,120
 321 1130 321 1130 326 1159 c 0,121,122
 334 1203 334 1203 362 1237 c 0,123,124
 385 1266 385 1266 433 1300 c 2,125,-1
 705 1493 l 2,126,127
 757 1530 757 1530 804 1530 c 0,98,99
736 1323 m 0,128,129
 677 1323 677 1323 622 1280 c 0,130,131
 570 1240 570 1240 556 1170 c 0,132,133
 551 1146 551 1146 551 1125 c 0,134,135
 551 1082 551 1082 573 1056 c 0,136,137
 605 1016 605 1016 671.5 1016 c 128,-1,138
 738 1016 738 1016 789 1058 c 0,139,140
 839 1098 839 1098 853 1168 c 0,141,142
 857 1189 857 1189 857 1207 c 0,143,144
 857 1251 857 1251 832 1282 c 0,145,146
 800 1323 800 1323 736 1323 c 0,128,129
246 -40 m 1,147,-1
 236 -40 l 1,148,-1
 132 126 l 1,149,-1
 1636 1550 l 1,150,-1
 1646 1550 l 1,151,-1
 1750 1390 l 1,152,-1
 246 -40 l 1,147,-1
EndSplineSet
Validated: 1
EndChar

StartChar: minute
Encoding: 8242 8242 143
Width: 443
GlyphClass: 2
Flags: W
HStem: 980 570
VStem: 256 461
LayerCount: 2
Fore
SplineSet
541 1550 m 1,0,-1
 551 1550 l 1,1,-1
 717 1381 l 1,2,-1
 392 980 l 1,3,-1
 382 980 l 1,4,-1
 256 1110 l 1,5,-1
 541 1550 l 1,0,-1
EndSplineSet
Validated: 1
EndChar

StartChar: second
Encoding: 8243 8243 144
Width: 808
GlyphClass: 2
Flags: W
HStem: 980 570
LayerCount: 2
Fore
SplineSet
906 1550 m 1,0,-1
 916 1550 l 1,1,-1
 1082 1381 l 1,2,-1
 757 980 l 1,3,-1
 747 980 l 1,4,-1
 621 1110 l 1,5,-1
 906 1550 l 1,0,-1
541 1550 m 1,6,-1
 551 1550 l 1,7,-1
 717 1381 l 1,8,-1
 392 980 l 1,9,-1
 382 980 l 1,10,-1
 256 1110 l 1,11,-1
 541 1550 l 1,6,-1
EndSplineSet
Validated: 1
EndChar

StartChar: guilsinglleft
Encoding: 8249 8249 145
Width: 737
GlyphClass: 2
Flags: W
VStem: 240 617
DStem2: 508 771 240 754 0.355538 -0.934662<0 365.295> 240 754 508 771 0.648023 0.761621<186.618 721.996>
LayerCount: 2
Fore
SplineSet
742 1344 m 1,0,-1
 752 1344 l 1,1,-1
 857 1177 l 1,2,-1
 508 771 l 1,3,-1
 639 430 l 1,4,-1
 444 244 l 1,5,-1
 434 244 l 1,6,-1
 240 754 l 1,7,-1
 742 1344 l 1,0,-1
EndSplineSet
Validated: 1
EndChar

StartChar: guilsinglright
Encoding: 8250 8250 146
Width: 737
GlyphClass: 2
Flags: W
VStem: 217 617
DStem2: 217 411 333 244 0.647273 0.762258<0 535.375> 641 1344 436 1158 0.353935 -0.93527<101.403 466.342>
LayerCount: 2
Fore
SplineSet
631 1344 m 1,0,-1
 641 1344 l 1,1,-1
 834 834 l 1,2,-1
 333 244 l 1,3,-1
 323 244 l 1,4,-1
 217 411 l 1,5,-1
 566 817 l 1,6,-1
 436 1158 l 1,7,-1
 631 1344 l 1,0,-1
EndSplineSet
Validated: 1
EndChar

StartChar: Euro
Encoding: 8364 8364 147
Width: 1380
GlyphClass: 2
Flags: W
HStem: -20 300<664.611 820.351> 487 160<633 910> 737 160<686 963> 1230 300<970.233 1125.14>
VStem: 273 328<344.282 486.688>
DStem2: 1445 684 1280 352 0.813852 0.581073<-756.486 -145.265>
LayerCount: 2
Fore
SplineSet
706 -20 m 0,0,1
 657 -20 657 -20 608 -4 c 0,2,3
 450 48 450 48 361 174 c 0,4,5
 273 300 273 300 273 439 c 0,6,7
 273 462 273 462 276 487 c 1,8,-1
 124 487 l 1,9,-1
 126 497 l 1,10,-1
 283 647 l 1,11,-1
 308 647 l 1,12,-1
 327 737 l 1,13,-1
 177 737 l 1,14,-1
 179 747 l 1,15,-1
 336 897 l 1,16,-1
 361 897 l 1,17,-1
 376 970 l 2,18,19
 389 1032 389 1032 421 1076 c 0,20,21
 448 1113 448 1113 511 1158 c 2,22,-1
 968 1484 l 2,23,24
 1032 1530 1032 1530 1085 1530 c 0,25,26
 1134 1530 1134 1530 1183 1514 c 0,27,28
 1341 1462 1341 1462 1430 1336 c 0,29,30
 1501 1234 1501 1234 1515 1124 c 1,31,-1
 1172 881 l 1,32,-1
 1162 881 l 1,33,-1
 1184 981 l 2,34,35
 1191 1013 1191 1013 1191 1042 c 0,36,37
 1190 1111 1190 1111 1150 1160 c 0,38,39
 1094 1230 1094 1230 995 1230 c 128,-1,40
 896 1230 896 1230 811 1158 c 0,41,42
 727 1087 727 1087 704 981 c 2,43,-1
 686 897 l 1,44,-1
 1122 897 l 1,45,-1
 1120 887 l 1,46,-1
 963 737 l 1,47,-1
 652 737 l 1,48,-1
 633 647 l 1,49,-1
 1069 647 l 1,50,-1
 1066 637 l 1,51,-1
 910 487 l 1,52,-1
 602 487 l 1,53,54
 601 477 601 477 601 468 c 0,55,56
 601 399 601 399 640 350 c 0,57,58
 696 280 696 280 796 280 c 0,59,60
 879 280 879 280 980 352 c 2,61,-1
 1445 684 l 1,62,-1
 1415 540 l 2,63,64
 1402 478 1402 478 1370 434 c 0,65,66
 1343 397 1343 397 1280 352 c 2,67,-1
 823 26 l 2,68,69
 759 -20 759 -20 706 -20 c 0,0,1
EndSplineSet
Validated: 19457
EndChar

StartChar: afii61248
Encoding: 8453 8453 148
Width: 1409
GlyphClass: 2
Flags: W
HStem: -40 188<1025.1 1141.02> 584 190<1144.36 1256.17> 736 188<460.103 575.58> 1360 190<579.357 691.696>
VStem: 244 207<932.579 1209.42> 809 207<156.579 433.422> 1265 211<301.344 575.238>
DStem2: 23.5645 -40 226.564 -40 0.207912 0.978148<1110.42 1431.45> 57 126 171 -40 0.724711 0.689053<0 2043.55> 753.508 -40 956.508 -40 0.207912 0.978148<317.086 638.112> 882 1150 551 763 0.815553 0.578683<-418.589 -85.5526> 1151.93 -40 1359.23 -40 0.207912 0.978148<237.032 555.253>
LayerCount: 2
Fore
SplineSet
1188 584 m 0,0,1
 1147 584 1147 584 1111 554 c 0,2,3
 1076 524 1076 524 1067 480 c 2,4,-1
 1019 254 l 2,5,6
 1016 240 1016 240 1016 228 c 0,7,8
 1016 199 1016 199 1033 179 c 0,9,10
 1058 148 1058 148 1093 148 c 0,11,12
 1134 148 1134 148 1170 178 c 0,13,14
 1205 208 1205 208 1214 252 c 2,15,-1
 1262 478 l 2,16,17
 1265 492 1265 492 1265 504 c 0,18,19
 1265 533 1265 533 1248 553 c 0,20,21
 1223 584 1223 584 1188 584 c 0,0,1
1043 -40 m 0,22,23
 934 -40 934 -40 858 51 c 0,24,25
 809 109 809 109 809 189 c 0,26,27
 809 220 809 220 816 254 c 2,28,-1
 862 474 l 2,29,30
 875 537 875 537 941 584 c 2,31,-1
 1169 747 l 2,32,33
 1207 774 1207 774 1242 774 c 0,34,35
 1350 774 1350 774 1427 683 c 0,36,37
 1476 625 1476 625 1476 545 c 0,38,39
 1476 513 1476 513 1469 480 c 2,40,-1
 1423 260 l 2,41,42
 1410 197 1410 197 1344 150 c 2,43,-1
 1116 -13 l 2,44,45
 1078 -40 1078 -40 1043 -40 c 0,22,23
677 1550 m 0,46,47
 802 1550 802 1550 864 1453 c 0,48,49
 900 1397 900 1397 912 1323 c 1,50,-1
 693 1167 l 1,51,-1
 683 1167 l 1,52,-1
 702 1256 l 2,53,54
 705 1270 705 1270 705 1282 c 0,55,56
 705 1311 705 1311 688 1331 c 0,57,58
 664 1360 664 1360 623 1360 c 128,-1,59
 582 1360 582 1360 546 1330 c 0,60,61
 511 1300 511 1300 502 1256 c 2,62,-1
 454 1030 l 2,63,64
 451 1016 451 1016 451 1004 c 0,65,66
 451 975 451 975 468 955 c 0,67,68
 493 924 493 924 528 924 c 128,-1,69
 563 924 563 924 610 957 c 2,70,-1
 882 1150 l 1,71,-1
 858 1036 l 2,72,73
 845 972 845 972 780 926 c 2,74,-1
 551 763 l 2,75,76
 513 736 513 736 478 736 c 0,77,78
 369 736 369 736 293 827 c 0,79,80
 244 885 244 885 244 965 c 0,81,82
 244 996 244 996 251 1030 c 2,83,-1
 297 1250 l 2,84,85
 310 1313 310 1313 376 1360 c 2,86,-1
 604 1523 l 2,87,88
 642 1550 642 1550 677 1550 c 0,46,47
171 -40 m 1,89,-1
 161 -40 l 1,90,-1
 57 126 l 1,91,-1
 1561 1550 l 1,92,-1
 1571 1550 l 1,93,-1
 1675 1390 l 1,94,-1
 171 -40 l 1,89,-1
EndSplineSet
Validated: 1
EndChar

StartChar: afii61289
Encoding: 8467 8467 149
Width: 1187
GlyphClass: 2
Flags: W
HStem: -20 236<602 770.645> 0 21G<80 460.364> 1510 20G<1099.5 1197>
LayerCount: 2
Fore
SplineSet
656 -20 m 0,0,1
 548 -20 548 -20 480 44 c 1,2,-1
 444 0 l 1,3,-1
 80 0 l 1,4,5
 276 162 276 162 414 325 c 1,6,7
 423 420 423 420 445 524 c 0,8,9
 479 686 479 686 565 865 c 0,10,11
 743 1240 743 1240 933 1423 c 0,12,13
 1044 1530 1044 1530 1155 1530 c 0,14,15
 1239 1530 1239 1530 1279 1480 c 0,16,17
 1311 1439 1311 1439 1311 1371 c 0,18,19
 1311 1331 1311 1331 1300 1281 c 0,20,21
 1280 1186 1280 1186 1220 1041 c 0,22,23
 1075 688 1075 688 704 272 c 1,24,25
 701 254 701 254 701 242 c 0,26,27
 701 216 701 216 715 216 c 0,28,29
 736 216 736 216 770 260 c 0,30,31
 791 286 791 286 809 319 c 1,32,-1
 1125 319 l 1,33,34
 995 144 995 144 880.5 62 c 128,-1,35
 766 -20 766 -20 656 -20 c 0,0,1
EndSplineSet
Validated: 1
EndChar

StartChar: trademark
Encoding: 8482 8482 150
Width: 1822
GlyphClass: 2
Flags: W
HStem: 1350 190<1201 1340.62 1632.83 1746.93> 1396 144<519 591 791 892>
VStem: 1760 203<1183.43 1321.34>
DStem2: 445.874 716 646.078 716 0.207912 0.978148<214.4 695.314> 834 716 1034.2 716 0.207912 0.978148<204.177 683.27> 1239 716 1439.2 716 0.207912 0.978148<204.177 566.622> 1644 716 1844.2 716 0.207912 0.978148<204.177 566.622>
LayerCount: 2
Fore
SplineSet
1201 1550 m 1,0,-1
 1211 1550 l 1,1,-1
 1195 1472 l 1,2,-1
 1253 1513 l 2,3,4
 1291 1540 1291 1540 1324 1540 c 0,5,6
 1461 1540 1461 1540 1524 1418 c 1,7,-1
 1658 1513 l 2,8,9
 1696 1540 1696 1540 1729 1540 c 0,10,11
 1839 1540 1839 1540 1911 1446 c 0,12,13
 1963 1376 1963 1376 1963 1299 c 0,14,15
 1963 1273 1963 1273 1957 1246 c 2,16,-1
 1878 875 l 1,17,-1
 1654 716 l 1,18,-1
 1644 716 l 1,19,-1
 1757 1246 l 2,20,21
 1760 1259 1760 1259 1760 1271 c 0,22,23
 1760 1301 1760 1301 1742 1322 c 0,24,25
 1718 1350 1718 1350 1675 1350 c 128,-1,26
 1632 1350 1632 1350 1597 1321 c 128,-1,27
 1562 1292 1562 1292 1552 1246 c 2,28,-1
 1473 875 l 1,29,-1
 1249 716 l 1,30,-1
 1239 716 l 1,31,-1
 1352 1246 l 2,32,33
 1355 1259 1355 1259 1355 1271 c 0,34,35
 1355 1301 1355 1301 1337 1322 c 0,36,37
 1314 1350 1314 1350 1270.5 1350 c 128,-1,38
 1227 1350 1227 1350 1192 1321 c 128,-1,39
 1157 1292 1157 1292 1147 1246 c 2,40,-1
 1068 875 l 1,41,-1
 844 716 l 1,42,-1
 834 716 l 1,43,-1
 978 1391 l 1,44,-1
 1201 1550 l 1,0,-1
519 1540 m 1,45,-1
 1035 1540 l 1,46,-1
 1033 1530 l 1,47,-1
 892 1396 l 1,48,-1
 791 1396 l 1,49,-1
 682 885 l 1,50,-1
 458 726 l 1,51,-1
 448 726 l 1,52,-1
 591 1396 l 1,53,-1
 377 1396 l 1,54,-1
 379 1406 l 1,55,-1
 519 1540 l 1,45,-1
EndSplineSet
Validated: 1
EndChar

StartChar: uni2126
Encoding: 8486 8486 151
Width: 1390
GlyphClass: 2
Flags: W
HStem: 0 274<623.573 658 790 903.585> 0 210<292 432 1046 1143> 1230 300<930.649 1091.19>
VStem: 237 318<341.985 588.72> 1155 323<818.742 1165.07>
DStem2: 129.97 0 450.195 0 0.207912 0.978148<543.117 1142.98> 940.195 0 1259.71 0 0.207912 0.978148<466.542 1060.1>
LayerCount: 2
Fore
SplineSet
80 0 m 1,0,-1
 82 10 l 1,1,-1
 292 210 l 1,2,-1
 432 210 l 1,3,4
 237 317 237 317 237 474 c 0,5,6
 237 503 237 503 243 533 c 2,7,-1
 337 974 l 2,8,9
 350 1036 350 1036 382 1078 c 0,10,11
 410 1115 410 1115 472 1159 c 2,12,-1
 928 1484 l 2,13,14
 993 1530 993 1530 1045 1530 c 0,15,16
 1094 1530 1094 1530 1143 1514 c 0,17,18
 1302 1462 1302 1462 1390 1336 c 128,-1,19
 1478 1210 1478 1210 1478 1071 c 0,20,21
 1478 1028 1478 1028 1468 981 c 2,22,-1
 1373 533 l 2,23,24
 1351 428 1351 428 1239 348 c 2,25,-1
 1046 210 l 1,26,-1
 1355 210 l 1,27,-1
 1353 200 l 1,28,-1
 1143 0 l 1,29,-1
 732 0 l 1,30,-1
 790 274 l 1,31,32
 878 292 878 292 941 346 c 0,33,34
 1030 422 1030 422 1052 526 c 2,35,-1
 1149 981 l 2,36,37
 1155 1011 1155 1011 1155 1039 c 0,38,39
 1155 1102 1155 1102 1122 1151 c 0,40,41
 1067 1230 1067 1230 963 1230 c 0,42,43
 848 1230 848 1230 764 1156 c 0,44,45
 681 1084 681 1084 659 981 c 2,46,-1
 562 526 l 2,47,48
 555 493 555 493 555 464 c 0,49,50
 555 395 555 395 595 347 c 0,51,52
 642 291 642 291 716 274 c 1,53,-1
 658 0 l 1,54,-1
 80 0 l 1,0,-1
EndSplineSet
Validated: 1
EndChar

StartChar: estimated
Encoding: 8494 8494 152
Width: 1191
GlyphClass: 2
Flags: W
HStem: -20 183<454.071 814.178> 491 189<508 960> 935 185<599.618 958.502>
LayerCount: 2
Fore
SplineSet
585 -20 m 0,0,1
 334 -20 334 -20 215 145 c 0,2,3
 132 260 132 260 132 412 c 0,4,5
 132 479 132 479 148 553 c 0,6,7
 201 802 201 802 390 960 c 0,8,9
 582 1120 582 1120 824 1120 c 0,10,11
 1067 1120 1067 1120 1184 974 c 0,12,13
 1276 858 1276 858 1276 679 c 0,14,15
 1276 593 1276 593 1255 491 c 1,16,-1
 467 491 l 1,17,-1
 414 239 l 1,18,19
 493 163 493 163 624 163 c 0,20,21
 832 163 832 163 990 351 c 1,22,-1
 1133 255 l 1,23,24
 973 85 973 85 843 32.5 c 128,-1,25
 713 -20 713 -20 585 -20 c 0,0,1
960 680 m 1,26,-1
 998 862 l 1,27,28
 916 935 916 935 786 935 c 0,29,30
 654 935 654 935 546 861 c 1,31,-1
 508 680 l 1,32,-1
 960 680 l 1,26,-1
EndSplineSet
Validated: 1
EndChar

StartChar: partialdiff
Encoding: 8706 8706 153
Width: 1265
GlyphClass: 2
Flags: W
HStem: -20 273<488.171 700.08> 823 260<712.537 955.899> 1132 21G<595.244 679.5> 1257 273<751.982 1056.06>
VStem: 153 317<275.435 519.417> 1100 310<1024.77 1213.04>
LayerCount: 2
Fore
SplineSet
498 -20 m 0,0,1
 228 -20 228 -20 169 171 c 0,2,3
 153 223 153 223 153 285 c 0,4,5
 153 345 153 345 168 416 c 0,6,7
 223 673 223 673 420.5 878 c 128,-1,8
 618 1083 618 1083 890 1083 c 0,9,10
 1009 1083 1009 1083 1094 1024 c 1,11,12
 1100 1059 1100 1059 1100 1089 c 0,13,14
 1100 1138 1100 1138 1084 1173 c 0,15,16
 1045 1257 1045 1257 923 1257 c 0,17,18
 768 1257 768 1257 591 1132 c 1,19,-1
 657 1443 l 1,20,21
 821 1530 821 1530 1018 1530 c 0,22,23
 1335 1530 1335 1530 1396 1271 c 0,24,25
 1410 1213 1410 1213 1410 1145 c 0,26,27
 1410 1057 1410 1057 1387 950 c 0,28,29
 1305 563 1305 563 1060 272 c 0,30,31
 817 -20 817 -20 498 -20 c 0,0,1
998 699 m 1,32,33
 989 756 989 756 952 788 c 0,34,35
 912 823 912 823 845 823 c 0,36,37
 736 823 736 823 630 706 c 0,38,39
 505 567 505 567 477 431 c 0,40,41
 470 396 470 396 470 367 c 0,42,43
 470 324 470 324 486 295 c 0,44,45
 509 253 509 253 569 253 c 0,46,47
 676 253 676 253 797 376 c 128,-1,48
 918 499 918 499 998 699 c 1,32,33
EndSplineSet
Validated: 1
EndChar

StartChar: uni2206
Encoding: 8710 8710 154
Width: 1476
GlyphClass: 2
Flags: W
HStem: 0 210<370 1118> 1530 20G<1149.97 1191.65>
DStem2: 5 0 370 210 0.524023 0.851704<370.126 1478.53> 1188 1550 946 1157 0.179611 -0.983738<343.143 1305.64>
LayerCount: 2
Fore
SplineSet
5 0 m 1,0,-1
 787 1271 l 1,1,-1
 1178 1550 l 1,2,-1
 1188 1550 l 1,3,-1
 1471 0 l 1,4,-1
 5 0 l 1,0,-1
370 210 m 1,5,-1
 1118 210 l 1,6,-1
 946 1157 l 1,7,-1
 370 210 l 1,5,-1
EndSplineSet
Validated: 1
EndChar

StartChar: product
Encoding: 8719 8719 155
Width: 1370
GlyphClass: 2
Flags: W
HStem: -450 21G<34 72.1538 824 862.154> 1260 250<718 1188>
DStem2: 34 -450 354.735 -450 0.207912 0.978148<332.493 1814.84> 824 -450 1144.74 -450 0.207912 0.978148<332.493 1748.31>
LayerCount: 2
Fore
SplineSet
44 -450 m 1,0,-1
 34 -450 l 1,1,-1
 418 1357 l 1,2,-1
 633 1510 l 1,3,-1
 1561 1510 l 1,4,-1
 1200 -190 l 1,5,-1
 834 -450 l 1,6,-1
 824 -450 l 1,7,-1
 1188 1260 l 1,8,-1
 718 1260 l 1,9,-1
 410 -190 l 1,10,-1
 44 -450 l 1,0,-1
EndSplineSet
Validated: 1
EndChar

StartChar: summation
Encoding: 8721 8721 156
Width: 1188
GlyphClass: 2
Flags: W
HStem: -410 210<422 854> 1300 210<743 1164>
DStem2: -57 -410 422 -200 0.603953 0.79702<456.668 1212.01> 743 1300 378 1342 0.35347 -0.935446<0 671.936>
LayerCount: 2
Fore
SplineSet
-57 -410 m 1,0,-1
 675 556 l 1,1,-1
 378 1342 l 1,2,-1
 613 1510 l 1,3,-1
 1376 1510 l 1,4,-1
 1374 1500 l 1,5,-1
 1164 1300 l 1,6,-1
 743 1300 l 1,7,-1
 1018 566 l 1,8,-1
 422 -200 l 1,9,-1
 1065 -200 l 1,10,-1
 1063 -210 l 1,11,-1
 854 -410 l 1,12,-1
 -57 -410 l 1,0,-1
EndSplineSet
Validated: 1
EndChar

StartChar: uni2219
Encoding: 8729 8729 157
Width: 407
GlyphClass: 2
Flags: W
HStem: 627 373<345.891 407.641>
VStem: 189 375<751.653 876.618>
LayerCount: 2
Fore
SplineSet
435 1000 m 0,0,1
 454 1000 454 1000 475 991 c 0,2,3
 520 972 520 972 542 930 c 0,4,5
 564 891 564 891 564 850 c 0,6,7
 564 833 564 833 560 816 c 0,8,9
 551 773 551 773 511 745 c 2,10,-1
 376 648 l 2,11,12
 347 627 347 627 319 627 c 0,13,14
 300 627 300 627 278 636 c 0,15,16
 235 654 235 654 211 697 c 0,17,18
 189 737 189 737 189 779 c 0,19,20
 189 795 189 795 192 811 c 0,21,22
 201 854 201 854 241 882 c 2,23,-1
 378 979 l 2,24,25
 408 1000 408 1000 435 1000 c 0,0,1
EndSplineSet
Validated: 1
EndChar

StartChar: radical
Encoding: 8730 8730 158
Width: 1254
GlyphClass: 2
Flags: W
HStem: -40 21G<449.739 490.162> 1512 210<1565 1678>
DStem2: 691 402 845 232 0.490261 0.871576<0 1395.94>
LayerCount: 2
Fore
SplineSet
452 -40 m 1,0,-1
 380 597 l 1,1,-1
 157 597 l 1,2,-1
 159 607 l 1,3,-1
 369 807 l 1,4,-1
 653 807 l 1,5,-1
 691 402 l 1,6,-1
 1387 1613 l 1,7,-1
 1540 1722 l 1,8,-1
 1890 1722 l 1,9,-1
 1888 1712 l 1,10,-1
 1678 1512 l 1,11,-1
 1565 1512 l 1,12,-1
 845 232 l 1,13,-1
 462 -40 l 1,14,-1
 452 -40 l 1,0,-1
EndSplineSet
Validated: 1
EndChar

StartChar: infinity
Encoding: 8734 8734 159
Width: 1720
GlyphClass: 2
Flags: W
HStem: 269 283<558.153 688.529 1191.24 1318.39> 948 283<720.612 847.763 1350.47 1480.85>
VStem: 228 304<590.424 833.82> 857 307<591.064 831.265> 875 307<692.876 898.809> 1507 304<666.18 909.576>
LayerCount: 2
Fore
SplineSet
836 1231 m 0,0,1
 883 1231 883 1231 922 1218 c 0,2,3
 1045 1176 1045 1176 1108 1088 c 0,4,5
 1182 984 1182 984 1182 857 c 0,6,7
 1182 806 1182 806 1170 751 c 0,8,9
 1164 720 1164 720 1164 692 c 0,10,11
 1164 638 1164 638 1189 600 c 0,12,13
 1222 552 1222 552 1292.5 552 c 128,-1,14
 1363 552 1363 552 1420 599.5 c 128,-1,15
 1477 647 1477 647 1499 750 c 0,16,17
 1507 784 1507 784 1507 814 c 0,18,19
 1507 865 1507 865 1483 900 c 0,20,21
 1451 948 1451 948 1391 948 c 0,22,23
 1344 948 1344 948 1306 937 c 1,24,-1
 1248 1114 l 1,25,-1
 1342 1181 l 2,26,27
 1412 1231 1412 1231 1466 1231 c 0,28,29
 1509 1231 1509 1231 1550 1219 c 0,30,31
 1651 1190 1651 1190 1729 1092 c 0,32,33
 1811 991 1811 991 1811 854 c 0,34,35
 1811 805 1811 805 1800 751 c 0,36,37
 1779 642 1779 642 1663 559 c 2,38,-1
 1327 319 l 2,39,40
 1257 269 1257 269 1203 269 c 0,41,42
 1156 269 1156 269 1117 282 c 0,43,44
 993 324 993 324 931 412 c 0,45,46
 857 516 857 516 857 643 c 0,47,48
 857 687 857 687 869 749 c 0,49,50
 875 780 875 780 875 808 c 0,51,52
 875 862 875 862 850 900 c 0,53,54
 817 948 817 948 746.5 948 c 128,-1,55
 676 948 676 948 619 900.5 c 128,-1,56
 562 853 562 853 540 750 c 0,57,58
 532 716 532 716 532 686 c 0,59,60
 532 635 532 635 556 600 c 0,61,62
 588 552 588 552 648 552 c 0,63,64
 695 552 695 552 733 563 c 1,65,-1
 791 386 l 1,66,-1
 697 319 l 2,67,68
 627 269 627 269 573 269 c 0,69,70
 530 269 530 269 489 281 c 0,71,72
 388 310 388 310 310 408 c 0,73,74
 228 509 228 509 228 646 c 0,75,76
 228 695 228 695 239 749 c 0,77,78
 260 858 260 858 376 941 c 2,79,-1
 712 1181 l 2,80,81
 782 1231 782 1231 836 1231 c 0,0,1
EndSplineSet
Validated: 1
EndChar

StartChar: approxequal
Encoding: 8776 8776 160
Width: 1258
GlyphClass: 2
Flags: W
HStem: 268 181<787.5 1033> 587 181<445 691.5> 733 181<886.5 1132> 1052 181<544 790.5>
VStem: 171 248<386 539.355> 270 248<849 1005.39> 1059 248<495.633 666.361> 1158 248<960.633 1130.74>
DStem2: 1259 793 987 296 0.81183 0.583893<-310.292 -93.5878> 1357 1258 1086 761 0.81183 0.583893<-309.309 -92.9585>
LayerCount: 2
Fore
SplineSet
1274 793 m 1,0,1
 1307 730 1307 730 1307 652 c 0,2,3
 1307 609 1307 609 1297 561 c 8,4,5
 1287 512 1287 512 1247 483 c 2,6,-1
 987 296 l 2,7,8
 948 268 948 268 906 268 c 0,9,10
 669 268 669 268 590 423 c 24,11,12
 507 587 507 587 462 587 c 0,13,14
 428 587 428 587 421 554 c 0,15,16
 419 546 419 546 419 537 c 0,17,18
 419 489 419 489 471 423 c 1,19,-1
 220 243 l 1,20,-1
 205 243 l 1,21,22
 171 307 171 307 171 386 c 0,23,24
 171 428 171 428 181 475 c 8,25,26
 191 524 191 524 232 553 c 2,27,-1
 491 740 l 2,28,29
 530 768 530 768 572 768 c 0,30,31
 811 768 811 768 888 613 c 0,32,33
 969 449 969 449 1016 449 c 0,34,35
 1050 449 1050 449 1057 482 c 0,36,37
 1059 490 1059 490 1059 499 c 0,38,39
 1059 547 1059 547 1007 613 c 1,40,-1
 1259 793 l 1,41,-1
 1274 793 l 1,0,1
1372 1258 m 1,42,43
 1406 1194 1406 1194 1406 1115 c 0,44,45
 1406 1073 1406 1073 1396 1026 c 8,46,47
 1386 977 1386 977 1346 948 c 2,48,-1
 1086 761 l 2,49,50
 1047 733 1047 733 1005 733 c 0,51,52
 768 733 768 733 689 888 c 24,53,54
 606 1052 606 1052 561 1052 c 0,55,56
 527 1052 527 1052 520 1019 c 0,57,58
 518 1011 518 1011 518 1002 c 0,59,60
 518 954 518 954 570 888 c 1,61,-1
 318 708 l 1,62,-1
 303 708 l 1,63,64
 270 771 270 771 270 849 c 0,65,66
 270 892 270 892 280 940 c 8,67,68
 290 989 290 989 330 1018 c 2,69,-1
 590 1205 l 2,70,71
 629 1233 629 1233 671 1233 c 0,72,73
 910 1233 910 1233 987 1078 c 0,74,75
 1068 914 1068 914 1115 914 c 0,76,77
 1149 914 1149 914 1156 947 c 0,78,79
 1158 955 1158 955 1158 964 c 0,80,81
 1158 1012 1158 1012 1106 1078 c 1,82,-1
 1357 1258 l 1,83,-1
 1372 1258 l 1,42,43
EndSplineSet
Validated: 1
EndChar

StartChar: notequal
Encoding: 8800 8800 161
Width: 1194
GlyphClass: 2
Flags: W
HStem: 421 250<545 588 771 1002> 838 250<512 738 921 963>
DStem2: 306 359 387 246 0.669549 0.742768<0 83.5464 543.084 645.031 1103.9 1199.49>
LayerCount: 2
Fore
SplineSet
512 1088 m 1,0,-1
 963 1088 l 1,1,-1
 1129 1272 l 1,2,-1
 1139 1272 l 1,3,-1
 1210 1159 l 1,4,-1
 1146 1088 l 1,5,-1
 1345 1088 l 1,6,-1
 1343 1078 l 1,7,-1
 1091 838 l 1,8,-1
 921 838 l 1,9,-1
 771 671 l 1,10,-1
 1257 671 l 1,11,-1
 1254 661 l 1,12,-1
 1002 421 l 1,13,-1
 545 421 l 1,14,-1
 387 246 l 1,15,-1
 377 246 l 1,16,-1
 306 359 l 1,17,-1
 362 421 l 1,18,-1
 169 421 l 1,19,-1
 172 431 l 1,20,-1
 424 671 l 1,21,-1
 588 671 l 1,22,-1
 738 838 l 1,23,-1
 258 838 l 1,24,-1
 260 848 l 1,25,-1
 512 1088 l 1,0,-1
EndSplineSet
Validated: 1
EndChar

StartChar: lessequal
Encoding: 8804 8804 162
Width: 1292
GlyphClass: 2
Flags: W
HStem: 100 250<355 934>
DStem2: 688 891 249 793 0.88782 -0.46019<0 576.703> 503 1043 688 891 0.920321 0.391165<110.802 876.868>
LayerCount: 2
Fore
SplineSet
355 350 m 1,0,-1
 1188 350 l 1,1,-1
 1186 340 l 1,2,-1
 934 100 l 1,3,-1
 101 100 l 1,4,-1
 103 110 l 1,5,-1
 355 350 l 1,0,-1
503 1043 m 1,6,-1
 1310 1386 l 1,7,-1
 1419 1212 l 1,8,-1
 1416 1201 l 1,9,-1
 688 891 l 1,10,-1
 1287 587 l 1,11,-1
 1284 576 l 1,12,-1
 1067 369 l 1,13,-1
 249 793 l 1,14,-1
 251 803 l 1,15,-1
 503 1043 l 1,6,-1
EndSplineSet
Validated: 1
EndChar

StartChar: greaterequal
Encoding: 8805 8805 163
Width: 1292
GlyphClass: 2
Flags: W
HStem: 100 250<405 984>
DStem2: 249 554 355 369 0.920321 0.391165<25.1885 792.566> 598 1386 378 1168 0.88782 -0.46019<0 577.131>
LayerCount: 2
Fore
SplineSet
405 350 m 1,0,-1
 1238 350 l 1,1,-1
 1236 340 l 1,2,-1
 984 100 l 1,3,-1
 151 100 l 1,4,-1
 153 110 l 1,5,-1
 405 350 l 1,0,-1
598 1386 m 1,6,-1
 1416 962 l 1,7,-1
 1414 952 l 1,8,-1
 1162 712 l 1,9,-1
 355 369 l 1,10,-1
 246 543 l 1,11,-1
 249 554 l 1,12,-1
 978 865 l 1,13,-1
 378 1168 l 1,14,-1
 381 1179 l 1,15,-1
 598 1386 l 1,6,-1
EndSplineSet
Validated: 1
EndChar

StartChar: lozenge
Encoding: 9674 9674 164
Width: 1118
GlyphClass: 2
Flags: W
HStem: -20 21G<545.29 573.16> 1510 20G<866.399 893.176>
DStem2: 187 738 468 771 0.660649 0.750695<210.415 666.759> 468 771 187 738 0.436739 -0.899588<0 452.144> 667 365 555 -20 0.672237 0.740336<0 449.148> 884 1530 769 1114 0.417012 -0.908901<330.147 785.931>
LayerCount: 2
Fore
SplineSet
667 365 m 1,0,-1
 964 702 l 1,1,-1
 769 1114 l 1,2,-1
 468 771 l 1,3,-1
 667 365 l 1,0,-1
555 -20 m 1,4,-1
 187 738 l 1,5,-1
 884 1530 l 1,6,-1
 1246 741 l 1,7,-1
 555 -20 l 1,4,-1
EndSplineSet
Validated: 1
EndChar

StartChar: AE
Encoding: 198 198 165
Width: 2039
Flags: W
HStem: -40 21G<96 310> 0 210<1383.05 1866> 480 210<662 1107 1472 1731> 1230 300<995.749 1157.68> 1300 210<1478 1974>
VStem: 1049 334<112.5 416.719> 1220 323<817.094 1167.21>
DStem2: 186.929 -40 506.204 -40 0.207912 0.978148<244.298 531.522 812.821 1185.77> 996.508 -40 1316.28 -40 0.207912 0.978148<372.333 531.609 812.908 1105.86>
LayerCount: 2
Fore
SplineSet
1152 690 m 1,0,-1
 1213 980 l 2,1,2
 1220 1014 1220 1014 1220 1044 c 0,3,4
 1220 1114 1220 1114 1181 1162 c 0,5,6
 1123 1230 1123 1230 1019 1230 c 128,-1,7
 915 1230 915 1230 832 1160 c 0,8,9
 747 1088 747 1088 723 980 c 2,10,-1
 662 690 l 1,11,-1
 1152 690 l 1,0,-1
1866 0 m 1,12,-1
 1140 0 l 1,13,14
 1049 54 1049 54 1049 171 c 0,15,16
 1049 207 1049 207 1059 254 c 2,17,-1
 1107 480 l 1,18,-1
 617 480 l 1,19,-1
 584 326 l 2,20,21
 514 0 514 0 106 -40 c 1,22,-1
 96 -40 l 1,23,24
 223 128 223 128 266 332 c 2,25,-1
 297 480 l 1,26,-1
 107 480 l 1,27,-1
 109 490 l 1,28,-1
 319 690 l 1,29,-1
 342 690 l 1,30,-1
 401 970 l 2,31,32
 413 1028 413 1028 446 1076 c 0,33,34
 470 1111 470 1111 536 1158 c 2,35,-1
 993 1484 l 2,36,37
 1057 1530 1057 1530 1110 1530 c 0,38,39
 1175 1530 1175 1530 1220 1510 c 9,40,-1
 2186 1510 l 1,41,-1
 2184 1500 l 1,42,-1
 1974 1300 l 1,43,-1
 1478 1300 l 1,44,45
 1543 1190 1543 1190 1543 1071 c 0,46,47
 1543 1029 1543 1029 1533 981 c 2,48,-1
 1472 690 l 1,49,-1
 1943 690 l 1,50,-1
 1941 680 l 1,51,-1
 1731 480 l 1,52,-1
 1427 480 l 1,53,-1
 1386 288 l 2,54,55
 1383 274 1383 274 1383 258 c 0,56,57
 1383 229 1383 229 1397 210 c 1,58,-1
 2078 210 l 1,59,-1
 2076 200 l 1,60,-1
 1866 0 l 1,12,-1
EndSplineSet
Validated: 19457
EndChar

StartChar: Eth
Encoding: 208 208 166
Width: 1313
Flags: W
HStem: -40 21G<121 349> 579 150<252 253 605 758> 1530 20G<740.923 779 1033.95 1159>
VStem: 1145 334<736.712 1096.99>
DStem2: 121 -40 441.185 -40 0.207912 0.978148<344.647 632.918 852.825 1359.78>
LayerCount: 2
Fore
SplineSet
121 -40 m 1,0,-1
 253 579 l 1,1,-1
 103 579 l 1,2,-1
 105 589 l 1,3,-1
 252 729 l 1,4,-1
 285 729 l 1,5,-1
 404 1290 l 1,6,-1
 769 1550 l 1,7,-1
 779 1550 l 1,8,-1
 605 729 l 1,9,-1
 907 729 l 1,10,-1
 905 719 l 1,11,-1
 758 579 l 1,12,-1
 573 579 l 1,13,-1
 499 232 l 1,14,15
 681 299 681 299 834 404 c 0,16,17
 1078 573 1078 573 1134 838 c 0,18,19
 1145 887 1145 887 1145 932 c 0,20,21
 1145 1070 1145 1070 1045 1169 c 0,22,23
 942 1271 942 1271 731 1294 c 1,24,-1
 1062 1530 l 1,25,26
 1256 1469 1256 1469 1365 1331 c 0,27,28
 1479 1187 1479 1187 1479 992 c 0,29,30
 1479 937 1479 937 1470 878 c 0,31,32
 1405 458 1405 458 960 224 c 0,33,34
 567 16 567 16 131 -40 c 1,35,-1
 121 -40 l 1,0,-1
EndSplineSet
Validated: 1
EndChar

StartChar: Hbar
Encoding: 294 294 167
Width: 1460
Flags: W
HStem: -40 21G<186 224.154 976 1014.15> 480 210<662 1087> 1220 150<453 454 806 1244 1596 1597> 1530 20G<805.889 844 1595.89 1634>
DStem2: 186.471 -40 506.735 -40 0.207912 0.978148<332.395 531.617 812.916 1288.09> 976.471 -40 1296.74 -40 0.207912 0.978148<332.395 531.617 746.384 1288.09>
LayerCount: 2
Fore
SplineSet
186 -40 m 1,0,-1
 297 480 l 1,1,-1
 107 480 l 1,2,-1
 109 490 l 1,3,-1
 319 690 l 1,4,-1
 342 690 l 1,5,-1
 454 1220 l 1,6,-1
 304 1220 l 1,7,-1
 306 1230 l 1,8,-1
 453 1370 l 1,9,-1
 581 1370 l 1,10,-1
 834 1550 l 1,11,-1
 844 1550 l 1,12,-1
 806 1370 l 1,13,-1
 1371 1370 l 1,14,-1
 1624 1550 l 1,15,-1
 1634 1550 l 1,16,-1
 1596 1370 l 1,17,-1
 1746 1370 l 1,18,-1
 1744 1360 l 1,19,-1
 1597 1220 l 1,20,-1
 1564 1220 l 1,21,-1
 1352 220 l 1,22,-1
 986 -40 l 1,23,-1
 976 -40 l 1,24,-1
 1087 480 l 1,25,-1
 617 480 l 1,26,-1
 562 220 l 1,27,-1
 196 -40 l 1,28,-1
 186 -40 l 1,0,-1
1244 1220 m 1,29,-1
 774 1220 l 1,30,-1
 662 690 l 1,31,-1
 1132 690 l 1,32,-1
 1244 1220 l 1,29,-1
EndSplineSet
Validated: 1
EndChar

StartChar: Lslash
Encoding: 321 321 168
Width: 1228
Flags: W
HStem: 0 210<217 240 560 1056> 1120 20G<915.975 974> 1530 20G<805.923 844>
DStem2: 138 566 240 472 0.814415 0.580283<28.5237 108.154 719.225 989.501> 195.363 0 515.363 0 0.207912 0.978148<281.223 529.475 730.903 870.98 1071.43 1318.7>
LayerCount: 2
Fore
SplineSet
1056 0 m 1,0,-1
 5 0 l 1,1,-1
 7 10 l 1,2,-1
 217 210 l 1,3,-1
 240 210 l 1,4,-1
 305 518 l 1,5,-1
 240 472 l 1,6,-1
 230 472 l 1,7,-1
 138 566 l 1,8,-1
 347 715 l 1,9,-1
 469 1290 l 1,10,-1
 834 1550 l 1,11,-1
 844 1550 l 1,12,-1
 724 983 l 1,13,-1
 944 1140 l 1,14,-1
 954 1140 l 1,15,-1
 1047 1047 l 1,16,-1
 682 787 l 1,17,-1
 560 210 l 1,18,-1
 1268 210 l 1,19,-1
 1266 200 l 1,20,-1
 1056 0 l 1,0,-1
EndSplineSet
Validated: 1
EndChar

StartChar: Eng
Encoding: 330 330 169
Width: 1390
Flags: W
HStem: -40 21G<121 159.154> 1230 300<930.944 1092.4> 1530 20G<740.923 779>
VStem: 1156 322<916.658 1165.03>
DStem2: 50.8563 -370 371.592 -370 0.207912 0.978148<669.866 1609.42> 861.702 -370 1181.13 -370 0.207912 0.978148<270.855 1443.37>
LayerCount: 2
Fore
SplineSet
121 -40 m 1,0,-1
 404 1290 l 1,1,-1
 769 1550 l 1,2,-1
 779 1550 l 1,3,-1
 736 1347 l 1,4,-1
 928 1484 l 2,5,6
 992 1530 992 1530 1045 1530 c 0,7,8
 1094 1530 1094 1530 1143 1514 c 0,9,10
 1302 1462 1302 1462 1390 1336 c 128,-1,11
 1478 1210 1478 1210 1478 1071 c 0,12,13
 1478 1028 1478 1028 1468 981 c 2,14,-1
 1267 34 l 2,15,16
 1181 -370 1181 -370 639 -370 c 1,17,-1
 641 -360 l 1,18,19
 884 -261 884 -261 948 36 c 2,20,-1
 1149 981 l 2,21,22
 1156 1014 1156 1014 1156 1044 c 0,23,24
 1156 1114 1156 1114 1116 1162 c 0,25,26
 1057 1230 1057 1230 954 1230 c 0,27,28
 852 1230 852 1230 767 1160 c 128,-1,29
 682 1090 682 1090 659 981 c 2,30,-1
 497 220 l 1,31,-1
 131 -40 l 1,32,-1
 121 -40 l 1,0,-1
EndSplineSet
Validated: 1
EndChar

StartChar: Oslash
Encoding: 216 216 170
Width: 1290
Flags: W
HStem: -20 288<567.246 730.859> 1242 288<880.136 1044.18>
VStem: 183 312<398.567 692.906> 1116 312<817.094 1114.06>
DStem2: 64.4033 -76 373.403 -76 0.207912 0.978148<619.622 1220.23> 227 -15 296 -76 0.56183 0.827253<0 153.346 496.751 1428.08 1770.39 1924.83> 883.403 -76 1194.07 -76 0.207912 0.978148<543.23 1143.94>
LayerCount: 2
Fore
SplineSet
908 1242 m 0,0,1
 809 1242 809 1242 716 1170 c 128,-1,2
 623 1098 623 1098 599 981 c 2,3,-1
 502 529 l 2,4,5
 495 495 495 495 495 465 c 0,6,7
 495 427 495 427 506 396 c 1,8,-1
 1048 1194 l 1,9,10
 990 1242 990 1242 908 1242 c 0,0,1
703 268 m 0,11,12
 802 268 802 268 894.5 340 c 128,-1,13
 987 412 987 412 1012 529 c 2,14,-1
 1109 981 l 2,15,16
 1116 1015 1116 1015 1116 1045 c 0,17,18
 1116 1083 1116 1083 1105 1115 c 1,19,-1
 562 317 l 1,20,21
 620 268 620 268 703 268 c 0,11,12
616 -20 m 0,22,23
 567 -20 567 -20 518 -4 c 0,24,25
 445 20 445 20 387 59 c 1,26,-1
 296 -76 l 1,27,-1
 286 -76 l 1,28,-1
 227 -15 l 1,29,-1
 317 119 l 1,30,31
 292 145 292 145 271 174 c 0,32,33
 183 300 183 300 183 439 c 0,34,35
 183 482 183 482 193 529 c 2,36,-1
 286 970 l 2,37,38
 299 1032 299 1032 331 1076 c 0,39,40
 358 1113 358 1113 421 1158 c 2,41,-1
 878 1484 l 2,42,43
 942 1530 942 1530 995 1530 c 0,44,45
 1044 1530 1044 1530 1093 1514 c 0,46,47
 1166 1490 1166 1490 1223 1451 c 1,48,-1
 1315 1587 l 1,49,-1
 1323 1587 l 1,50,-1
 1384 1526 l 1,51,-1
 1294 1392 l 1,52,53
 1319 1366 1319 1366 1340 1336 c 0,54,55
 1428 1210 1428 1210 1428 1071 c 0,56,57
 1428 1028 1428 1028 1418 981 c 2,58,-1
 1325 540 l 2,59,60
 1312 478 1312 478 1280 434 c 0,61,62
 1253 397 1253 397 1190 352 c 2,63,-1
 733 26 l 2,64,65
 669 -20 669 -20 616 -20 c 0,22,23
EndSplineSet
Validated: 1
EndChar

StartChar: OE
Encoding: 338 338 171
Width: 1923
Flags: W
HStem: -20 300<572.372 729.786> 0 210<1254 1750> 480 210<1356 1615> 1230 300<879.213 1036.72> 1300 210<1362 1858>
VStem: 182 323<348.505 692.906> 1104 323<817.938 1162.38>
DStem2: 75.3064 -20 394.306 -20 0.207912 0.978148<570.435 1164.51> 884.306 -20 1204.72 -20 0.207912 0.978148<402.138 577.788 792.555 1080.71>
LayerCount: 2
Fore
SplineSet
1750 0 m 1,0,-1
 889 0 l 1,1,-1
 924 163 l 1,2,-1
 732 26 l 2,3,4
 668 -20 668 -20 615 -20 c 0,5,6
 566 -20 566 -20 517 -4 c 0,7,8
 358 48 358 48 270 174 c 128,-1,9
 182 300 182 300 182 439 c 0,10,11
 182 482 182 482 192 529 c 2,12,-1
 285 970 l 2,13,14
 298 1032 298 1032 330 1076 c 0,15,16
 357 1113 357 1113 420 1158 c 2,17,-1
 877 1484 l 2,18,19
 941 1530 941 1530 993.5 1530 c 128,-1,20
 1046 1530 1046 1530 1104 1510 c 9,21,-1
 2070 1510 l 1,22,-1
 2068 1500 l 1,23,-1
 1858 1300 l 1,24,-1
 1362 1300 l 1,25,26
 1427 1190 1427 1190 1427 1071 c 0,27,28
 1427 1029 1427 1029 1417 981 c 2,29,-1
 1356 690 l 1,30,-1
 1827 690 l 1,31,-1
 1825 680 l 1,32,-1
 1615 480 l 1,33,-1
 1311 480 l 1,34,-1
 1254 210 l 1,35,-1
 1962 210 l 1,36,-1
 1960 200 l 1,37,-1
 1750 0 l 1,0,-1
1001 529 m 2,38,-1
 1098 981 l 2,39,40
 1104 1012 1104 1012 1104 1039 c 0,41,42
 1104 1110 1104 1110 1062 1160 c 0,43,44
 1003 1230 1003 1230 904 1230 c 128,-1,45
 805 1230 805 1230 717.5 1158 c 128,-1,46
 630 1086 630 1086 608 981 c 2,47,-1
 511 529 l 2,48,49
 505 498 505 498 505 471 c 0,50,51
 505 400 505 400 547 350 c 0,52,53
 606 280 606 280 705 280 c 128,-1,54
 804 280 804 280 891.5 352 c 128,-1,55
 979 424 979 424 1001 529 c 2,38,-1
EndSplineSet
Validated: 1
EndChar

StartChar: longs
Encoding: 383 383 172
Width: 1108
Flags: W
HStem: -40 21G<256 294.085> 734 180<356 421> 1250 280<952.235 1095.63>
DStem2: 256 -40 546.049 -40 0.207912 0.978148<300.555 791.392 975.359 1281.75>
LayerCount: 2
Fore
SplineSet
256 -40 m 1,0,-1
 421 734 l 1,1,-1
 176 734 l 1,2,-1
 178 744 l 1,3,-1
 356 914 l 1,4,-1
 459 914 l 1,5,-1
 493 1071 l 2,6,7
 507 1135 507 1135 540 1177 c 0,8,9
 571 1215 571 1215 628 1255 c 2,10,-1
 952 1485 l 2,11,12
 1016 1530 1016 1530 1074 1530 c 0,13,14
 1126 1530 1126 1530 1161 1522 c 0,15,16
 1283 1493 1283 1493 1354 1410 c 0,17,18
 1376 1384 1376 1384 1391 1354 c 1,19,-1
 1130 1152 l 1,20,21
 1118 1183 1118 1183 1093 1208 c 0,22,23
 1053 1250 1053 1250 983 1250 c 0,24,25
 911 1250 911 1250 859 1208 c 0,26,27
 803 1164 803 1164 785 1083 c 2,28,-1
 596 195 l 1,29,-1
 266 -40 l 1,30,-1
 256 -40 l 1,0,-1
EndSplineSet
Validated: 1
EndChar

StartChar: florin
Encoding: 402 402 173
Width: 1053
Flags: W
HStem: -450 21G<13 224> 734 180<356 366 694 866> 1250 280<897.235 1040.45>
DStem2: 114.591 -450 404.591 -450 0.207912 0.978148<265.49 1210.4 1454.66 1701.19>
LayerCount: 2
Fore
SplineSet
13 -450 m 1,0,1
 144 -310 144 -310 196 -67 c 2,2,-1
 366 734 l 1,3,-1
 176 734 l 1,4,-1
 178 744 l 1,5,-1
 356 914 l 1,6,-1
 404 914 l 1,7,-1
 438 1071 l 2,8,9
 452 1135 452 1135 485 1177 c 0,10,11
 516 1215 516 1215 573 1255 c 2,12,-1
 897 1485 l 2,13,14
 961 1530 961 1530 1019 1530 c 0,15,16
 1070 1530 1070 1530 1106 1522 c 0,17,18
 1226 1495 1226 1495 1299 1410 c 0,19,20
 1321 1384 1321 1384 1336 1354 c 1,21,-1
 1075 1152 l 1,22,23
 1063 1183 1063 1183 1038 1208 c 0,24,25
 998 1250 998 1250 928 1250 c 0,26,27
 856 1250 856 1250 804 1208 c 0,28,29
 748 1164 748 1164 730 1083 c 2,30,-1
 694 914 l 1,31,-1
 1046 914 l 1,32,-1
 1044 904 l 1,33,-1
 866 734 l 1,34,-1
 656 734 l 1,35,-1
 486 -67 l 2,36,37
 425 -354 425 -354 23 -450 c 1,38,-1
 13 -450 l 1,0,1
EndSplineSet
Validated: 1
EndChar

StartChar: thorn
Encoding: 254 254 174
Width: 1120
Flags: W
HStem: -450 21G<34 72.0851> -20 280<533.453 673.765> 840 280<729.04 871.371> 1530 20G<710.915 749>
VStem: 899 303<616.411 797.12>
DStem2: 34 -450 324.049 -450 0.207912 0.978148<300.555 556.111 911.618 1342.65 1549.91 1804.4>
LayerCount: 2
Fore
SplineSet
555 -20 m 0,0,1
 473 -20 473 -20 427 35 c 9,2,-1
 374 -215 l 1,3,-1
 44 -450 l 1,4,-1
 34 -450 l 1,5,-1
 409 1315 l 1,6,-1
 739 1550 l 1,7,-1
 749 1550 l 1,8,-1
 634 1007 l 1,9,-1
 729 1075 l 2,10,11
 792 1120 792 1120 852 1120 c 0,12,13
 894 1120 894 1120 936 1106 c 0,14,15
 1043 1070 1043 1070 1117 981 c 0,16,17
 1202 879 1202 879 1202 756 c 0,18,19
 1202 715 1202 715 1193 673 c 2,20,-1
 1145 448 l 2,21,22
 1131 383 1131 383 1098 342 c 0,23,24
 1066 304 1066 304 1010 264 c 2,25,-1
 674 25 l 2,26,27
 611 -20 611 -20 555 -20 c 0,0,1
761 840 m 128,-1,29
 691 840 691 840 637 798 c 0,30,31
 581 754 581 754 563 673 c 2,32,-1
 511 427 l 2,33,34
 506 402 506 402 506 381 c 0,35,36
 506 332 506 332 533 302 c 0,37,38
 573 260 573 260 643 260 c 0,39,40
 715 260 715 260 767 302 c 0,41,42
 823 346 823 346 841 427 c 2,43,-1
 893 673 l 2,44,45
 899 699 899 699 899 721 c 0,46,47
 899 770 899 770 871 798 c 0,48,28
 831 840 831 840 761 840 c 128,-1,29
EndSplineSet
Validated: 1
EndChar

StartChar: eth
Encoding: 240 240 175
Width: 1101
Flags: W
HStem: -20 280<483.785 624.423> 840 280<680.735 822.662> 1530 20G<681.19 764.5>
VStem: 152 304<302.88 482.614> 931 279<1061 1197.03>
DStem2: 563 1264 529 1074 0.814941 0.579544<0 105.437 480.965 588.612>
LayerCount: 2
Fore
SplineSet
502 -20 m 0,0,1
 460 -20 460 -20 418 -6 c 0,2,3
 309 31 309 31 237 119 c 0,4,5
 152 222 152 222 152 344 c 0,6,7
 152 386 152 386 161 427 c 2,8,-1
 210 652 l 2,9,10
 224 716 224 716 257 758 c 0,11,12
 286 794 286 794 345 836 c 2,13,-1
 680 1075 l 2,14,15
 743 1120 743 1120 803 1120 c 0,16,17
 873 1120 873 1120 931 1061 c 1,18,19
 924 1203 924 1203 805 1271 c 1,20,-1
 529 1074 l 1,21,-1
 525 1082 l 1,22,-1
 563 1264 l 1,23,-1
 649 1325 l 1,24,25
 557 1340 557 1340 417 1340 c 1,26,-1
 709 1550 l 1,27,28
 820 1545 820 1545 910 1511 c 1,29,-1
 1154 1685 l 1,30,-1
 1158 1677 l 1,31,-1
 1121 1495 l 1,32,-1
 1033 1433 l 1,33,34
 1072 1403 1072 1403 1111 1350 c 0,35,36
 1210 1214 1210 1214 1210 1048 c 0,37,38
 1210 985 1210 985 1196 917 c 2,39,-1
 1096 448 l 2,40,41
 1082 383 1082 383 1049 342 c 0,42,43
 1020 306 1020 306 961 264 c 2,44,-1
 625 25 l 2,45,46
 562 -20 562 -20 502 -20 c 0,0,1
594 260 m 128,-1,48
 664 260 664 260 718 302 c 0,49,50
 774 346 774 346 792 427 c 2,51,-1
 844 673 l 2,52,53
 849 698 849 698 849 719 c 0,54,55
 849 768 849 768 822 798 c 0,56,57
 782 840 782 840 712 840 c 0,58,59
 640 840 640 840 588 798 c 0,60,61
 532 754 532 754 514 673 c 2,62,-1
 462 427 l 2,63,64
 456 401 456 401 456 379 c 0,65,66
 456 330 456 330 484 302 c 0,67,47
 524 260 524 260 594 260 c 128,-1,48
EndSplineSet
Validated: 1
EndChar

StartChar: oslash
Encoding: 248 248 176
Width: 1071
Flags: W
HStem: -20 273<481 624.96> 847 273<680.54 824>
VStem: 152 295<339.909 592.258> 858 295<505.984 759.591>
DStem2: 201 -35 270 -95 0.561353 0.827576<0 139.111 451.536 1022.8 1336.28 1475.73>
LayerCount: 2
Fore
SplineSet
713 847 m 0,0,1
 643 847 643 847 589 805 c 0,2,3
 521 752 521 752 504 673 c 2,4,-1
 452 427 l 2,5,6
 447 404 447 404 447 384 c 0,7,8
 447 360 447 360 454 339 c 1,9,-1
 789 831 l 1,10,11
 757 847 757 847 713 847 c 0,0,1
593 253 m 0,12,13
 663 253 663 253 717 295 c 0,14,15
 785 348 785 348 802 427 c 2,16,-1
 854 673 l 2,17,18
 858 694 858 694 858 714 c 0,19,20
 858 739 858 739 851 760 c 1,21,-1
 517 269 l 1,22,23
 549 253 549 253 593 253 c 0,12,13
502 -20 m 0,24,25
 460 -20 460 -20 418 -6 c 0,26,27
 383 6 383 6 351 23 c 1,28,-1
 270 -95 l 1,29,-1
 260 -95 l 1,30,-1
 201 -35 l 1,31,-1
 277 76 l 1,32,33
 256 96 256 96 237 119 c 0,34,35
 152 221 152 221 152 344 c 0,36,37
 152 386 152 386 161 427 c 2,38,-1
 210 652 l 2,39,40
 224 716 224 716 257 758 c 0,41,42
 286 794 286 794 345 836 c 2,43,-1
 680 1075 l 2,44,45
 743 1120 743 1120 803 1120 c 0,46,47
 845 1120 845 1120 887 1106 c 0,48,49
 923 1094 923 1094 955 1076 c 1,50,-1
 1036 1196 l 1,51,-1
 1046 1196 l 1,52,-1
 1105 1135 l 1,53,-1
 1028 1023 l 1,54,55
 1049 1004 1049 1004 1068 981 c 0,56,57
 1153 879 1153 879 1153 756 c 0,58,59
 1153 715 1153 715 1144 673 c 2,60,-1
 1096 448 l 2,61,62
 1082 385 1082 385 1049 342 c 0,63,64
 1020 306 1020 306 961 264 c 2,65,-1
 625 25 l 2,66,67
 562 -20 562 -20 502 -20 c 0,24,25
EndSplineSet
Validated: 1
EndChar

StartChar: oe
Encoding: 339 339 177
Width: 1705
Flags: W
HStem: -20 275<483.639 623.995 1113.41 1259.19> 845 275<680.413 820.267 1315.69 1459.5>
VStem: 152 300<303.004 482.614>
DStem2: 1100 467 1109 306 0.814058 0.580783<0 486.641> 1762 594 1596 264 0.813868 0.58105<-633.941 -144.15>
LayerCount: 2
Fore
SplineSet
502 -20 m 0,0,1
 460 -20 460 -20 418 -6 c 0,2,3
 309 31 309 31 237 119 c 0,4,5
 152 221 152 221 152 344 c 0,6,7
 152 386 152 386 161 427 c 2,8,-1
 210 652 l 2,9,10
 223 713 223 713 257 758 c 0,11,12
 282 791 282 791 345 836 c 2,13,-1
 680 1075 l 2,14,15
 743 1120 743 1120 803 1120 c 0,16,17
 845 1120 845 1120 887 1106 c 0,18,19
 991 1071 991 1071 1068 981 c 0,20,21
 1092 953 1092 953 1107 926 c 1,22,-1
 1315 1075 l 2,23,24
 1378 1120 1378 1120 1438 1120 c 0,25,26
 1480 1120 1480 1120 1522 1106 c 0,27,28
 1631 1069 1631 1069 1703 981 c 0,29,30
 1776 893 1776 893 1786 789 c 1,31,-1
 1109 306 l 1,32,33
 1143 250 1143 250 1227 250 c 0,34,35
 1280 250 1280 250 1353 302 c 2,36,-1
 1762 594 l 1,37,-1
 1731 448 l 2,38,39
 1718 387 1718 387 1684 342 c 0,40,41
 1658 308 1658 308 1596 264 c 2,42,-1
 1260 25 l 2,43,44
 1197 -20 1197 -20 1137 -20 c 0,45,46
 1095 -20 1095 -20 1053 -6 c 0,47,48
 951 29 951 29 872 119 c 0,49,50
 851 143 851 143 834 174 c 1,51,-1
 625 25 l 2,52,53
 562 -20 562 -20 502 -20 c 0,0,1
593 255 m 128,-1,55
 663 255 663 255 720 302 c 0,56,57
 780 351 780 351 797 427 c 2,58,-1
 849 673 l 2,59,60
 853 694 853 694 853 712 c 0,61,62
 853 761 853 761 823 798 c 0,63,64
 783 845 783 845 713 845 c 0,65,66
 648 845 648 845 588 798 c 0,67,68
 526 749 526 749 509 673 c 2,69,-1
 457 427 l 2,70,71
 452 404 452 404 452 384 c 0,72,73
 452 334 452 334 481 302 c 0,74,54
 523 255 523 255 593 255 c 128,-1,55
1487 742 m 1,75,76
 1481 775 1481 775 1460 800 c 0,77,78
 1423 845 1423 845 1351 845 c 0,79,80
 1280 845 1280 845 1223 798 c 0,81,82
 1160 747 1160 747 1144 673 c 2,83,-1
 1100 467 l 1,84,-1
 1487 742 l 1,75,76
EndSplineSet
Validated: 1
EndChar

StartChar: eng
Encoding: 331 331 178
Width: 1140
Flags: W
HStem: -40 21G<121 159.085> 840 280<729.735 871.371> 1120 20G<623.915 662>
VStem: 898 304<609.823 797.058>
DStem2: 50.8563 -370 340.906 -370 0.207912 0.978148<637.927 1260.9> 671.702 -370 971.127 -370 0.207912 0.978148<267.026 1111.61>
LayerCount: 2
Fore
SplineSet
121 -40 m 1,0,-1
 322 905 l 1,1,-1
 652 1140 l 1,2,-1
 662 1140 l 1,3,-1
 634 1007 l 1,4,-1
 729 1075 l 2,5,6
 792 1120 792 1120 852 1120 c 0,7,8
 894 1120 894 1120 936 1106 c 0,9,10
 1043 1070 1043 1070 1117 981 c 0,11,12
 1202 879 1202 879 1202 756 c 0,13,14
 1202 715 1202 715 1193 673 c 2,15,-1
 1057 34 l 2,16,17
 971 -370 971 -370 449 -370 c 1,18,-1
 451 -360 l 1,19,20
 694 -261 694 -261 758 36 c 2,21,-1
 893 673 l 2,22,23
 898 698 898 698 898 719 c 0,24,25
 898 768 898 768 871 798 c 0,26,27
 831 840 831 840 761 840 c 0,28,29
 689 840 689 840 637 798 c 0,30,31
 581 754 581 754 563 673 c 2,32,-1
 461 195 l 1,33,-1
 131 -40 l 1,34,-1
 121 -40 l 1,0,-1
EndSplineSet
Validated: 1
EndChar

StartChar: ae
Encoding: 230 230 179
Width: 1618
Flags: W
HStem: -20 270<1028.23 1171.19> -20 230<415.472 554.058> 511 231<537.061 684.113> 855 265<582.247 747.902 1227.69 1362.01>
VStem: 93 292<246.814 395.473>
DStem2: 1012 467 1021 306 0.814463 0.580215<0 486.546> 1227 1075 1699 789 0.814463 0.580215<-235.65 124.78> 1674 594 1508 264 0.813868 0.58105<-633.941 -144.15>
LayerCount: 2
Fore
SplineSet
440 -20 m 0,0,1
 275 -20 275 -20 177 72 c 0,2,3
 93 151 93 151 93 264 c 0,4,5
 93 284 93 284 95 304 c 0,6,7
 100 355 100 355 144 403 c 0,8,9
 178 441 178 441 223 473 c 2,10,-1
 542 701 l 2,11,12
 599 742 599 742 655 742 c 0,13,14
 728 742 728 742 796 675 c 1,15,16
 796 766 796 766 747 814 c 0,17,18
 709 855 709 855 634 855 c 0,19,20
 557 855 557 855 492 808 c 1,21,-1
 397 943 l 1,22,-1
 582 1075 l 2,23,24
 645 1120 645 1120 705 1120 c 0,25,26
 753 1120 753 1120 801 1104 c 0,27,28
 901 1070 901 1070 974 988 c 0,29,30
 999 960 999 960 1018 927 c 1,31,-1
 1227 1075 l 2,32,33
 1291 1120 1291 1120 1350 1120 c 0,34,35
 1392 1120 1392 1120 1434 1106 c 0,36,37
 1543 1069 1543 1069 1615 981 c 0,38,39
 1690 891 1690 891 1699 789 c 1,40,-1
 1021 306 l 1,41,42
 1052 250 1052 250 1139 250 c 0,43,44
 1192 250 1192 250 1265 302 c 2,45,-1
 1674 594 l 1,46,-1
 1643 448 l 2,47,48
 1630 387 1630 387 1596 342 c 0,49,50
 1570 308 1570 308 1508 264 c 2,51,-1
 1172 25 l 2,52,53
 1109 -20 1109 -20 1049 -20 c 0,54,55
 1007 -20 1007 -20 965 -6 c 0,56,57
 852 32 852 32 784 119 c 0,58,59
 766 142 766 142 751 165 c 1,60,-1
 550 21 l 2,61,62
 493 -20 493 -20 440 -20 c 0,0,1
389 359 m 0,63,64
 385 342 385 342 385 327 c 0,65,66
 385 283 385 283 415 253 c 0,67,68
 457 210 457 210 518 210 c 0,69,70
 585 210 585 210 643 257 c 0,71,72
 697 301 697 301 709 359 c 0,73,74
 713 377 713 377 713 392 c 0,75,76
 713 435 713 435 685 467 c 0,77,78
 646 511 646 511 582 511 c 0,79,80
 519 511 519 511 459 464 c 0,81,82
 402 420 402 420 389 359 c 0,63,64
1399 742 m 1,83,84
 1393 775 1393 775 1372 800 c 0,85,86
 1335 845 1335 845 1263 845 c 0,87,88
 1192 845 1192 845 1135 798 c 0,89,90
 1072 747 1072 747 1058 681 c 2,91,-1
 1012 467 l 1,92,-1
 1399 742 l 1,83,84
EndSplineSet
Validated: 1
EndChar

StartChar: kgreenlandic
Encoding: 312 312 180
Width: 1140
Flags: W
HStem: -40 21G<121 159.085 741 779.148> 1120 20G<623.915 662 1109.95 1167.65>
VStem: 842 303<350.034 530.089>
DStem2: 121 -40 411.049 -40 0.207912 0.978148<300.555 650.437 857.763 966.14> 577 740 951 807 0.814224 0.580552<343.417 689>
LayerCount: 2
Fore
SplineSet
121 -40 m 1,0,-1
 322 905 l 1,1,-1
 652 1140 l 1,2,-1
 662 1140 l 1,3,-1
 577 740 l 1,4,-1
 1138 1140 l 1,5,-1
 1148 1140 l 1,6,-1
 1259 1027 l 1,7,-1
 951 807 l 1,8,9
 1012 773 1012 773 1060 714 c 0,10,11
 1145 610 1145 610 1145 489 c 0,12,13
 1145 448 1145 448 1136 406 c 2,14,-1
 1093 203 l 1,15,-1
 751 -40 l 1,16,-1
 741 -40 l 1,17,-1
 836 406 l 2,18,19
 842 432 842 432 842 454 c 0,20,21
 842 502 842 502 814 531 c 0,22,23
 774 573 774 573 704 573 c 0,24,25
 632 573 632 573 580 531 c 0,26,27
 523 486 523 486 506 406 c 2,28,-1
 461 195 l 1,29,-1
 131 -40 l 1,30,-1
 121 -40 l 1,0,-1
EndSplineSet
Validated: 1
EndChar

StartChar: lslash
Encoding: 322 322 181
Width: 816
Flags: W
HStem: -40 21G<254 292.085> 1120 20G<902.93 961> 1530 20G<844 882>
DStem2: 125 566 227 472 0.814415 0.580283<28.5237 225.797 793.042 989.501> 254 -40 544.049 -40 0.207912 0.978148<300.555 640.181 841.4 949.746 1150.2 1385.48>
LayerCount: 2
Fore
SplineSet
254 -40 m 1,0,-1
 388 586 l 1,1,-1
 227 472 l 1,2,-1
 217 472 l 1,3,-1
 125 566 l 1,4,-1
 429 783 l 1,5,-1
 543 1315 l 1,6,-1
 872 1550 l 1,7,-1
 882 1550 l 1,8,-1
 771 1026 l 1,9,-1
 931 1140 l 1,10,-1
 941 1140 l 1,11,-1
 1034 1047 l 1,12,-1
 729 830 l 1,13,-1
 594 195 l 1,14,-1
 264 -40 l 1,15,-1
 254 -40 l 1,0,-1
EndSplineSet
Validated: 1
EndChar

StartChar: multiply
Encoding: 215 215 182
Width: 1168
Flags: W
HStem: 443 624
DStem2: 567 755 543 443 0.7714 0.636351<-217.055 -4.63812 278.485 490.902>
LayerCount: 2
Fore
SplineSet
1252 1039 m 1,0,-1
 1257 1032 l 1,1,-1
 921 755 l 1,2,-1
 1140 478 l 1,3,-1
 1131 471 l 1,4,-1
 813 443 l 1,5,-1
 707 578 l 1,6,-1
 543 443 l 1,7,-1
 237 471 l 1,8,-1
 232 478 l 1,9,-1
 567 755 l 1,10,-1
 349 1032 l 1,11,-1
 358 1039 l 1,12,-1
 676 1067 l 1,13,-1
 782 932 l 1,14,-1
 946 1067 l 1,15,-1
 1252 1039 l 1,0,-1
EndSplineSet
Validated: 1
EndChar

StartChar: divide
Encoding: 247 247 183
Width: 1194
Flags: W
HStem: 630 250<468 1047>
VStem: 491 374<320.382 446.618> 649 375<1066.65 1191.62>
LayerCount: 2
Fore
SplineSet
468 880 m 1,0,-1
 1301 880 l 1,1,-1
 1299 870 l 1,2,-1
 1047 630 l 1,3,-1
 214 630 l 1,4,-1
 216 640 l 1,5,-1
 468 880 l 1,0,-1
895 1315 m 0,6,7
 914 1315 914 1315 935 1306 c 0,8,9
 980 1287 980 1287 1002 1245 c 0,10,11
 1024 1206 1024 1206 1024 1165 c 0,12,13
 1024 1148 1024 1148 1020 1131 c 0,14,15
 1011 1088 1011 1088 971 1060 c 2,16,-1
 836 963 l 2,17,18
 807 942 807 942 779 942 c 0,19,20
 760 942 760 942 738 951 c 0,21,22
 695 969 695 969 671 1012 c 0,23,24
 649 1052 649 1052 649 1094 c 0,25,26
 649 1110 649 1110 652 1126 c 0,27,28
 661 1169 661 1169 701 1197 c 2,29,-1
 838 1294 l 2,30,31
 868 1315 868 1315 895 1315 c 0,6,7
621 197 m 0,32,33
 602 197 602 197 580 206 c 0,34,35
 537 224 537 224 513 267 c 0,36,37
 491 307 491 307 491 349 c 0,38,39
 491 365 491 365 494 381 c 0,40,41
 503 424 503 424 543 452 c 2,42,-1
 680 549 l 2,43,44
 709 570 709 570 736 570 c 0,45,46
 755 570 755 570 776 561 c 0,47,48
 821 542 821 542 843 500 c 0,49,50
 865 460 865 460 865 418 c 0,51,52
 865 402 865 402 862 386 c 0,53,54
 853 343 853 343 813 315 c 2,55,-1
 677 218 l 2,56,57
 648 197 648 197 621 197 c 0,32,33
EndSplineSet
Validated: 1
EndChar

StartChar: germandbls
Encoding: 223 223 184
Width: 1190
Flags: W
HStem: -40 21G<121 159.085> -20 280<588.951 722.879> 1255 275<817.038 964.558>
VStem: 913 301<460.142 655.974> 991 299<1030.19 1219.09>
DStem2: 121 -40 411.049 -40 0.207912 0.978148<300.555 1281.28>
LayerCount: 2
Fore
SplineSet
121 -40 m 1,0,-1
 356 1063 l 2,1,2
 370 1127 370 1127 403 1173 c 0,3,4
 429 1209 429 1209 491 1253 c 2,5,-1
 817 1485 l 2,6,7
 880 1530 880 1530 940 1530 c 0,8,9
 982 1530 982 1530 1024 1516 c 0,10,11
 1133 1479 1133 1479 1205 1391 c 0,12,13
 1290 1289 1290 1289 1290 1166 c 24,14,15
 1290 1037 1290 1037 1154 941 c 2,16,-1
 1044 863 l 1,17,18
 1087 844 1087 844 1129 800 c 0,19,20
 1214 713 1214 713 1214 575 c 0,21,22
 1214 534 1214 534 1205 492 c 2,23,-1
 1196 452 l 2,24,25
 1181 386 1181 386 1156 352 c 0,26,27
 1126 312 1126 312 1060 265 c 2,28,-1
 725 26 l 2,29,30
 661 -20 661 -20 602 -20 c 0,31,32
 460 -20 460 -20 378 77 c 1,33,-1
 663 277 l 1,34,-1
 673 277 l 1,35,36
 684 260 684 260 706 260 c 0,37,38
 766 261 766 261 820 305 c 128,-1,39
 874 349 874 349 893 438 c 2,40,-1
 907 504 l 2,41,42
 913 535 913 535 913 560 c 0,43,44
 913 683 913 683 759 683 c 2,45,-1
 638 683 l 1,46,-1
 662 797 l 1,47,-1
 880 952 l 2,48,49
 970 1016 970 1016 987 1096 c 0,50,51
 991 1117 991 1117 991 1135 c 0,52,53
 991 1181 991 1181 964 1213 c 0,54,55
 928 1255 928 1255 853 1255 c 128,-1,56
 778 1255 778 1255 728 1214 c 0,57,58
 668 1165 668 1165 648 1072 c 2,59,-1
 461 195 l 1,60,-1
 131 -40 l 1,61,-1
 121 -40 l 1,0,-1
EndSplineSet
Validated: 1
EndChar

StartChar: Thorn
Encoding: 222 222 185
Width: 1252
Flags: W
HStem: -40 21G<121 159.154> 253 216<550 739.404> 1530 20G<740.923 779>
VStem: 1068 342<733.32 953.455>
DStem2: 121 -40 441.735 -40 0.207912 0.978148<332.493 379.56 587.071 1359.78>
LayerCount: 2
Fore
SplineSet
121 -40 m 1,0,-1
 404 1290 l 1,1,-1
 769 1550 l 1,2,-1
 779 1550 l 1,3,-1
 550 469 l 1,4,5
 723 480 723 480 879.5 582 c 128,-1,6
 1036 684 1036 684 1064 816 c 0,7,8
 1068 834 1068 834 1068 852 c 0,9,10
 1068 947 1068 947 947 1005 c 0,11,12
 864 1045 864 1045 678 1045 c 1,13,-1
 1009 1281 l 1,14,15
 1190 1272 1190 1272 1311 1156 c 0,16,17
 1410 1062 1410 1062 1410 923 c 0,18,19
 1410 892 1410 892 1405 859 c 0,20,21
 1370 617 1370 617 1053 426 c 0,22,23
 827 291 827 291 504 253 c 1,24,-1
 497 220 l 1,25,-1
 131 -40 l 1,26,-1
 121 -40 l 1,0,-1
EndSplineSet
Validated: 1
EndChar

StartChar: circumflex
Encoding: 710 710 186
Width: 649
Flags: W
HStem: 1151 419
VStem: 295 609
LayerCount: 2
Fore
SplineSet
614 1570 m 1,0,-1
 624 1570 l 1,1,-1
 725 1467 l 1,2,3
 769 1331 769 1331 904 1295 c 1,4,-1
 703 1151 l 1,5,-1
 693 1151 l 1,6,7
 634 1217 634 1217 615 1320 c 1,8,9
 563 1215 563 1215 446 1151 c 1,10,-1
 436 1151 l 1,11,-1
 295 1294 l 1,12,13
 473 1340 473 1340 614 1570 c 1,0,-1
EndSplineSet
Validated: 1
EndChar

StartChar: caron
Encoding: 711 711 187
Width: 649
Flags: W
HStem: 1151 419
VStem: 323 609
LayerCount: 2
Fore
SplineSet
524 1570 m 1,0,-1
 534 1570 l 1,1,2
 592 1508 592 1508 612 1401 c 1,3,4
 664 1506 664 1506 781 1570 c 1,5,-1
 791 1570 l 1,6,-1
 932 1427 l 1,7,8
 754 1381 754 1381 613 1151 c 1,9,-1
 603 1151 l 1,10,-1
 502 1254 l 1,11,12
 458 1390 458 1390 323 1426 c 1,13,-1
 524 1570 l 1,0,-1
EndSplineSet
Validated: 1
EndChar

StartChar: uni02C9
Encoding: 713 713 188
Width: 735
Flags: W
HStem: 1272 180<471 843>
LayerCount: 2
Fore
SplineSet
471 1452 m 1,0,-1
 1024 1452 l 1,1,-1
 1022 1442 l 1,2,-1
 843 1272 l 1,3,-1
 290 1272 l 1,4,-1
 292 1282 l 1,5,-1
 471 1452 l 1,0,-1
EndSplineSet
Validated: 1
EndChar

StartChar: breve
Encoding: 728 728 189
Width: 628
Flags: W
HStem: 1207 162<522.755 651.631>
VStem: 328 181<1391.28 1483>
LayerCount: 2
Fore
SplineSet
335 1483 m 1,0,-1
 512 1483 l 1,1,2
 509 1468 509 1468 509 1454 c 0,3,4
 509 1423 509 1423 526 1402 c 0,5,6
 552 1369 552 1369 604 1369 c 0,7,8
 657 1369 657 1369 697 1403 c 0,9,10
 735 1434 735 1434 745 1483 c 1,11,-1
 923 1483 l 1,12,13
 917 1456 917 1456 901 1436 c 0,14,15
 883 1415 883 1415 844 1387 c 2,16,-1
 631 1236 l 2,17,18
 590 1207 590 1207 554 1207 c 0,19,20
 521 1207 521 1207 499 1212 c 0,21,22
 419 1230 419 1230 376 1283 c 0,23,24
 328 1342 328 1342 328 1420 c 0,25,26
 328 1450 328 1450 335 1483 c 1,0,-1
EndSplineSet
Validated: 1
EndChar

StartChar: dotaccent
Encoding: 729 729 190
Width: 407
Flags: W
HStem: 1170 373<461.891 522.875>
VStem: 305 374<1293.38 1419.62>
LayerCount: 2
Fore
SplineSet
435 1170 m 0,0,1
 416 1170 416 1170 394 1179 c 0,2,3
 351 1197 351 1197 327 1240 c 0,4,5
 305 1280 305 1280 305 1322 c 0,6,7
 305 1338 305 1338 308 1354 c 0,8,9
 317 1397 317 1397 357 1425 c 2,10,-1
 494 1522 l 2,11,12
 523 1543 523 1543 550 1543 c 0,13,14
 569 1543 569 1543 590 1534 c 0,15,16
 635 1515 635 1515 657 1473 c 0,17,18
 679 1433 679 1433 679 1391 c 0,19,20
 679 1375 679 1375 676 1359 c 0,21,22
 667 1316 667 1316 627 1288 c 2,23,-1
 491 1191 l 2,24,25
 462 1170 462 1170 435 1170 c 0,0,1
EndSplineSet
Validated: 1
EndChar

StartChar: ring
Encoding: 730 730 191
Width: 455
Flags: W
HStem: 1160 114<438.252 551.205> 1444 113<482.082 591.208>
VStem: 306 125<1286.93 1418.69> 600 127<1298.69 1420.47>
LayerCount: 2
Fore
SplineSet
571 1557 m 0,0,1
 590 1557 590 1557 610 1552 c 0,2,3
 656 1541 656 1541 690 1500 c 0,4,5
 727 1455 727 1455 727 1395 c 0,6,7
 727 1380 727 1380 725 1363 c 0,8,9
 721 1338 721 1338 705 1320 c 0,10,11
 692 1305 692 1305 666 1286 c 2,12,-1
 516 1180 l 2,13,14
 488 1160 488 1160 462 1160 c 0,15,16
 443 1160 443 1160 423 1165 c 0,17,18
 377 1176 377 1176 343 1217 c 0,19,20
 306 1262 306 1262 306 1322 c 0,21,22
 306 1337 306 1337 308 1354 c 0,23,24
 312 1379 312 1379 328 1397 c 0,25,26
 342 1414 342 1414 367 1431 c 2,27,-1
 517 1537 l 2,28,29
 545 1557 545 1557 571 1557 c 0,0,1
533 1444 m 0,30,31
 501 1444 501 1444 471 1420 c 0,32,33
 442 1398 442 1398 434 1359 c 0,34,35
 431 1346 431 1346 431 1334 c 0,36,37
 431 1310 431 1310 443 1296 c 0,38,39
 461 1274 461 1274 498 1274 c 128,-1,40
 535 1274 535 1274 563 1298 c 0,41,42
 590 1320 590 1320 598 1358 c 0,43,44
 600 1369 600 1369 600 1379 c 0,45,46
 600 1404 600 1404 586 1421 c 0,47,48
 568 1444 568 1444 533 1444 c 0,30,31
EndSplineSet
Validated: 1
EndChar

StartChar: ogonek
Encoding: 731 731 192
Width: 452
Flags: W
HStem: -470 580
VStem: -34 277<-283 -131.312>
LayerCount: 2
Fore
SplineSet
314 110 m 1,0,-1
 324 110 l 1,1,-1
 432 0 l 1,2,3
 270 -57 270 -57 246 -169 c 0,4,5
 243 -183 243 -183 243 -196 c 0,6,7
 243 -263 243 -263 326 -288 c 1,8,-1
 70 -470 l 1,9,-1
 60 -470 l 1,10,11
 -34 -391 -34 -391 -34 -283 c 0,12,13
 -34 -255 -34 -255 -28 -225 c 0,14,15
 13 -31 13 -31 314 110 c 1,0,-1
EndSplineSet
Validated: 1
EndChar

StartChar: tilde
Encoding: 732 732 193
Width: 699
Flags: W
HStem: 1208 109<668 825.92> 1400 108<450.508 610.5> 1503 20G<922.222 969.5>
VStem: 298 148<1280 1384.3> 831 148<1331.23 1453.4>
DStem2: 950 1523 787 1225 0.812324 0.583207<-187.02 -38.7833>
LayerCount: 2
Fore
SplineSet
960 1523 m 1,0,1
 979 1484 979 1484 979 1438 c 0,2,3
 979 1412 979 1412 973 1384 c 8,4,5
 967 1355 967 1355 943 1337 c 2,6,-1
 787 1225 l 2,7,8
 763 1208 763 1208 739 1208 c 0,9,10
 597 1208 597 1208 549 1301 c 24,11,12
 499 1399 499 1399 473 1400 c 0,13,14
 453 1400 453 1400 447 1380 c 0,15,16
 446 1375 446 1375 446 1370 c 0,17,18
 446 1341 446 1341 478 1301 c 1,19,-1
 327 1193 l 1,20,-1
 318 1193 l 1,21,22
 298 1232 298 1232 298 1280 c 0,23,24
 298 1305 298 1305 303 1332 c 8,25,26
 309 1361 309 1361 334 1379 c 2,27,-1
 490 1492 l 2,28,29
 512 1508 512 1508 539 1508 c 0,30,31
 682 1508 682 1508 728 1415 c 0,32,33
 777 1317 777 1317 805 1317 c 0,34,35
 826 1317 826 1317 830 1337 c 0,36,37
 831 1342 831 1342 831 1348 c 0,38,39
 831 1377 831 1377 800 1415 c 1,40,-1
 950 1523 l 1,41,-1
 960 1523 l 1,0,1
EndSplineSet
Validated: 1
EndChar

StartChar: hungarumlaut
Encoding: 733 733 194
Width: 840
Flags: W
HStem: 1151 419
LayerCount: 2
Fore
SplineSet
566 1570 m 1,0,1
 576 1570 l 1,2,-1
 741 1401 l 1,3,4
 521 1353 521 1353 398 1151 c 1,5,-1
 388 1151 l 1,6,-1
 287 1254 l 1,7,8
 348 1437 348 1437 566 1570 c 1,0,1
943 1570 m 1,9,-1
 953 1570 l 1,10,-1
 1118 1401 l 1,11,12
 898 1353 898 1353 775 1151 c 1,13,-1
 765 1151 l 1,14,-1
 664 1254 l 1,15,16
 725 1437 725 1437 943 1570 c 1,9,-1
EndSplineSet
Validated: 1
EndChar

StartChar: uni1E9E
Encoding: 7838 7838 195
Width: 1278
Flags: W
HStem: -40 21G<122 160.095 589 691> 1240 290<843.691 974.145>
VStem: 718 274<803 958.889> 1050 323<443.12 608.327>
DStem2: 122 -40 432.436 -40 0.207912 0.978148<322.173 1258.4>
LayerCount: 2
Fore
SplineSet
122 -40 m 1,0,-1
 353 1043 l 2,1,2
 368 1112 368 1112 403 1156 c 0,3,4
 432 1192 432 1192 488 1232 c 2,5,-1
 841 1484 l 2,6,7
 905 1530 905 1530 969 1530 c 0,8,9
 1011 1530 1011 1530 1050 1518 c 0,10,11
 1150 1488 1150 1488 1222 1393 c 0,12,13
 1289 1304 1289 1304 1295 1178 c 1,14,-1
 1081 1025 l 2,15,16
 992 961 992 961 992 934 c 0,17,18
 992 906 992 906 1052 906 c 0,19,20
 1213 906 1213 906 1307 786 c 0,21,22
 1373 702 1373 702 1373 590 c 0,23,24
 1373 447 1373 447 1238 351 c 2,25,-1
 782 26 l 2,26,27
 717 -20 717 -20 665 -20 c 0,28,29
 513 -20 513 -20 414 71 c 1,30,-1
 726 294 l 1,31,-1
 736 294 l 1,32,33
 749 280 749 280 781 280 c 0,34,35
 862 280 862 280 947 352 c 0,36,37
 1030 423 1030 423 1047 504 c 0,38,39
 1050 519 1050 519 1050 533 c 0,40,41
 1050 571 1050 571 1027 600 c 0,42,43
 992 642 992 642 923 642 c 0,44,45
 810 642 810 642 752 723 c 0,46,47
 718 771 718 771 718 835 c 0,48,49
 718 862 718 862 724 893 c 0,50,51
 749 1013 749 1013 901 1121 c 2,52,-1
 984 1180 l 1,53,54
 952 1240 952 1240 872 1240 c 0,55,56
 803 1240 803 1240 744 1191 c 0,57,58
 684 1141 684 1141 664 1047 c 2,59,-1
 486 212 l 1,60,-1
 132 -40 l 1,61,-1
 122 -40 l 1,0,-1
EndSplineSet
Validated: 1
EndChar

